<svg width="10" height="10" viewBox="0 0 10 10" fill="none" xmlns="http://www.w3.org/2000/svg">
<g clip-path="url(#clip0_101_1953)">
<path d="M1.83988 0.869148C1.48441 0.947273 1.17191 1.19337 1.00395 1.52735C0.873086 1.78712 0.878946 1.60938 0.878946 4.75977C0.878946 6.52735 0.886758 7.63282 0.898477 7.66407C0.908243 7.69141 0.949258 7.74805 0.988321 7.79102C1.13285 7.95118 1.36723 7.96095 1.55863 7.81641C1.61137 7.77735 1.93754 7.51954 2.28324 7.2461C2.62895 6.97266 2.91996 6.7461 2.92777 6.7422C2.93754 6.73829 2.95121 6.77345 2.95902 6.82032C2.98051 6.94923 3.06449 7.16798 3.13676 7.2793C3.26762 7.48438 3.42387 7.62305 3.65043 7.73438C3.88285 7.84962 3.89457 7.85157 5.47465 7.85157H6.91605L7.71098 8.48048C8.14848 8.82423 8.53715 9.1211 8.57426 9.13673C8.75004 9.20899 8.98442 9.1211 9.07621 8.94727L9.12113 8.86134V5.99805C9.12113 2.82423 9.12895 3.04102 8.99027 2.75391C8.93754 2.64259 8.8809 2.56837 8.76176 2.45118C8.5352 2.22462 8.32035 2.12305 7.98441 2.08009C7.89848 2.06837 7.89066 2.06251 7.89066 2.01563C7.88871 1.89845 7.82816 1.6797 7.75199 1.52345C7.61137 1.23829 7.3477 1.00977 7.03129 0.894539L6.90434 0.849617L4.43363 0.845711C2.39848 0.843758 1.94145 0.847664 1.83988 0.869148ZM5.53715 2.50196C5.58793 2.51563 5.64652 2.55665 5.70512 2.6172C5.81645 2.73048 5.84965 2.84376 5.81645 2.9961C5.79106 3.1172 5.65238 3.26759 5.53715 3.29884C5.4141 3.33204 3.31449 3.32618 3.21684 3.29298C3.11137 3.25391 3.01762 3.17774 2.97856 3.0918C2.87309 2.8711 2.95707 2.62696 3.17191 2.52735L3.27152 2.48048H4.36527C5.0977 2.48048 5.48441 2.48829 5.53715 2.50196ZM8.05863 2.9297C8.12699 2.95704 8.2227 3.04884 8.26371 3.12696C8.2852 3.17188 8.30473 3.25977 8.31059 3.34376C8.31645 3.42188 8.31449 4.47657 8.30668 5.68751L8.29105 7.89063L7.79496 7.50001C7.52348 7.28516 7.27348 7.09376 7.23832 7.07423C7.18363 7.04298 7.04496 7.04102 5.60356 7.03126L4.03129 7.02149L3.94926 6.96876C3.86332 6.91016 3.78129 6.78712 3.76371 6.68555L3.75199 6.62305L5.30863 6.61524C7.04105 6.60938 6.93559 6.6172 7.2266 6.47071C7.43559 6.36524 7.63871 6.15821 7.75004 5.93751C7.89066 5.65626 7.89066 5.66212 7.89066 4.19337V2.88673L7.95512 2.9004C7.98832 2.90821 8.0352 2.92188 8.05863 2.9297ZM4.33207 4.17188C4.54496 4.25977 4.64652 4.50977 4.55277 4.7168C4.51566 4.80079 4.40043 4.91212 4.32231 4.94337C4.25981 4.9668 3.25981 4.9668 3.19731 4.94337C3.11918 4.91212 3.00395 4.80079 2.96684 4.7168C2.87504 4.51368 2.96684 4.27345 3.17387 4.17774C3.24418 4.14454 3.30668 4.14063 3.7559 4.14063C4.16801 4.14063 4.27152 4.14649 4.33207 4.17188ZM5.64848 4.21095C5.88481 4.37696 5.88481 4.72657 5.64848 4.89259C5.57035 4.94532 5.54887 4.95118 5.41215 4.95118C5.27738 4.95118 5.25199 4.94532 5.17973 4.89454C4.97465 4.75391 4.9434 4.45118 5.11332 4.26954C5.24809 4.12696 5.49027 4.09962 5.64848 4.21095Z" fill="#25D366"/>
</g>
<defs>
<clipPath id="clip0_101_1953">
<rect width="10" height="10" fill="white"/>
</clipPath>
</defs>
</svg>
