<svg width="10" height="10" viewBox="0 0 10 10" fill="none" xmlns="http://www.w3.org/2000/svg">
<g clip-path="url(#clip0_102_4450)">
<path d="M5.24658 0.247821C5.27786 0.266361 5.27786 0.266361 5.3125 0.292987C5.33102 0.306833 5.34953 0.320679 5.36861 0.334944C5.43313 0.389098 5.46901 0.451488 5.50407 0.52721C5.51058 0.54075 5.51709 0.55429 5.5238 0.568241C5.60915 0.74822 5.68579 0.932144 5.76294 1.11574C5.77974 1.1555 5.79655 1.19525 5.81336 1.235C5.84908 1.31943 5.88476 1.40388 5.92041 1.48833C6.00755 1.69457 6.09547 1.90048 6.1833 2.10643C6.33632 2.46525 6.4888 2.82429 6.64062 3.18361C6.78397 3.19737 6.92732 3.21108 7.07067 3.22477C7.12416 3.22988 7.17765 3.23501 7.23114 3.24014C7.575 3.27316 7.91893 3.30529 8.26299 3.33613C8.37761 3.34643 8.49221 3.35684 8.60682 3.36724C8.71966 3.37747 8.83252 3.3875 8.9454 3.39741C9.01659 3.40371 9.08777 3.41018 9.15894 3.4167C9.19215 3.4197 9.22537 3.42263 9.25859 3.42549C9.71018 3.46434 9.71018 3.46434 9.88281 3.63283C10.0049 3.79275 10.0145 3.94453 10 4.14064C9.97006 4.25779 9.91466 4.33416 9.82422 4.41408C9.80381 4.43518 9.78347 4.45635 9.76318 4.47756C9.70749 4.53337 9.64884 4.5832 9.5874 4.63259C9.5036 4.69997 9.42409 4.77029 9.3457 4.84377C9.25315 4.93046 9.15779 5.01157 9.05884 5.09096C8.98473 5.15271 8.91479 5.21848 8.84441 5.28441C8.77946 5.3449 8.71314 5.40229 8.6438 5.45778C8.55835 5.52632 8.47812 5.59882 8.39844 5.67385C8.3026 5.76409 8.20433 5.84889 8.1015 5.93119C8.02591 5.99401 7.95421 6.06068 7.88261 6.12799C7.86766 6.14202 7.86766 6.14202 7.8524 6.15633C7.84272 6.16561 7.83303 6.17489 7.82306 6.18444C7.79297 6.21096 7.79297 6.21096 7.75868 6.2335C7.72014 6.25775 7.72014 6.25775 7.67578 6.30861C7.68209 6.44911 7.71522 6.58417 7.7468 6.72085C7.75204 6.7439 7.75729 6.76695 7.76269 6.79069C7.77699 6.85347 7.79137 6.91622 7.80579 6.97896C7.82095 7.04501 7.836 7.11108 7.85107 7.17715C7.87962 7.30234 7.90828 7.4275 7.93697 7.55266C7.96941 7.69418 8.00174 7.83573 8.03406 7.97729C8.08451 8.19827 8.13503 8.41923 8.18564 8.64017C8.19295 8.67209 8.19295 8.67209 8.20041 8.70464C8.20506 8.72495 8.20972 8.74526 8.21451 8.76618C8.21901 8.78589 8.2235 8.8056 8.22813 8.82591C8.23803 8.86873 8.24814 8.9115 8.25842 8.95423C8.26372 8.97645 8.26902 8.99866 8.27448 9.02155C8.27931 9.04149 8.28414 9.06143 8.28912 9.08197C8.33067 9.29099 8.29661 9.45833 8.17993 9.63503C8.06177 9.74794 7.93271 9.80677 7.76977 9.80959C7.75258 9.81009 7.73538 9.8106 7.71767 9.81112C7.54662 9.79327 7.41279 9.71101 7.26919 9.62099C7.20953 9.5836 7.1495 9.54681 7.08954 9.50991C7.07697 9.50214 7.06439 9.49438 7.05144 9.48638C6.90379 9.39535 6.75452 9.30706 6.60522 9.21877C6.55504 9.18907 6.50487 9.15937 6.4547 9.12966C6.44256 9.12248 6.43043 9.11529 6.41793 9.10789C6.33273 9.05742 6.24775 9.00657 6.16287 8.95555C6.06299 8.89552 5.96292 8.83581 5.86265 8.77642C5.84995 8.76889 5.83724 8.76135 5.82415 8.7536C5.75757 8.71415 5.69096 8.67475 5.62432 8.63541C5.50732 8.56621 5.39063 8.49689 5.27611 8.42363C5.26 8.4134 5.2439 8.40316 5.2273 8.39261C5.19888 8.37439 5.17063 8.3559 5.14261 8.33709C5.08631 8.30108 5.05086 8.28044 4.98314 8.28519C4.91674 8.30211 4.8708 8.32604 4.81277 8.36229C4.79171 8.37529 4.77064 8.38829 4.74893 8.40169C4.73219 8.4122 4.73219 8.4122 4.71511 8.42292C4.66688 8.45318 4.61839 8.48301 4.56991 8.51287C4.54421 8.52869 4.51853 8.54454 4.49285 8.56041C4.35206 8.64732 4.20979 8.73169 4.06738 8.81594C4.04113 8.83149 4.01488 8.84705 3.98864 8.86261C3.89582 8.91762 3.80297 8.97257 3.71013 9.02752C3.6176 9.08229 3.5251 9.13708 3.43262 9.19191C3.41334 9.20334 3.41334 9.20334 3.39367 9.21499C3.25187 9.29904 3.11041 9.3836 2.96966 9.46939C2.95089 9.48083 2.95089 9.48083 2.93174 9.4925C2.8726 9.52857 2.8135 9.56472 2.7545 9.60101C2.54081 9.73174 2.36738 9.83612 2.10937 9.80471C1.95088 9.75296 1.83954 9.67694 1.75781 9.53127C1.74573 9.51072 1.73364 9.49018 1.72119 9.46901C1.6626 9.27045 1.70768 9.06736 1.75449 8.87077C1.76045 8.84486 1.76638 8.81893 1.77229 8.79301C1.78495 8.73771 1.79778 8.68246 1.81075 8.62724C1.8313 8.53978 1.85145 8.45223 1.87156 8.36466C1.90342 8.22614 1.93554 8.08768 1.96778 7.94925C2.0255 7.70132 2.08279 7.45329 2.13996 7.20522C2.15999 7.11833 2.18015 7.03147 2.20041 6.94464C2.21302 6.89052 2.22554 6.83639 2.23805 6.78226C2.24658 6.7455 2.2552 6.70875 2.26383 6.67201C2.2917 6.55109 2.31838 6.4328 2.32422 6.30861C2.28956 6.26054 2.26685 6.23598 2.22168 6.20119C2.20557 6.18765 2.20557 6.18765 2.18913 6.17383C2.15646 6.14656 2.12326 6.12012 2.08984 6.09377C2.05483 6.06531 2.01984 6.03682 1.98486 6.00832C1.96739 5.99427 1.94992 5.98022 1.93191 5.96575C1.85281 5.89937 1.77817 5.8286 1.70301 5.75782C1.61871 5.67888 1.53115 5.60557 1.44096 5.53339C1.37843 5.48141 1.31909 5.42669 1.25976 5.37111C1.18368 5.29985 1.10677 5.23133 1.02539 5.16603C0.932384 5.09141 0.845422 5.01192 0.758471 4.93047C0.693524 4.86998 0.627202 4.81259 0.55786 4.7571C0.0185548 4.32391 0.0185548 4.32391 -0.00824069 4.08747C-0.016455 3.92586 -0.00298757 3.78512 0.0976553 3.65236C0.199503 3.54128 0.318246 3.47477 0.468945 3.45679C0.481185 3.45531 0.493426 3.45383 0.506038 3.45231C0.73212 3.42615 0.959084 3.40728 1.18574 3.38687C1.25619 3.38052 1.32662 3.37409 1.39705 3.36766C1.53015 3.35554 1.66325 3.34347 1.79635 3.33142C2.0349 3.30983 2.27345 3.28816 2.51199 3.26645C2.59553 3.25884 2.67906 3.25127 2.7626 3.24373C2.80203 3.24016 2.84147 3.23658 2.8809 3.233C2.92879 3.22865 2.97667 3.22432 3.02457 3.22001C3.06602 3.21624 3.10745 3.21233 3.14887 3.20826C3.18298 3.20504 3.21714 3.2023 3.25133 3.20024C3.33075 3.19504 3.33075 3.19504 3.39206 3.14858C3.39828 3.13319 3.4045 3.1178 3.41091 3.10193C3.4184 3.08431 3.42588 3.06668 3.4336 3.04852C3.44113 3.02903 3.44866 3.00953 3.45642 2.98944C3.46914 2.95882 3.46914 2.95882 3.48211 2.92758C3.51014 2.85975 3.53728 2.79159 3.56445 2.72341C3.58394 2.67588 3.60349 2.62837 3.62311 2.5809C3.65379 2.50661 3.6844 2.43231 3.71473 2.35787C3.7861 2.18272 3.85925 2.00842 3.93394 1.83466C3.9391 1.82267 3.94425 1.81069 3.94956 1.79834C3.9752 1.73872 4.00088 1.67911 4.02657 1.61952C4.06464 1.53118 4.10255 1.44278 4.14043 1.35437C4.15848 1.31228 4.17657 1.27019 4.19468 1.22813C4.23813 1.12719 4.28124 1.02614 4.32342 0.924665C4.34414 0.874872 4.36502 0.825148 4.38592 0.775428C4.40054 0.740438 4.41494 0.705351 4.42933 0.670263C4.51146 0.475189 4.59362 0.328805 4.78897 0.232868C4.92119 0.189408 5.12021 0.187214 5.24658 0.247821Z" fill="#FFC300"/>
</g>
<defs>
<clipPath id="clip0_102_4450">
<rect width="10" height="10" fill="white"/>
</clipPath>
</defs>
</svg>
