<svg width="10" height="10" viewBox="0 0 10 10" fill="none" xmlns="http://www.w3.org/2000/svg">
<g clip-path="url(#clip0_102_4403)">
<path d="M4.37989 0.51004C4.16989 0.630039 4.14989 0.910039 4.31989 1.08004C4.38989 1.15004 4.66989 1.20004 4.94989 1.20004C5.97989 1.20004 6.83989 1.55004 7.62989 2.29004L8.12989 2.75004L7.64989 2.80004C7.10989 2.86004 6.87989 3.08004 7.05989 3.38004C7.20989 3.61004 9.09989 3.69004 9.28989 3.46004C9.36989 3.37004 9.39989 2.99004 9.37989 2.35004C9.35989 1.55004 9.31989 1.35004 9.17989 1.26004C8.89989 1.09004 8.65989 1.30004 8.61989 1.74004L8.58989 2.11004L8.03989 1.61004C7.45989 1.08004 6.69989 0.670039 5.98989 0.51004C5.42989 0.380039 4.59989 0.380039 4.37989 0.51004Z" fill="#2C6CD6"/>
<path d="M1.11999 0.920068C0.809991 1.23007 1.06999 1.60007 1.57999 1.60007H1.92999L1.49999 2.06007C0.809991 2.81007 0.339991 4.16007 0.419991 5.19007C0.479991 6.03007 1.12999 6.03007 1.16999 5.19007C1.23999 4.02007 1.54999 3.18007 2.17999 2.48007L2.54999 2.07007L2.59999 2.55007C2.65999 3.09007 2.87999 3.32007 3.16999 3.14007C3.31999 3.05007 3.35999 2.85007 3.37999 2.05007C3.39999 1.42007 3.36999 1.03007 3.28999 0.940068C3.13999 0.760068 1.29999 0.740068 1.11999 0.920068Z" fill="#2C6CD6"/>
<path d="M8.92998 4.51999C8.86998 4.58999 8.79998 4.91999 8.76998 5.24999C8.68998 6.14999 8.35998 6.91999 7.76998 7.56999L7.24998 8.13999L7.19998 7.64999C7.13998 7.10999 6.91998 6.87999 6.62998 7.05999C6.38998 7.20999 6.30998 9.09999 6.53998 9.28999C6.62998 9.36999 7.00998 9.39999 7.64998 9.37999C8.44998 9.35999 8.64998 9.31999 8.73998 9.16999C8.90998 8.89999 8.69998 8.65999 8.25998 8.61999L7.88998 8.58999L8.38998 8.04999C8.92998 7.44999 9.24998 6.86999 9.45998 6.06999C9.62998 5.42999 9.63998 4.67999 9.47998 4.51999C9.31998 4.35999 9.04998 4.36999 8.92998 4.51999Z" fill="#2C6CD6"/>
<path d="M0.710014 6.74005C0.630014 6.83005 0.600014 7.21005 0.620014 7.85005C0.640014 8.65005 0.680014 8.85005 0.820014 8.94005C1.12001 9.13005 1.35001 8.90005 1.38001 8.36005L1.41001 7.89005L1.96001 8.39005C2.82001 9.18005 4.03001 9.65005 5.01001 9.58005C5.50001 9.55005 5.72001 9.31005 5.54001 9.03005C5.46001 8.90005 5.24001 8.83005 4.79001 8.78005C3.91001 8.69005 3.11001 8.37005 2.54001 7.87005L2.06001 7.45005L2.45001 7.40005C2.89001 7.34005 3.11001 7.09005 2.94001 6.82005C2.79001 6.59005 0.900014 6.51005 0.710014 6.74005Z" fill="#2C6CD6"/>
</g>
<defs>
<clipPath id="clip0_102_4403">
<rect width="10" height="10" fill="white"/>
</clipPath>
</defs>
</svg>
