<svg width="10" height="10" viewBox="0 0 10 10" fill="none" xmlns="http://www.w3.org/2000/svg">
<g clip-path="url(#clip0_37_96)">
<path d="M2.63417 0.346772C2.66133 0.360861 2.68822 0.375466 2.71474 0.390717C2.73448 0.401594 2.75422 0.41247 2.77455 0.423676C2.97029 0.577769 3.09805 0.800606 3.23354 1.00595C3.24478 1.02292 3.25603 1.03988 3.26761 1.05736C3.44948 1.33185 3.62645 1.60812 3.78896 1.89462C3.8004 1.91477 3.81184 1.93493 3.82363 1.95569C3.95193 2.18326 4.07459 2.40893 4.16005 2.65634C4.1666 2.67424 4.17314 2.69214 4.17989 2.71059C4.23569 2.87521 4.24333 3.03018 4.17104 3.19109C3.99854 3.48046 3.67632 3.69839 3.41786 3.90634C3.52434 4.27117 3.69365 4.60772 3.90615 4.92197C3.91389 4.93356 3.92164 4.94514 3.92962 4.95708C4.43524 5.70837 5.17413 6.24783 6.013 6.57503C6.06833 6.58447 6.08699 6.57531 6.13271 6.54306C6.17416 6.49851 6.17416 6.49851 6.2145 6.4454C6.28773 6.35341 6.36365 6.26529 6.44307 6.1786C6.46874 6.15013 6.49388 6.12116 6.51815 6.09148C6.63389 5.9501 6.78644 5.80943 6.97255 5.78134C7.59726 5.7284 8.35764 6.34174 8.84567 6.66862C8.89939 6.70457 8.95323 6.74032 9.00708 6.77606C9.58808 7.16307 9.58808 7.16307 9.6874 7.46103C9.71334 7.67092 9.65252 7.81741 9.52947 7.9854C9.48582 8.03984 9.4407 8.09241 9.39443 8.14462C9.38053 8.16066 9.36663 8.1767 9.35231 8.19322C9.18976 8.37786 9.01572 8.55203 8.82802 8.71103C8.80866 8.728 8.7893 8.74497 8.76935 8.76245C8.42581 9.0628 8.05668 9.34624 7.66019 9.57338C7.6249 9.59371 7.58992 9.61467 7.55628 9.63762C7.35154 9.7679 7.03606 9.68065 6.81783 9.63276C6.62556 9.58831 6.43686 9.53588 6.2499 9.47275C6.2323 9.46682 6.2147 9.46089 6.19658 9.45478C5.18743 9.10847 4.27184 8.51359 3.46814 7.81947C3.43651 7.7923 3.40464 7.76546 3.3727 7.73866C3.05756 7.4733 2.74216 7.18985 2.4751 6.87532C2.43319 6.8266 2.38962 6.77954 2.34609 6.73227C2.26722 6.6457 2.19183 6.55717 2.11835 6.466C2.08308 6.4223 2.04756 6.3789 2.01169 6.33569C1.53831 5.76327 1.15092 5.13687 0.820208 4.47275C0.811723 4.45585 0.803238 4.43895 0.794497 4.42154C0.575982 3.98108 0.421847 3.49077 0.331927 3.00791C0.326337 2.97799 0.326337 2.97799 0.320635 2.94748C0.278356 2.65623 0.329087 2.47173 0.488177 2.22666C0.496636 2.21349 0.505095 2.20032 0.513811 2.18675C0.574166 2.09389 0.637797 2.00365 0.70302 1.91416C0.712364 1.90129 0.721708 1.88843 0.731335 1.87518C0.922564 1.61324 1.12343 1.35835 1.34404 1.12047C1.38045 1.081 1.41541 1.04082 1.45009 0.999848C2.18582 0.159018 2.18582 0.159018 2.63417 0.346772Z" fill="#fff"/>
</g>
<defs>
<clipPath id="clip0_37_96">
<rect width="10" height="10" fill="white"/>
</clipPath>
</defs>
</svg>
