<svg width="10" height="10" viewBox="0 0 10 10" fill="none" xmlns="http://www.w3.org/2000/svg">
<g clip-path="url(#clip0_90_816)">
<mask id="mask0_90_816" style="mask-type:luminance" maskUnits="userSpaceOnUse" x="0" y="0" width="10" height="10">
<path d="M10 0H0V10H10V0Z" fill="white"/>
</mask>
<g mask="url(#mask0_90_816)">
<path d="M3.67818 5.14525C3.83897 5.25095 4.0009 5.33925 4.17973 5.4102C4.19199 5.41505 4.20425 5.4199 4.21688 5.42495C4.81488 5.6557 5.38855 5.58315 5.9682 5.34215C6.14075 5.26145 6.29725 5.15555 6.4547 5.04895C6.8231 4.80182 6.8231 4.80182 7.0264 4.81326C7.0413 4.81372 7.05615 4.81419 7.0715 4.81466C7.5651 4.83645 8.0315 5.0372 8.36935 5.40305C9.00355 6.13155 9.16245 7.17295 9.17975 8.1055C9.1805 8.12915 9.1813 8.1528 9.1821 8.17715C9.1911 8.604 9.10825 9.07685 8.81595 9.40555C8.7878 9.43475 8.75935 9.46365 8.7305 9.4922C8.7136 9.50995 8.69665 9.52765 8.67925 9.54595C8.66395 9.56045 8.64865 9.57495 8.63285 9.58985C8.619 9.60325 8.619 9.60325 8.60485 9.6169C8.20235 9.9856 7.68495 10.0089 7.17105 10.0079C7.11825 10.008 7.0655 10.0081 7.0127 10.0083C6.88485 10.0086 6.75695 10.0087 6.6291 10.0086C6.52505 10.0085 6.42095 10.0085 6.3169 10.0086C6.30205 10.0086 6.28715 10.0086 6.27185 10.0087C6.2416 10.0087 6.2114 10.0087 6.18115 10.0087C5.8984 10.009 5.6156 10.0089 5.33285 10.0087C5.0749 10.0085 4.81692 10.0087 4.55896 10.0092C4.29326 10.0097 4.02757 10.0099 3.76187 10.0097C3.61303 10.0097 3.46419 10.0097 3.31535 10.0101C3.18864 10.0103 3.06193 10.0104 2.93522 10.01C2.87073 10.0099 2.80626 10.0098 2.74177 10.0101C2.17567 10.0122 1.68823 9.92295 1.26957 9.51175C1.25446 9.4971 1.23936 9.4825 1.22379 9.4674C0.946215 9.1808 0.818365 8.7812 0.816385 8.3877C0.81625 8.3697 0.81611 8.35165 0.81597 8.3331C0.81563 8.2747 0.815505 8.21635 0.81547 8.158C0.81546 8.1381 0.815445 8.1182 0.81543 8.0977C0.81575 7.79635 0.826745 7.5045 0.878945 7.20705C0.882405 7.18625 0.88586 7.1654 0.88942 7.14395C0.93625 6.86455 0.99737 6.5947 1.09379 6.32815C1.09834 6.31535 1.10289 6.3026 1.10758 6.2894C1.21949 5.9793 1.37157 5.7025 1.58207 5.44925C1.59247 5.4359 1.60287 5.4225 1.61358 5.40875C1.88261 5.0715 2.33197 4.87739 2.75218 4.82847C3.14029 4.78835 3.36136 4.93485 3.67818 5.14525Z" fill="#fff"/>
<path d="M6.42455 0.496768C6.5932 0.638075 6.74175 0.78143 6.875 0.95705C6.8868 0.97246 6.8986 0.987865 6.9108 1.00374C7.1343 1.3085 7.2576 1.64072 7.3242 2.01173C7.32785 2.03172 7.33145 2.05172 7.3352 2.07231C7.40895 2.72939 7.25875 3.35945 6.85545 3.88673C6.79945 3.95454 6.7406 4.01863 6.6797 4.08205C6.6632 4.09975 6.64675 4.11745 6.6298 4.13568C6.5009 4.27036 6.36725 4.37265 6.21095 4.47267C6.1947 4.4835 6.17845 4.49432 6.16175 4.50548C5.8012 4.73625 5.3596 4.83245 4.93652 4.83034C4.91353 4.83024 4.89053 4.83015 4.86684 4.83005C4.68384 4.8276 4.51324 4.81042 4.33594 4.76564C4.31661 4.76077 4.31661 4.76077 4.29689 4.7558C3.94453 4.66401 3.61103 4.48968 3.34511 4.24051C3.30818 4.20612 3.2706 4.17451 3.2312 4.14308C3.13717 4.06299 3.06343 3.96463 2.98828 3.8672C2.9766 3.85215 2.96492 3.83709 2.95288 3.82158C2.64856 3.40877 2.51151 2.93299 2.51221 2.42311C2.51222 2.40992 2.51223 2.39674 2.51224 2.38315C2.51352 2.03578 2.56798 1.72213 2.71484 1.40627C2.72366 1.38633 2.73247 1.36639 2.74155 1.34584C2.92949 0.94234 3.26152 0.591305 3.63281 0.35158C3.64998 0.340351 3.66715 0.329122 3.68485 0.317553C4.51171 -0.194964 5.67165 -0.115695 6.42455 0.496768Z" fill="#fff"/>
<path d="M8.90918 2.90902V1.31812" stroke="#fff" stroke-width="0.5" stroke-linecap="round"/>
<path d="M8.17505 2.09766H9.64325" stroke="#fff" stroke-width="0.5" stroke-linecap="round"/>
</g>
</g>
<defs>
<clipPath id="clip0_90_816">
<rect width="10" height="10" fill="white"/>
</clipPath>
</defs>
</svg>
