<svg width="10" height="10" viewBox="0 0 10 10" fill="white" xmlns="http://www.w3.org/2000/svg">
<g clip-path="url(#clip0_37_124)">
<path d="M4.7657 -0.010263C4.78433 -0.0103377 4.80296 -0.0104125 4.82216 -0.0104895C4.86142 -0.0105425 4.90069 -0.0103994 4.93996 -0.0100722C4.99989 -0.00965392 5.05977 -0.0100687 5.11971 -0.0105681C5.15795 -0.0105165 5.1962 -0.0104164 5.23445 -0.010263C5.26119 -0.0105002 5.26119 -0.0105002 5.28847 -0.0107422C5.39719 -0.00915024 5.46128 0.00485257 5.54695 0.078238C5.61577 0.16937 5.6472 0.235829 5.64651 0.349463C5.64645 0.367779 5.64639 0.386096 5.64632 0.404967C5.64616 0.424038 5.646 0.44311 5.64583 0.462759C5.64574 0.482058 5.64565 0.501356 5.64556 0.521239C5.64533 0.568886 5.64501 0.61653 5.64461 0.664176C5.66263 0.667046 5.68066 0.669916 5.69923 0.672873C6.64952 0.832514 7.63097 1.37808 8.20564 2.16564C8.44005 2.49473 8.44005 2.49473 8.44246 2.64294C8.44296 2.66139 8.44347 2.67984 8.44398 2.69886C8.43487 2.7773 8.40869 2.82727 8.34675 2.87816C8.30503 2.90766 8.26261 2.93566 8.21968 2.96337C8.20374 2.9739 8.18779 2.98443 8.17137 2.99528C8.12025 3.02899 8.06896 3.06241 8.01765 3.09582C7.96772 3.12858 7.91782 3.16141 7.86793 3.19424C7.8347 3.2161 7.80144 3.23793 7.76817 3.25973C7.63164 3.34935 7.49684 3.44136 7.3629 3.53481C7.34841 3.54484 7.33392 3.55488 7.31899 3.56521C7.3063 3.57407 7.29361 3.58293 7.28053 3.59205C7.19671 3.64411 7.10718 3.64442 7.0118 3.63293C6.87197 3.56301 6.77149 3.43625 6.6761 3.31554C6.41199 2.98931 6.04932 2.73293 5.64461 2.6173C5.64461 3.13293 5.64461 3.64855 5.64461 4.1798C5.75418 4.20558 5.86375 4.23136 5.97664 4.25793C6.84513 4.50514 7.7387 4.84646 8.20675 5.67156C8.49713 6.21402 8.51094 6.90248 8.33626 7.48302C8.12744 8.12594 7.66902 8.61852 7.07403 8.92814C7.00834 8.96133 6.94192 8.99277 6.87508 9.02355C6.86212 9.02954 6.84916 9.03553 6.83581 9.04171C6.47589 9.20544 6.04322 9.34531 5.64461 9.33605C5.64502 9.34766 5.64543 9.35926 5.64585 9.37122C5.64749 9.4246 5.64849 9.47797 5.64949 9.53136C5.65015 9.54962 5.6508 9.56787 5.65147 9.58668C5.65318 9.70895 5.63763 9.80097 5.56648 9.90246C5.49446 9.96934 5.44612 10.0022 5.34861 10.0039C5.33185 10.0042 5.31509 10.0045 5.29782 10.0048C5.22093 10.0057 5.14405 10.0065 5.06716 10.007C5.02668 10.0073 4.9862 10.0078 4.94572 10.0086C4.88726 10.0096 4.82882 10.0101 4.77036 10.0103C4.75239 10.0108 4.73442 10.0112 4.7159 10.0117C4.58997 10.0113 4.52849 9.98606 4.43367 9.90246C4.35463 9.79696 4.36839 9.67938 4.37141 9.55334C4.37168 9.53244 4.37194 9.51154 4.37222 9.49001C4.3729 9.43868 4.37386 9.38737 4.37508 9.33605C4.35187 9.33336 4.35187 9.33336 4.32819 9.33062C3.42801 9.22095 2.43601 8.65815 1.87889 7.94788C1.86474 7.92902 1.85059 7.91017 1.83601 7.89074C1.82772 7.87969 1.81943 7.86865 1.81089 7.85727C1.55567 7.51497 1.55567 7.51497 1.55029 7.29915C1.58 7.17108 1.69603 7.09767 1.79993 7.02961C1.81338 7.02058 1.82683 7.01156 1.8407 7.00226C1.88419 6.97314 1.92785 6.94427 1.97151 6.9154C2.00151 6.89538 2.03149 6.87535 2.06147 6.85531C2.10645 6.82523 2.15144 6.79516 2.19648 6.76517C2.2853 6.70603 2.37372 6.64637 2.46162 6.58588C2.48141 6.57227 2.50121 6.55866 2.5216 6.54464C2.55767 6.51977 2.59372 6.49487 2.62973 6.46992C2.64553 6.45907 2.66133 6.44822 2.67761 6.43703C2.69781 6.42306 2.69781 6.42306 2.71842 6.40881C2.79702 6.36022 2.87909 6.35569 2.96883 6.3673C3.12541 6.43598 3.22435 6.55883 3.33015 6.68957C3.50939 6.91061 3.71881 7.08201 3.96492 7.22423C3.9767 7.2312 3.98848 7.23818 4.00062 7.24536C4.12371 7.31391 4.23283 7.33916 4.37508 7.38293C4.37508 6.8673 4.37508 6.35168 4.37508 5.82043C4.26551 5.79464 4.15594 5.76886 4.04305 5.7423C3.27485 5.53679 2.47213 5.24175 1.97273 4.58996C1.96065 4.5745 1.94856 4.55904 1.93611 4.54311C1.5794 4.06378 1.51648 3.44192 1.59329 2.86535C1.69733 2.20784 2.06474 1.66213 2.59692 1.27344C3.02131 0.970838 3.5195 0.795224 4.0284 0.695914C4.04514 0.692634 4.06188 0.689355 4.07913 0.685977C4.17939 0.667703 4.27319 0.661124 4.37508 0.664176C4.37467 0.651283 4.37426 0.638391 4.37384 0.625108C4.3722 0.566112 4.37119 0.507121 4.37019 0.448111C4.36954 0.427831 4.36888 0.407551 4.36821 0.386656C4.36659 0.259194 4.37345 0.17977 4.4532 0.078238C4.55516 -0.00884587 4.6377 -0.0113986 4.7657 -0.010263ZM3.59375 2.90623C3.48319 3.02847 3.44923 3.14925 3.45184 3.3115C3.46461 3.42788 3.55558 3.50673 3.64136 3.57845C3.82373 3.70559 4.15069 3.8673 4.37508 3.8673C4.37508 3.43546 4.37508 3.00363 4.37508 2.55871C4.09438 2.55871 3.79003 2.71703 3.59375 2.90623ZM5.64461 6.13293C5.64461 6.56476 5.64461 6.9966 5.64461 7.44152C5.95669 7.38478 6.25994 7.2883 6.46492 7.03136C6.54425 6.90946 6.56453 6.78421 6.54305 6.64074C6.45046 6.44014 6.2312 6.32869 6.03523 6.25011C5.84365 6.17101 5.84365 6.17101 5.64461 6.13293Z" fill="white"/>
</g>
<defs>
<clipPath id="clip0_37_124">
<rect width="10" height="10" fill="white"/>
</clipPath>
</defs>
</svg>
