<svg width="17" height="17" viewBox="0 0 17 17" fill="none" xmlns="http://www.w3.org/2000/svg">
<g clip-path="url(#clip0_241_885)">
<path d="M0 0C5.61 0 11.22 0 17 0C17 5.61 17 11.22 17 17C11.39 17 5.78 17 0 17C0 11.39 0 5.78 0 0Z" fill="#00D632"/>
<path d="M9.14119 3.25343C9.18205 3.25288 9.18205 3.25288 9.22374 3.25232C9.25328 3.25211 9.28283 3.2519 9.31326 3.25169C9.3436 3.25146 9.37393 3.25123 9.40518 3.251C9.46949 3.2506 9.5338 3.2503 9.59811 3.25008C9.6963 3.24959 9.79447 3.24835 9.89266 3.2471C9.95512 3.24681 10.0176 3.24657 10.08 3.24638C10.124 3.24563 10.124 3.24563 10.1689 3.24487C10.3391 3.24538 10.4393 3.25705 10.5683 3.37177C10.665 3.56506 10.576 3.8322 10.5258 4.02875C10.4825 4.20051 10.4452 4.3557 10.455 4.53344C10.4725 4.54069 10.49 4.54794 10.5081 4.5554C11.8017 5.09435 11.8017 5.09435 12.1267 5.58177C12.1454 5.7471 12.1113 5.81917 12.0133 5.95011C11.9561 6.01282 11.8957 6.07184 11.8345 6.13073C11.7291 6.23376 11.6265 6.33643 11.5317 6.44948C11.4353 6.5615 11.3637 6.62395 11.2122 6.63985C11.0807 6.62771 11.0344 6.58783 10.9349 6.50261C10.7488 6.34951 10.5536 6.23369 10.3417 6.12011C10.3189 6.10674 10.2961 6.09337 10.2726 6.0796C10.0401 5.94963 9.77711 5.89782 9.52001 5.83677C9.48842 5.82868 9.48842 5.82868 9.45618 5.82041C9.29968 5.78201 9.15147 5.77018 8.99053 5.77125C8.96588 5.77137 8.94123 5.77149 8.91584 5.77161C8.5265 5.77836 8.13768 5.85816 7.8396 6.12077C7.69893 6.28515 7.69147 6.43848 7.69716 6.64693C7.71908 6.86918 7.82537 6.99996 7.99488 7.14022C8.34313 7.38601 8.75708 7.51148 9.15573 7.65026C10.0356 7.95657 10.9953 8.33401 11.4467 9.20844C11.4621 9.23799 11.4776 9.26754 11.4935 9.29798C11.6944 9.77378 11.6675 10.4854 11.475 10.9651C11.3478 11.2618 11.1843 11.5206 10.965 11.7584C10.9477 11.7783 10.9304 11.7983 10.9125 11.8188C10.6678 12.0849 10.3267 12.2614 10.0017 12.4101C9.98049 12.4202 9.95931 12.4303 9.93748 12.4407C9.77533 12.5121 9.60622 12.5558 9.43501 12.5996C9.3997 12.6087 9.3997 12.6087 9.36368 12.618C9.11383 12.6795 8.87 12.6976 8.61334 12.6934C8.61138 12.7185 8.61138 12.7185 8.60939 12.7442C8.5929 12.9319 8.56176 13.1133 8.52126 13.2973C8.51582 13.3246 8.51038 13.3518 8.50477 13.3799C8.46863 13.5441 8.43457 13.6365 8.30168 13.7418C8.29233 13.7511 8.28298 13.7605 8.27334 13.7701C8.23165 13.7733 8.1898 13.7746 8.14798 13.7751C8.1213 13.7755 8.09463 13.7759 8.06714 13.7762C8.03807 13.7764 8.009 13.7766 7.97905 13.7769C7.94931 13.7771 7.91957 13.7773 7.88892 13.7776C7.82578 13.7779 7.76263 13.7782 7.69949 13.7785C7.60309 13.779 7.50673 13.7802 7.41034 13.7815C7.34904 13.7817 7.28775 13.782 7.22645 13.7822C7.19767 13.7827 7.16888 13.7832 7.13923 13.7837C6.97484 13.7832 6.8703 13.7727 6.74334 13.6568C6.64891 13.5167 6.67585 13.352 6.70284 13.1935C6.72442 13.0872 6.74767 12.9815 6.77168 12.8758C6.77989 12.8388 6.78808 12.8017 6.79625 12.7647C6.81615 12.6748 6.8363 12.5849 6.85668 12.4951C6.82713 12.4913 6.79758 12.4876 6.76714 12.4837C6.1119 12.3817 5.4078 11.915 4.95834 11.4468C4.89353 11.339 4.88278 11.2611 4.90168 11.1351C4.93579 11.0866 4.93579 11.0866 4.98258 11.0355C5.0006 11.0157 5.01862 10.996 5.03718 10.9756C5.05791 10.9535 5.07865 10.9313 5.10001 10.9084C5.12332 10.8831 5.14663 10.8578 5.17064 10.8317C5.23549 10.7621 5.30099 10.6933 5.36728 10.625C5.39467 10.5966 5.42181 10.5679 5.44868 10.539C5.67076 10.3004 5.67076 10.3004 5.7958 10.2641C5.91235 10.2605 6.0039 10.2796 6.09345 10.3577C6.11207 10.3733 6.1307 10.3889 6.14989 10.405C6.18555 10.4374 6.22112 10.4699 6.25659 10.5026C6.86896 11.0599 7.67556 11.2584 8.48407 11.2249C8.80307 11.2039 9.18891 11.091 9.43501 10.8801C9.49687 10.7981 9.55145 10.7127 9.60501 10.6251C9.62371 10.5971 9.64241 10.569 9.66168 10.5401C9.68274 10.3402 9.69095 10.1184 9.57668 9.94511C9.31615 9.63062 8.87198 9.48461 8.50001 9.35011C6.44465 8.58894 6.44465 8.58894 6.00668 7.70677C5.78322 7.19225 5.73107 6.63107 5.89334 6.09177C5.90123 6.06332 5.90912 6.03487 5.91725 6.00556C6.09772 5.40425 6.54689 4.96438 7.09021 4.67179C7.58671 4.41639 8.11625 4.31986 8.67001 4.30677C8.67333 4.27127 8.67666 4.23577 8.68008 4.1992C8.69772 4.04138 8.72934 3.88791 8.76386 3.73302C8.76954 3.70563 8.77522 3.67824 8.78107 3.65002C8.81367 3.50349 8.84182 3.39451 8.95334 3.28677C9.02142 3.25274 9.06515 3.25431 9.14119 3.25343Z" fill="#FDFEFD"/>
</g>
<defs>
<clipPath id="clip0_241_885">
<rect width="17" height="17" rx="4" fill="white"/>
</clipPath>
</defs>
</svg>
