<svg width="17" height="17" viewBox="0 0 17 17" fill="none" xmlns="http://www.w3.org/2000/svg">
<rect width="17" height="17" rx="4" fill="#F79621"/>
<g clip-path="url(#clip0_241_902)">
<path d="M8.48755 -0.010372C8.52135 -0.0103004 8.55515 -0.0102289 8.58997 -0.0101552C9.07504 -0.00850593 9.55091 -0.000175378 10.0273 0.0996134C10.0597 0.10621 10.0921 0.112807 10.1254 0.119603C11.7319 0.45564 13.1924 1.18334 14.377 2.32422C14.4098 2.35571 14.4098 2.35571 14.4433 2.38782C14.7583 2.69145 15.0485 3.00015 15.3066 3.35352C15.3351 3.39174 15.3636 3.42996 15.3921 3.46817C15.5926 3.74015 15.7705 4.02283 15.9375 4.31641C15.9496 4.33739 15.9617 4.35837 15.9742 4.37998C16.6916 5.63334 17.0158 7.05332 17.0104 8.48755C17.0103 8.52135 17.0102 8.55515 17.0102 8.58997C17.0085 9.07504 17.0002 9.55091 16.9004 10.0273C16.8905 10.0759 16.8905 10.0759 16.8804 10.1254C16.5444 11.7319 15.8167 13.1924 14.6758 14.377C14.6548 14.3988 14.6338 14.4207 14.6122 14.4433C14.3086 14.7583 13.9999 15.0485 13.6465 15.3066C13.6083 15.3351 13.5701 15.3636 13.5318 15.3921C13.2599 15.5926 12.9776 15.7713 12.6836 15.9375C12.6601 15.9509 12.6366 15.9642 12.6124 15.978C11.8443 16.4105 11.0085 16.7009 10.1456 16.8776C10.1218 16.8825 10.0979 16.8874 10.0733 16.8924C9.58602 16.985 9.10375 17.0116 8.60867 17.0105C8.51106 17.0104 8.4135 17.0112 8.3159 17.012C7.87187 17.0135 7.44367 16.9735 7.00586 16.9004C6.94923 16.891 6.94923 16.891 6.89146 16.8815C5.45484 16.6234 4.09186 15.9598 2.98829 15.0078C2.96355 14.9868 2.93881 14.9657 2.91332 14.944C2.46491 14.5518 2.04418 14.1285 1.69336 13.6465C1.66493 13.6083 1.63648 13.5701 1.60802 13.532C1.40747 13.26 1.22873 12.9777 1.0625 12.6836C1.04915 12.6601 1.0358 12.6366 1.02204 12.6124C0.589553 11.8443 0.299064 11.0085 0.122441 10.1456C0.117548 10.1218 0.112655 10.0979 0.107614 10.0733C0.00887284 9.5538 -0.0123809 9.04003 -0.010372 8.51245C-0.0103004 8.47866 -0.0102289 8.44486 -0.0101552 8.41004C-0.00850593 7.92497 -0.000175378 7.4491 0.0996134 6.97266C0.10621 6.94029 0.112807 6.90792 0.119603 6.87458C0.45564 5.26815 1.18334 3.8076 2.32422 2.62305C2.34521 2.60116 2.3662 2.57927 2.38782 2.55671C2.69145 2.24167 3.00015 1.95148 3.35352 1.69336C3.39174 1.66487 3.42996 1.63638 3.46817 1.60789C3.7401 1.40743 4.02241 1.2287 4.31641 1.0625C4.33989 1.04915 4.36337 1.0358 4.38757 1.02204C5.15573 0.589553 5.9915 0.299064 6.85437 0.122441C6.87824 0.117548 6.90211 0.112655 6.92671 0.107614C7.44621 0.00887284 7.95998 -0.0123809 8.48755 -0.010372Z" fill="#F79621"/>
<path d="M8.33398 4.18359C8.5913 4.20104 8.82024 4.26846 9.06445 4.34961C9.04521 4.58336 8.9963 4.79687 8.93164 5.02197C8.91361 5.08577 8.89562 5.14958 8.87769 5.21341C8.86972 5.24124 8.86176 5.26907 8.85356 5.29775C8.83183 5.37968 8.81458 5.46165 8.79883 5.54492C8.99406 5.61542 9.19504 5.66204 9.39648 5.71094C9.39935 5.68911 9.40222 5.66728 9.40517 5.64479C9.44156 5.39841 9.50065 5.16335 9.57031 4.92471C9.60974 4.78878 9.64226 4.65617 9.66211 4.51562C9.82318 4.53998 9.97952 4.5756 10.1373 4.61523C10.1615 4.62114 10.1857 4.62705 10.2105 4.63313C10.3885 4.67759 10.3885 4.67759 10.4258 4.71484C10.424 4.95953 10.3595 5.18963 10.2909 5.42249C10.2723 5.48594 10.2539 5.54945 10.2358 5.61301C10.2236 5.65444 10.2236 5.65444 10.2111 5.69671C10.1925 5.78133 10.1902 5.85699 10.1934 5.94336C10.2251 5.95783 10.2568 5.97229 10.2895 5.9872C10.424 6.04892 10.5578 6.11208 10.6914 6.17578C10.7417 6.1996 10.7417 6.1996 10.793 6.2239C11.1686 6.41418 11.4974 6.69246 11.6368 7.1019C11.7268 7.46146 11.6951 7.90674 11.5215 8.23438C11.3499 8.51107 11.1251 8.71704 10.8035 8.79468C10.7774 8.79605 10.7514 8.79742 10.7246 8.79883C10.7246 8.82074 10.7246 8.84266 10.7246 8.86523C10.752 8.8714 10.7794 8.87756 10.8076 8.88391C11.127 9.01507 11.3232 9.30454 11.4585 9.61256C11.6132 10.0625 11.4894 10.4509 11.2945 10.8636C11.0927 11.2769 10.8569 11.542 10.4154 11.7166C10.1692 11.7917 9.93401 11.7935 9.67871 11.7933C9.64016 11.7933 9.60162 11.7933 9.5619 11.7933C9.24457 11.7912 8.94086 11.7685 8.63281 11.6875C8.62973 11.7512 8.62973 11.7512 8.62659 11.8162C8.6072 12.0161 8.553 12.2031 8.4968 12.3952C8.48968 12.4195 8.48256 12.4439 8.47523 12.4689C8.46813 12.493 8.46103 12.5171 8.45371 12.542C8.42585 12.6461 8.4067 12.7516 8.38845 12.8578C8.38143 12.877 8.37442 12.8962 8.36719 12.916C8.23811 12.959 8.1488 12.9249 8.02271 12.889C7.98983 12.8801 7.98983 12.8801 7.9563 12.8711C7.83531 12.8377 7.71895 12.7992 7.60352 12.75C7.62262 12.4737 7.69594 12.2161 7.77161 11.951C7.78427 11.906 7.79692 11.861 7.80954 11.816C7.84027 11.7067 7.87121 11.5975 7.90234 11.4883C7.86166 11.4817 7.86166 11.4817 7.82015 11.4751C7.78444 11.4692 7.74873 11.4634 7.71194 11.4574C7.6766 11.4517 7.64126 11.446 7.60485 11.44C7.49017 11.4194 7.3824 11.3908 7.27148 11.3555C7.2649 11.4058 7.2649 11.4058 7.25819 11.4572C7.23948 11.58 7.21452 11.6982 7.18536 11.8189C7.17513 11.8613 7.1649 11.9037 7.15437 11.9474C7.14906 11.9691 7.14376 11.9908 7.1383 12.0132C7.12198 12.0801 7.10587 12.147 7.08978 12.214C7.01022 12.5421 7.01022 12.5421 6.97266 12.6172C6.80567 12.5918 6.64284 12.5549 6.47876 12.5155C6.45274 12.5093 6.42671 12.5031 6.3999 12.4968C6.33625 12.4816 6.27261 12.4664 6.20898 12.4512C6.25755 12.1579 6.32485 11.8702 6.39575 11.5817C6.40666 11.5369 6.41755 11.4922 6.42844 11.4475C6.4548 11.3393 6.48126 11.2312 6.50781 11.123C6.47237 11.1195 6.43693 11.1159 6.40042 11.1123C6.20883 11.0882 6.0229 11.0419 5.83545 10.9965C5.78287 10.9841 5.78287 10.9841 5.72923 10.9715C5.48589 10.913 5.24983 10.8406 5.01367 10.7578C5.0739 10.5594 5.1474 10.3679 5.22742 10.1768C5.24177 10.141 5.24177 10.141 5.25641 10.1045C5.28539 10.0367 5.28539 10.0367 5.3457 9.92773C5.45846 9.88548 5.52041 9.90134 5.63208 9.94226C5.79986 9.9962 5.96715 10.027 6.14258 9.99414C6.2372 9.91882 6.26419 9.84746 6.29575 9.73241C6.3049 9.69953 6.31405 9.66665 6.32347 9.63277C6.33294 9.59726 6.34241 9.56174 6.35217 9.52515C6.36222 9.48841 6.37227 9.45167 6.38263 9.41382C6.46276 9.11742 6.53517 8.81933 6.60538 8.52044C6.65557 8.30735 6.71138 8.09781 6.7737 7.88795C6.82439 7.70572 6.8658 7.52139 6.90836 7.33712C6.95913 7.1205 7.01821 6.90769 7.08808 6.69642C7.13833 6.53726 7.14991 6.40716 7.13867 6.24219C7.05325 6.09127 6.98371 6.03779 6.81909 5.98694C6.75973 5.97192 6.70023 5.95742 6.64062 5.94336C6.57279 5.92486 6.505 5.90618 6.43726 5.88733C6.38331 5.87276 6.32936 5.85822 6.27539 5.84375C6.29485 5.64689 6.33529 5.46803 6.39368 5.2793C6.40533 5.24071 6.40533 5.24071 6.41722 5.20135C6.43616 5.13873 6.45536 5.07619 6.47461 5.01367C6.85505 5.09417 7.22977 5.1866 7.6036 5.29363C7.69883 5.32072 7.79434 5.34674 7.88989 5.37268C7.93265 5.3843 7.93265 5.3843 7.97627 5.39616C8.00542 5.40405 8.00542 5.40405 8.03516 5.41211C8.03824 5.372 8.04132 5.3319 8.04449 5.29058C8.06825 5.07703 8.1272 4.87367 8.18457 4.66711C8.19523 4.62784 8.20589 4.58857 8.21687 4.54811C8.2956 4.26037 8.2956 4.26037 8.33398 4.18359Z" fill="#FEFEFD"/>
<path d="M7.96875 8.76562C8.17181 8.78544 8.35709 8.82815 8.55188 8.88806C8.58081 8.89692 8.60973 8.90579 8.63953 8.91492C9.13828 9.0706 9.60842 9.22527 9.89453 9.69531C9.95982 9.89117 9.94232 10.0742 9.86211 10.2615C9.74821 10.4784 9.61068 10.5957 9.37547 10.6696C8.79093 10.7835 8.16207 10.6331 7.60352 10.459C7.59256 10.448 7.5816 10.4371 7.57031 10.4258C7.58542 10.2003 7.63434 9.99484 7.6969 9.77832C7.7695 9.52061 7.83688 9.26274 7.89551 9.00148C7.93244 8.83824 7.93244 8.83824 7.96875 8.76562Z" fill="#F79622"/>
<path d="M8.56641 6.47461C9.08383 6.5321 9.63695 6.72136 10.0273 7.07227C10.1688 7.25098 10.1825 7.40514 10.1752 7.63127C10.1469 7.82908 10.0529 7.9447 9.91321 8.08081C9.72888 8.1977 9.5565 8.21209 9.3446 8.20947C9.31823 8.20925 9.29186 8.20902 9.26469 8.20879C8.87972 8.20211 8.5323 8.12479 8.16797 8.00195C8.17486 7.97477 8.18175 7.9476 8.18885 7.91959C8.24732 7.68744 8.3047 7.45509 8.36018 7.2222C8.37066 7.17832 8.38115 7.13445 8.39163 7.09058C8.40746 7.02428 8.42326 6.95797 8.43892 6.89162C8.45377 6.82873 8.46878 6.76587 8.48379 6.70301C8.49251 6.66623 8.50122 6.62944 8.51021 6.59154C8.5332 6.50781 8.5332 6.50781 8.56641 6.47461Z" fill="#F79723"/>
</g>
<defs>
<clipPath id="clip0_241_902">
<rect width="17" height="17" fill="white"/>
</clipPath>
</defs>
</svg>
