<svg width="17" height="17" viewBox="0 0 17 17" fill="none" xmlns="http://www.w3.org/2000/svg">
<rect width="17" height="17" rx="4" fill="black"/>
<g clip-path="url(#clip0_241_955)">
<path d="M4.16016 3.59941C3.94746 3.66602 3.7584 3.82715 3.65313 4.03125L3.59082 4.14941V5.75V7.35059L3.65313 7.46875C3.73477 7.62773 3.86367 7.75879 4.02051 7.84043L4.14941 7.90918H5.75H7.35059L7.46875 7.84902C7.62559 7.76738 7.75879 7.63633 7.84043 7.47949L7.90918 7.35059V5.75V4.14941L7.84043 4.02051C7.75879 3.86367 7.62559 3.73262 7.46875 3.65098L7.35059 3.59082L5.78223 3.58652C4.9207 3.58437 4.19023 3.59082 4.16016 3.59941Z" fill="#8771FF"/>
<path d="M9.66016 3.59941C9.44746 3.66602 9.2584 3.82715 9.15313 4.03125L9.09082 4.14941V5.75V7.35059L9.15313 7.46875C9.23477 7.62773 9.36367 7.75879 9.52051 7.84043L9.64941 7.90918H11.25H12.8506L12.9688 7.84902C13.1256 7.76738 13.2588 7.63633 13.3404 7.47949L13.4092 7.35059V5.75V4.14941L13.3404 4.02051C13.2588 3.86367 13.1256 3.73262 12.9688 3.65098L12.8506 3.59082L11.2822 3.58652C10.4207 3.58437 9.69023 3.59082 9.66016 3.59941Z" fill="#8771FF"/>
<path d="M11.0566 8.87388C10.8396 8.93403 10.8009 8.96626 9.88356 9.88364C8.91892 10.8483 8.90817 10.859 8.86091 11.119C8.83083 11.2737 8.85661 11.4413 8.93181 11.6067C9.00056 11.7614 10.7386 13.4995 10.8933 13.5682C11.1318 13.6778 11.381 13.6778 11.6109 13.5682C11.7634 13.4973 13.5015 11.7549 13.5681 11.6067C13.6433 11.4434 13.6691 11.2737 13.6412 11.1254C13.5918 10.8612 13.581 10.8483 12.6486 9.91157C12.1695 9.43032 11.7334 9.00708 11.6797 8.9727C11.5013 8.85884 11.2543 8.81802 11.0566 8.87388Z" fill="#8771FF"/>
<path d="M4.16016 9.09941C3.94746 9.16602 3.7584 9.32715 3.65313 9.53125L3.59082 9.64941V11.25V12.8506L3.65313 12.9688C3.73477 13.1277 3.86367 13.2588 4.02051 13.3404L4.14941 13.4092H5.75H7.35059L7.46875 13.349C7.62559 13.2674 7.75879 13.1363 7.84043 12.9795L7.90918 12.8506V11.25V9.64941L7.84043 9.52051C7.75879 9.36367 7.62559 9.23262 7.46875 9.15098L7.35059 9.09082L5.78223 9.08652C4.9207 9.08437 4.19023 9.09082 4.16016 9.09941Z" fill="#8771FF"/>
</g>
<defs>
<clipPath id="clip0_241_955">
<rect width="11" height="11" fill="white" transform="translate(3 3)"/>
</clipPath>
</defs>
</svg>
