<svg width="17" height="17" viewBox="0 0 17 17" fill="none" xmlns="http://www.w3.org/2000/svg">
<rect width="17" height="17" rx="4" fill="#192C89"/>
<g clip-path="url(#clip0_237_769)">
<path d="M5.89979 2.99674C5.9177 2.99666 5.93561 2.99658 5.95406 2.9965C6.01443 2.99626 6.07481 2.99618 6.13518 2.9961C6.17834 2.99596 6.2215 2.99582 6.26466 2.99567C6.40684 2.99522 6.54903 2.995 6.69122 2.99478C6.74022 2.9947 6.78923 2.99461 6.83824 2.99452C7.06875 2.99411 7.29927 2.9938 7.52978 2.99362C7.79528 2.99341 8.06077 2.99285 8.32627 2.99198C8.53174 2.99133 8.73721 2.99101 8.94268 2.99094C9.06523 2.99089 9.18778 2.9907 9.31034 2.99016C9.42597 2.98965 9.54159 2.98957 9.65722 2.98979C9.69935 2.9898 9.74148 2.98967 9.78361 2.98937C10.1303 2.98706 10.4751 3.0203 10.7948 3.16506C10.82 3.17612 10.82 3.17612 10.8456 3.18741C11.4357 3.45496 11.8832 3.94398 12.1154 4.54729C12.2312 4.86396 12.3039 5.25472 12.2465 5.59129C12.2341 5.67733 12.2268 5.74954 12.2383 5.83584C12.289 5.89984 12.3419 5.93843 12.4092 5.98438C12.7577 6.22302 12.9854 6.70776 13.0745 7.11141C13.1426 7.48453 13.126 7.89593 13.0332 8.26357C13.0295 8.27908 13.0258 8.29458 13.022 8.31055C12.9645 8.55028 12.883 8.77244 12.7754 8.99404C12.769 9.00746 12.7626 9.02089 12.756 9.03471C12.3811 9.81368 11.6721 10.395 10.8631 10.6793C10.5476 10.7851 10.2227 10.8395 9.89004 10.8455C9.86194 10.846 9.83385 10.8465 9.8049 10.847C9.7615 10.8478 9.71811 10.8484 9.6747 10.8487C9.38396 10.851 9.142 10.8842 8.93021 11.0946C8.7748 11.2657 8.73206 11.4604 8.69652 11.6832C8.69306 11.7041 8.68959 11.725 8.68601 11.7465C8.67856 11.7916 8.67118 11.8367 8.66386 11.8818C8.65226 11.9533 8.64045 12.0247 8.6286 12.0961C8.5992 12.2735 8.57013 12.4509 8.54109 12.6282C8.51649 12.7784 8.49175 12.9286 8.46682 13.0787C8.45522 13.1489 8.44383 13.2191 8.43245 13.2893C8.42529 13.3326 8.41812 13.3758 8.41093 13.419C8.40785 13.4384 8.40477 13.4578 8.40159 13.4777C8.37653 13.6265 8.34796 13.7822 8.23415 13.8898C8.22202 13.9017 8.20989 13.9136 8.19739 13.9259C8.1025 13.9975 8.01411 14.0054 7.89738 14.0061C7.87514 14.0064 7.87514 14.0064 7.85245 14.0066C7.80364 14.007 7.75483 14.0071 7.70602 14.0071C7.6719 14.0073 7.63779 14.0074 7.60367 14.0076C7.53221 14.0078 7.46075 14.0079 7.38929 14.0079C7.29805 14.0079 7.20682 14.0084 7.11558 14.0092C7.04512 14.0097 6.97466 14.0098 6.90419 14.0097C6.87057 14.0098 6.83695 14.01 6.80333 14.0103C6.47706 14.0132 6.47706 14.0132 6.3301 13.914C6.28587 13.8702 6.28587 13.8702 6.25624 13.8267C6.24608 13.8123 6.23592 13.7978 6.22544 13.783C6.09654 13.5657 6.20047 13.2212 6.24416 12.9874C6.25343 12.9367 6.26262 12.886 6.27174 12.8353C6.27738 12.804 6.28311 12.7728 6.28896 12.7416C6.30169 12.6721 6.30861 12.61 6.30861 12.539C6.29374 12.5541 6.29374 12.5541 6.27857 12.5696C6.25755 12.5897 6.25755 12.5897 6.2361 12.6101C6.21591 12.6299 6.21591 12.6299 6.19531 12.6502C6.00797 12.7755 5.78684 12.7634 5.57009 12.7624C5.53623 12.7624 5.50237 12.7625 5.46851 12.7626C5.39787 12.7626 5.32723 12.7625 5.25659 12.7622C5.16659 12.7618 5.0766 12.7621 4.98659 12.7624C4.91677 12.7627 4.84695 12.7626 4.77713 12.7624C4.74397 12.7624 4.7108 12.7624 4.67764 12.7626C4.43214 12.7635 4.20858 12.7598 4.02472 12.5804C3.89651 12.4345 3.89141 12.3015 3.89936 12.1107C3.90932 11.9635 3.93761 11.8181 3.96279 11.6728C3.96937 11.6338 3.97592 11.5948 3.98245 11.5558C4.0003 11.4496 4.01846 11.3434 4.03667 11.2372C4.05621 11.123 4.07545 11.0087 4.09474 10.8944C4.12798 10.6975 4.16141 10.5007 4.19496 10.3039C4.24325 10.0206 4.29129 9.73732 4.33925 9.45398C4.36142 9.32298 4.38361 9.19198 4.4058 9.06098C4.41022 9.03487 4.41464 9.00876 4.4192 8.98186C4.45079 8.79533 4.48244 8.60882 4.51412 8.42231C4.62664 7.75967 4.73845 7.09693 4.8495 6.43404C4.8729 6.29434 4.89632 6.15465 4.91975 6.01495C4.92738 5.96947 4.93501 5.92398 4.94264 5.87849C4.9539 5.81133 4.96517 5.74416 4.97643 5.67699C5.01647 5.43822 5.05648 5.19945 5.0964 4.96066C5.12704 4.77741 5.15776 4.59418 5.18858 4.41097C5.20418 4.31821 5.21975 4.22544 5.2352 4.13266C5.24929 4.04805 5.2635 3.96347 5.27779 3.8789C5.2829 3.84849 5.28798 3.81808 5.29301 3.78766C5.38821 3.21265 5.38821 3.21265 5.57546 3.07845C5.61117 3.05762 5.64831 3.0393 5.68556 3.02139C5.75317 2.98758 5.82556 2.99672 5.89979 2.99674Z" fill="white"/>
<path d="M12.2168 5.83594C12.6493 6.09774 12.9282 6.55866 13.0546 7.03906C13.0969 7.21924 13.1052 7.3942 13.1043 7.57886C13.1042 7.60639 13.1041 7.63393 13.104 7.6623C13.1015 7.86969 13.0838 8.06285 13.0332 8.26367C13.0295 8.27917 13.0258 8.29468 13.022 8.31065C12.9644 8.55038 12.883 8.77254 12.7754 8.99414C12.769 9.00756 12.7626 9.02098 12.756 9.03481C12.381 9.81378 11.672 10.3951 10.8631 10.6794C10.5475 10.7852 10.2227 10.8396 9.88998 10.8456C9.86189 10.8461 9.83379 10.8466 9.80484 10.8471C9.76144 10.8479 9.71805 10.8485 9.67464 10.8488C9.3839 10.8511 9.14194 10.8843 8.93015 11.0947C8.77474 11.2658 8.732 11.4605 8.69647 11.6833C8.693 11.7042 8.68953 11.7251 8.68596 11.7466C8.6785 11.7917 8.67112 11.8368 8.6638 11.8819C8.6522 11.9534 8.6404 12.0248 8.62854 12.0962C8.59914 12.2736 8.57008 12.451 8.54103 12.6283C8.51643 12.7785 8.4917 12.9287 8.46677 13.0788C8.45517 13.149 8.44377 13.2192 8.43239 13.2894C8.42523 13.3327 8.41806 13.3759 8.41088 13.4191C8.40779 13.4385 8.40471 13.4579 8.40154 13.4778C8.37647 13.6266 8.34791 13.7823 8.23409 13.8899C8.22196 13.9018 8.20983 13.9137 8.19733 13.926C8.10244 13.9976 8.01405 14.0055 7.89732 14.0062C7.8825 14.0064 7.86767 14.0065 7.85239 14.0067C7.80358 14.0071 7.75477 14.0072 7.70596 14.0072C7.67185 14.0074 7.63773 14.0075 7.60361 14.0077C7.53215 14.0079 7.46069 14.008 7.38923 14.008C7.29799 14.008 7.20676 14.0085 7.11553 14.0093C7.04506 14.0098 6.9746 14.0099 6.90413 14.0098C6.87051 14.0099 6.83689 14.0101 6.80328 14.0104C6.477 14.0133 6.477 14.0133 6.33004 13.9141C6.28581 13.8703 6.28581 13.8703 6.25619 13.8268C6.24602 13.8124 6.23586 13.7979 6.22539 13.7831C6.08692 13.5497 6.2103 13.1665 6.25619 12.9177C6.26412 12.8736 6.27202 12.8294 6.2799 12.7853C6.29593 12.6956 6.3121 12.606 6.32838 12.5163C6.36136 12.3347 6.39346 12.1529 6.42538 11.9711C6.42836 11.9542 6.43134 11.9372 6.43441 11.9198C6.48748 11.6183 6.53706 11.3162 6.58611 11.0139C6.61458 10.8388 6.64337 10.6636 6.67216 10.4885C6.68705 10.3979 6.70182 10.3073 6.71645 10.2167C6.73237 10.1183 6.74874 10.0201 6.76547 9.92187C6.77139 9.88676 6.77714 9.85162 6.78273 9.81645C6.81624 9.60616 6.85142 9.39648 7.02477 9.25352C7.15623 9.16062 7.26612 9.11782 7.42837 9.11688C7.44338 9.11673 7.45838 9.11659 7.47384 9.11643C7.50633 9.11614 7.53881 9.11595 7.57129 9.11584C7.62301 9.11566 7.67473 9.11522 7.72645 9.11471C7.83658 9.11368 7.94671 9.11297 8.05685 9.1123C8.18386 9.11153 8.31086 9.11062 8.43787 9.10938C8.48826 9.10896 8.53865 9.10878 8.58904 9.1086C8.85935 9.10669 9.12447 9.08376 9.38619 9.0116C9.40311 9.00701 9.42002 9.00242 9.43745 8.99769C10.0105 8.83737 10.5262 8.57419 10.9707 8.17773C10.9862 8.16477 11.0018 8.15181 11.0178 8.13846C11.6511 7.61029 12.0163 6.82386 12.1738 6.0293C12.1822 5.99078 12.1907 5.95228 12.1993 5.91382C12.2051 5.88812 12.2108 5.86242 12.2168 5.83594Z" fill="#192C89" fill-opacity="0.3"/>
<path d="M8.31878 5.43848C8.34955 5.43839 8.38032 5.43828 8.41108 5.43812C8.49401 5.43783 8.57694 5.43806 8.65987 5.43842C8.74721 5.43872 8.83454 5.43858 8.92188 5.4385C9.06864 5.43844 9.21538 5.43873 9.36213 5.43923C9.53088 5.4398 9.69961 5.43984 9.86836 5.43959C10.0317 5.43935 10.1949 5.43949 10.3582 5.43979C10.4273 5.43992 10.4963 5.43992 10.5653 5.43981C11.4109 5.43888 11.4109 5.43888 11.7737 5.59427C11.8006 5.60537 11.8006 5.60537 11.828 5.61668C11.9676 5.67597 12.0943 5.74604 12.2168 5.83597C12.1424 6.75461 11.6328 7.63745 10.9433 8.23719C10.2592 8.79786 9.4319 9.13107 8.5433 9.12832C8.49204 9.1282 8.44079 9.1284 8.38953 9.12869C8.24407 9.12948 8.09861 9.12989 7.95315 9.12964C7.86348 9.12952 7.77382 9.12991 7.68416 9.13063C7.65033 9.1308 7.61651 9.13078 7.58269 9.13054C7.35428 9.12904 7.17613 9.14897 6.99878 9.30704C6.97618 9.33296 6.97618 9.33296 6.95312 9.35941C6.92448 9.38806 6.89583 9.4167 6.86719 9.44535C6.87419 9.2958 6.89846 9.15141 6.92761 9.00492C6.9682 8.80065 7.00004 8.59573 7.02868 8.38947C7.04565 8.26958 7.06536 8.15114 7.09 8.03258C7.1385 7.79594 7.17364 7.55701 7.21094 7.31839C7.29547 6.77758 7.29547 6.77758 7.34798 6.52512C7.36653 6.43325 7.38021 6.34095 7.39355 6.2482C7.43634 5.9705 7.49309 5.74692 7.72428 5.56551C7.90717 5.44297 8.10543 5.43691 8.31878 5.43848Z" fill="#192C89" fill-opacity="0.3"/>
</g>
<defs>
<clipPath id="clip0_237_769">
<rect width="11" height="11" fill="white" transform="translate(3 3)"/>
</clipPath>
</defs>
</svg>
