<svg width="17" height="17" viewBox="0 0 17 17" fill="none" xmlns="http://www.w3.org/2000/svg">
<g clip-path="url(#clip0_237_753)">
<path fill-rule="evenodd" clip-rule="evenodd" d="M0 0H17V17H0V0Z" fill="#635BFF"/>
<path fill-rule="evenodd" clip-rule="evenodd" d="M7.83698 6.6087C7.83698 6.2092 8.16423 6.05195 8.70823 6.05195C9.49023 6.05195 10.4762 6.28995 11.2582 6.7107V4.2967C10.404 3.9567 9.56248 3.82495 8.71248 3.82495C6.62573 3.82495 5.24023 4.91295 5.24023 6.73195C5.24023 9.5667 9.14598 9.1162 9.14598 10.3402C9.14598 10.812 8.73373 10.965 8.15998 10.965C7.30573 10.965 6.21773 10.6165 5.35498 10.1447V12.5885C6.31123 13.0007 7.27598 13.175 8.15998 13.175C10.2977 13.175 11.7682 12.1167 11.7682 10.2765C11.7512 7.21645 7.83698 7.76045 7.83698 6.6087Z" fill="white"/>
</g>
<defs>
<clipPath id="clip0_237_753">
<rect width="17" height="17" rx="4" fill="white"/>
</clipPath>
</defs>
</svg>
