<svg width="17" height="17" viewBox="0 0 17 17" fill="none" xmlns="http://www.w3.org/2000/svg">
<g clip-path="url(#clip0_237_707)">
<path d="M5.03468 -0.00254252C5.13655 -0.00253901 5.23842 -0.0026332 5.34028 -0.00271349C5.53939 -0.00285398 5.7385 -0.00290162 5.93761 -0.00291091C6.0997 -0.00291876 6.26179 -0.00295395 6.42388 -0.00300782C6.47077 -0.00302308 6.51765 -0.0030382 6.56453 -0.00305329C6.57619 -0.00305705 6.58785 -0.0030608 6.59986 -0.00306468C6.92729 -0.00316912 7.25473 -0.0032364 7.58216 -0.00322884C7.59447 -0.00322858 7.60679 -0.00322831 7.61947 -0.00322804C7.68187 -0.00322663 7.74426 -0.00322494 7.80665 -0.0032232C7.81904 -0.00322286 7.83143 -0.00322252 7.84419 -0.00322217C7.86925 -0.00322148 7.8943 -0.00322077 7.91935 -0.00322004C8.30859 -0.00320964 8.69783 -0.00333704 9.08707 -0.00356977C9.5258 -0.00383199 9.96453 -0.00397713 10.4033 -0.0039614C10.4502 -0.00396013 10.4972 -0.0039593 10.5441 -0.00395877C10.5615 -0.00395848 10.5615 -0.00395848 10.5792 -0.00395817C10.7636 -0.00395765 10.9481 -0.00406532 11.1326 -0.00421262C11.3186 -0.00435809 11.5047 -0.00436963 11.6908 -0.00426176C11.7912 -0.00420685 11.8916 -0.00420308 11.992 -0.00435277C13.4568 -0.00639708 14.828 0.0623886 15.9236 1.1453C16.0497 1.27202 16.1656 1.40108 16.2689 1.54693C16.2809 1.56355 16.2809 1.56355 16.2931 1.58051C16.7867 2.27193 16.9346 3.04293 16.9829 3.87593C16.9836 3.88752 16.9843 3.89912 16.9851 3.91106C17.007 4.28518 17.0025 4.66009 17.0024 5.03468C17.0024 5.13655 17.0025 5.23842 17.0026 5.34028C17.0027 5.53939 17.0028 5.7385 17.0028 5.93761C17.0028 6.0997 17.0028 6.26179 17.0029 6.42388C17.0029 6.47077 17.0029 6.51765 17.0029 6.56453C17.0029 6.57619 17.0029 6.58785 17.0029 6.59986C17.003 6.92729 17.0031 7.25473 17.0031 7.58216C17.0031 7.59447 17.0031 7.60679 17.0031 7.61947C17.0031 7.68187 17.0031 7.74426 17.0031 7.80665C17.0031 7.82524 17.0031 7.82524 17.0031 7.84419C17.0031 7.86925 17.0031 7.8943 17.0031 7.91935C17.0031 8.30859 17.0032 8.69783 17.0034 9.08707C17.0037 9.5258 17.0038 9.96453 17.0038 10.4033C17.0038 10.4502 17.0038 10.4972 17.0038 10.5441C17.0038 10.5615 17.0038 10.5615 17.0038 10.5792C17.0038 10.7636 17.0039 10.9481 17.0041 11.1326C17.0042 11.3186 17.0042 11.5047 17.0041 11.6908C17.0041 11.7912 17.0041 11.8916 17.0042 11.992C17.0063 13.4568 16.9375 14.828 15.8546 15.9236C15.7278 16.0497 15.5988 16.1656 15.4529 16.2689C15.4418 16.2769 15.4308 16.2849 15.4193 16.2931C14.7279 16.7867 13.9569 16.9346 13.1239 16.9829C13.1123 16.9836 13.1007 16.9843 13.0888 16.9851C12.7147 17.007 12.3398 17.0025 11.9652 17.0024C11.8633 17.0024 11.7614 17.0025 11.6596 17.0026C11.4605 17.0027 11.2614 17.0028 11.0622 17.0028C10.9002 17.0028 10.7381 17.0028 10.576 17.0029C10.5291 17.0029 10.4822 17.0029 10.4353 17.0029C10.4237 17.0029 10.412 17.0029 10.4 17.0029C10.0726 17.003 9.74513 17.0031 9.4177 17.0031C9.40539 17.0031 9.39307 17.0031 9.38039 17.0031C9.31799 17.0031 9.2556 17.0031 9.19321 17.0031C9.18082 17.0031 9.16843 17.0031 9.15566 17.0031C9.13061 17.0031 9.10556 17.0031 9.08051 17.0031C8.69127 17.0031 8.30203 17.0032 7.91279 17.0034C7.47406 17.0037 7.03533 17.0038 6.5966 17.0038C6.54965 17.0038 6.50269 17.0038 6.45573 17.0038C6.44417 17.0038 6.43261 17.0038 6.4207 17.0038C6.23623 17.0038 6.05175 17.0039 5.86727 17.0041C5.68122 17.0042 5.49516 17.0042 5.30911 17.0041C5.2087 17.0041 5.10829 17.0041 5.00787 17.0042C3.54308 17.0063 2.17188 16.9375 1.07624 15.8546C0.95013 15.7278 0.834267 15.5988 0.730929 15.4529C0.722952 15.4418 0.714976 15.4308 0.706757 15.4193C0.213118 14.7279 0.0653017 13.9569 0.0169289 13.1239C0.0162219 13.1123 0.0155152 13.1007 0.0147868 13.0888C-0.0071154 12.7147 -0.00262321 12.3398 -0.00254268 11.9652C-0.00253918 11.8633 -0.00263307 11.7614 -0.00271337 11.6596C-0.00285385 11.4605 -0.00290174 11.2614 -0.00291103 11.0622C-0.00291888 10.9002 -0.00295366 10.7381 -0.00300752 10.576C-0.00302279 10.5291 -0.00303809 10.4822 -0.00305318 10.4353C-0.00305694 10.4237 -0.00306072 10.412 -0.00306459 10.4C-0.00316904 10.0726 -0.0032361 9.74513 -0.00322853 9.4177C-0.00322827 9.40539 -0.00322829 9.39307 -0.00322801 9.38039C-0.0032266 9.31799 -0.00322509 9.2556 -0.00322334 9.19321C-0.00322301 9.18082 -0.00322266 9.16843 -0.00322231 9.15567C-0.00322162 9.13061 -0.00322097 9.10556 -0.00322023 9.08051C-0.00320983 8.69127 -0.00333717 8.30203 -0.0035699 7.91279C-0.00383212 7.47406 -0.00397733 7.03533 -0.0039616 6.5966C-0.00396033 6.54965 -0.00395901 6.50269 -0.00395848 6.45573C-0.00395828 6.44417 -0.00395817 6.43261 -0.00395796 6.4207C-0.00395744 6.23623 -0.00406539 6.05175 -0.00421269 5.86727C-0.00435816 5.68122 -0.00436933 5.49516 -0.00426146 5.30911C-0.00420655 5.2087 -0.00420308 5.10829 -0.00435277 5.00787C-0.00639708 3.54308 0.0623888 2.17188 1.1453 1.07624C1.27202 0.95013 1.40108 0.834267 1.54693 0.730929C1.55801 0.722952 1.5691 0.714976 1.58051 0.706757C2.27193 0.213118 3.04293 0.0653019 3.87593 0.016929C3.89332 0.0158685 3.89332 0.0158685 3.91106 0.0147866C4.28518 -0.00711554 4.66009 -0.00262305 5.03468 -0.00254252Z" fill="#FA4616"/>
<path d="M13.3383 5.55752C13.5664 5.5499 13.7728 5.55781 13.991 5.62705C14.0093 5.63282 14.0276 5.63858 14.0465 5.64452C14.3999 5.76913 14.7081 5.98099 14.977 6.23905C14.9902 6.25161 15.0035 6.26417 15.0171 6.2771C15.103 6.36054 15.1781 6.44861 15.249 6.54505C15.1788 6.62873 15.1059 6.70762 15.0285 6.7847C15.017 6.79624 15.0055 6.80778 14.9936 6.81967C14.9553 6.85806 14.9169 6.89639 14.8785 6.93472C14.8509 6.96235 14.8233 6.98997 14.7957 7.0176C14.721 7.09246 14.6461 7.16726 14.5713 7.24204C14.4929 7.32042 14.4145 7.39884 14.3361 7.47725C14.1961 7.61735 14.0559 7.75741 13.9158 7.89746C13.789 8.02424 13.6621 8.15106 13.5354 8.27792C13.3879 8.42548 13.2404 8.573 13.0929 8.72048C13.0149 8.79847 12.9369 8.87646 12.8589 8.95448C12.7856 9.02786 12.7122 9.1012 12.6388 9.1745C12.6119 9.20136 12.5851 9.22823 12.5582 9.25511C12.5214 9.29192 12.4846 9.32867 12.4478 9.36541C12.4373 9.37596 12.4268 9.38651 12.416 9.39739C12.3532 9.45984 12.2883 9.51866 12.2213 9.57657C12.1744 9.61789 12.1303 9.6616 12.0864 9.70599C12.077 9.71541 12.0676 9.72484 12.0579 9.73454C12.0268 9.76569 11.9958 9.79689 11.9648 9.8281C11.9424 9.85062 11.92 9.87314 11.8975 9.89566C11.8494 9.94395 11.8013 9.99227 11.7532 10.0406C11.677 10.1172 11.6007 10.1937 11.5244 10.2702C11.3075 10.4877 11.0907 10.7052 10.874 10.923C10.7542 11.0434 10.6343 11.1637 10.5143 11.2839C10.4386 11.3597 10.363 11.4357 10.2875 11.5117C10.2402 11.5592 10.1929 11.6066 10.1455 11.654C10.1238 11.6758 10.1021 11.6976 10.0804 11.7195C9.68257 12.1213 9.18317 12.4295 8.6028 12.4335C8.57775 12.4335 8.55269 12.4335 8.52764 12.4334C8.51483 12.4334 8.50202 12.4334 8.48882 12.4334C7.76955 12.4306 7.28988 12.0882 6.79789 11.593C6.77491 11.5699 6.75194 11.5469 6.72896 11.5238C6.67326 11.4679 6.61762 11.412 6.56201 11.3561C6.58368 11.3086 6.60607 11.2738 6.64297 11.237C6.6524 11.2275 6.66183 11.218 6.67154 11.2082C6.68681 11.1931 6.68681 11.1931 6.70239 11.1778C6.71297 11.1672 6.72354 11.1566 6.73443 11.1457C6.75683 11.1234 6.77926 11.1011 6.80174 11.0788C6.83575 11.0451 6.86962 11.0113 6.90347 10.9774C6.92533 10.9557 6.9472 10.9339 6.96908 10.9121C6.97906 10.9022 6.98903 10.8922 6.99931 10.882C7.04905 10.8328 7.09964 10.7854 7.15275 10.7398C7.22245 10.6791 7.2882 10.6152 7.35339 10.5496C7.37165 10.5314 7.37165 10.5314 7.39027 10.5127C7.43068 10.4723 7.47104 10.4318 7.51139 10.3913C7.54049 10.3622 7.5696 10.3331 7.59872 10.3039C7.66123 10.2414 7.72372 10.1788 7.78619 10.1161C7.87665 10.0255 7.96716 9.93486 8.05769 9.84426C8.20477 9.69706 8.35183 9.54982 8.49886 9.40255C8.50764 9.39376 8.51643 9.38496 8.52548 9.37589C8.58782 9.31345 8.65017 9.251 8.71251 9.18855C8.78373 9.11722 8.85495 9.04588 8.92617 8.97455C8.93494 8.96576 8.94371 8.95697 8.95275 8.94792C9.09926 8.80118 9.24581 8.65447 9.39237 8.50778C9.48263 8.41745 9.57285 8.32709 9.66304 8.23669C9.73218 8.16739 9.80137 8.09812 9.87057 8.02888C9.89888 8.00054 9.92717 7.97219 9.95544 7.94383C9.99413 7.90501 10.0329 7.86625 10.0716 7.8275C10.0827 7.81636 10.0938 7.80521 10.1052 7.79372C10.1695 7.72961 10.2356 7.66872 10.3046 7.60966C10.3607 7.56033 10.413 7.50704 10.4655 7.45393C10.4777 7.44172 10.4898 7.42951 10.5024 7.41694C10.5285 7.39065 10.5547 7.36434 10.5808 7.33802C10.6223 7.29622 10.6639 7.25448 10.7055 7.21276C10.8236 7.09419 10.9417 6.97553 11.0596 6.8568C11.132 6.78395 11.2045 6.71118 11.277 6.63847C11.3045 6.61092 11.3319 6.58333 11.3593 6.55572C11.4999 6.41385 11.6391 6.27571 11.798 6.15405C11.8187 6.13764 11.8394 6.12122 11.8601 6.10478C12.2883 5.77768 12.7981 5.57615 13.3383 5.55752Z" fill="#FBF5F4"/>
<path d="M9.99597 6.08591C10.1565 6.22462 10.3129 6.37278 10.438 6.54491C10.4101 6.61585 10.3582 6.66331 10.305 6.71578C10.2952 6.72559 10.2854 6.7354 10.2753 6.7455C10.2545 6.76625 10.2336 6.78695 10.2128 6.80761C10.1812 6.83885 10.1498 6.87022 10.1184 6.90162C10.0981 6.92184 10.0778 6.94206 10.0575 6.96228C10.0436 6.9761 10.0436 6.9761 10.0295 6.99019C9.98155 7.03756 9.93263 7.08299 9.88147 7.12688C9.81147 7.18794 9.74543 7.25217 9.67995 7.31801C9.66771 7.33025 9.65547 7.34248 9.64286 7.35509C9.60221 7.39575 9.56162 7.43647 9.52104 7.47719C9.49176 7.5065 9.46249 7.5358 9.43321 7.5651C9.37033 7.62803 9.30748 7.69099 9.24465 7.75396C9.15367 7.84516 9.06263 7.9363 8.97158 8.02742C8.82365 8.17547 8.67574 8.32356 8.52786 8.47167C8.51903 8.48052 8.51019 8.48937 8.50109 8.49849C8.43838 8.5613 8.37568 8.62411 8.31297 8.68691C8.24134 8.75866 8.16971 8.83041 8.09808 8.90215C8.08485 8.91541 8.08485 8.91541 8.07134 8.92894C7.92399 9.07652 7.7766 9.22408 7.62919 9.37161C7.53841 9.46246 7.44766 9.55334 7.35696 9.64427C7.28741 9.71397 7.21783 9.78363 7.14822 9.85328C7.11975 9.88178 7.0913 9.91029 7.06286 9.93882C7.02395 9.97786 6.98498 10.0168 6.946 10.0558C6.93485 10.067 6.9237 10.0782 6.9122 10.0898C6.84698 10.1549 6.77978 10.2167 6.70993 10.2768C6.67612 10.3061 6.64406 10.3368 6.61248 10.3685C6.60091 10.38 6.58935 10.3916 6.57744 10.4035C6.5655 10.4155 6.55356 10.4276 6.54126 10.44C6.52862 10.4526 6.51598 10.4653 6.50296 10.4783C6.46309 10.5183 6.42328 10.5583 6.38347 10.5984C6.35625 10.6257 6.32903 10.653 6.30179 10.6803C6.23548 10.7468 6.16921 10.8133 6.10297 10.8799C6.08412 10.8639 6.06528 10.8479 6.04646 10.8318C6.03597 10.8229 6.02548 10.814 6.01467 10.8048C5.95558 10.7531 5.90181 10.696 5.84698 10.6399C5.81118 10.604 5.77391 10.5707 5.73541 10.5377C5.65648 10.4689 5.58216 10.396 5.50794 10.3222C5.4933 10.3077 5.47866 10.2932 5.46358 10.2782C5.41562 10.2307 5.36772 10.1831 5.31985 10.1354C5.30328 10.119 5.28671 10.1025 5.27015 10.086C5.20131 10.0175 5.13251 9.94905 5.06376 9.8805C4.9655 9.78251 4.86709 9.68467 4.76848 9.58703C4.69894 9.51815 4.62957 9.44911 4.56032 9.37995C4.51901 9.3387 4.47763 9.29752 4.43607 9.25652C4.38989 9.21094 4.34404 9.16502 4.29821 9.11907C4.27746 9.09874 4.27746 9.09874 4.25629 9.07799C4.23774 9.05923 4.23774 9.05923 4.21881 9.04008C4.20794 9.02927 4.19707 9.01845 4.18587 9.00731C4.16497 8.97591 4.16497 8.97591 4.16851 8.9399C4.18595 8.89846 4.20916 8.87449 4.24105 8.84278C4.25354 8.83024 4.26603 8.81769 4.27891 8.80477C4.29252 8.79136 4.30614 8.77796 4.32017 8.76414C4.33416 8.75018 4.34815 8.73622 4.36257 8.72184C4.39225 8.69227 4.42199 8.66277 4.45179 8.63332C4.49706 8.58857 4.54216 8.54365 4.58722 8.49869C4.61613 8.46993 4.64505 8.44119 4.67398 8.41246C4.68735 8.39915 4.70073 8.38585 4.71451 8.37214C4.72738 8.35944 4.74025 8.34673 4.7535 8.33364C4.76463 8.32264 4.77575 8.31163 4.78721 8.30029C4.82054 8.26891 4.85443 8.23909 4.88917 8.20932C4.97943 8.13071 5.06307 8.04566 5.1473 7.96071C5.16535 7.94257 5.18341 7.92443 5.20147 7.9063C5.24013 7.86747 5.27877 7.82861 5.3174 7.78973C5.37868 7.72805 5.44005 7.66646 5.50143 7.60488C5.67591 7.42984 5.85032 7.25473 6.02454 7.07943C6.12094 6.98245 6.21743 6.88555 6.31402 6.78876C6.36497 6.7377 6.41587 6.68659 6.46665 6.63536C6.86984 6.22875 6.86984 6.22875 7.07197 6.08591C7.08418 6.07697 7.0964 6.06802 7.10898 6.05881C7.9894 5.42421 9.15023 5.36433 9.99597 6.08591Z" fill="#FBF5F4"/>
<path d="M5.16263 6.05925C5.25277 6.13838 5.33832 6.22196 5.42298 6.30689C5.44063 6.32395 5.44063 6.32395 5.45864 6.34136C5.52435 6.40524 5.57978 6.46624 5.62698 6.54489C5.60104 6.60596 5.56494 6.64532 5.51835 6.69218C5.50267 6.70803 5.48699 6.72388 5.47083 6.74021C5.4534 6.75766 5.43597 6.7751 5.41854 6.79254C5.40021 6.811 5.38189 6.82946 5.36358 6.84792C5.31386 6.89802 5.26403 6.948 5.21416 6.99795C5.18303 7.02915 5.15192 7.06036 5.12082 7.09159C5.01237 7.20045 4.90382 7.30922 4.7952 7.41791C4.69383 7.51933 4.59269 7.62098 4.49165 7.72273C4.40495 7.81003 4.31808 7.89716 4.23108 7.98417C4.1791 8.03616 4.12719 8.08822 4.07544 8.14045C4.02682 8.18952 3.978 8.23838 3.92902 8.28709C3.91104 8.30503 3.89314 8.32305 3.87532 8.34114C3.85105 8.36576 3.82649 8.39009 3.80192 8.4144C3.78823 8.42812 3.77455 8.44184 3.76045 8.45597C3.72298 8.48289 3.72298 8.48289 3.68647 8.48073C3.63947 8.45859 3.60941 8.42627 3.57295 8.38938C3.56503 8.38145 3.55712 8.37351 3.54896 8.36533C3.52282 8.33907 3.49686 8.31263 3.4709 8.2862C3.45266 8.26782 3.4344 8.24945 3.41614 8.2311C3.36801 8.18268 3.32003 8.13412 3.27209 8.08551C3.19564 8.00806 3.11898 7.93082 3.0423 7.85359C3.0157 7.82675 2.98917 7.79985 2.96264 7.77294C2.86186 7.67094 2.86186 7.67094 2.75552 7.57482C2.65434 7.48826 2.56204 7.39204 2.46816 7.29774C2.4474 7.27694 2.42663 7.25615 2.40586 7.23536C2.3516 7.18104 2.2974 7.12667 2.24321 7.07229C2.18774 7.01664 2.13222 6.96105 2.0767 6.90544C1.96808 6.79664 1.85951 6.68778 1.75098 6.57889C1.81443 6.44564 1.94534 6.34937 2.05698 6.25589C2.06554 6.24862 2.0741 6.24134 2.08292 6.23384C2.96297 5.48952 4.23414 5.26982 5.16263 6.05925Z" fill="#FBF5F3"/>
</g>
<defs>
<clipPath id="clip0_237_707">
<rect width="17" height="17" fill="white"/>
</clipPath>
</defs>
</svg>
