<svg width="17" height="17" viewBox="0 0 17 17" fill="none" xmlns="http://www.w3.org/2000/svg">
<rect width="17" height="17" rx="4" fill="black"/>
<path d="M10.5462 4.11293C10.5638 4.11278 10.5815 4.11262 10.5997 4.11247C10.6584 4.112 10.7171 4.11173 10.7758 4.1115C10.7959 4.1114 10.8161 4.11131 10.8368 4.11121C10.9438 4.11072 11.0508 4.11038 11.1578 4.11016C11.2673 4.10991 11.3768 4.1091 11.4864 4.10817C11.5713 4.10755 11.6563 4.10736 11.7412 4.10727C11.7815 4.10716 11.8218 4.10689 11.8621 4.10645C12.2014 4.10298 12.5442 4.13383 12.8477 4.30019C12.8708 4.31223 12.8708 4.31223 12.8943 4.32452C13.0183 4.39118 13.128 4.47023 13.2344 4.56239C13.253 4.57635 13.2716 4.59031 13.2907 4.60469C13.65 4.90829 13.836 5.37102 13.8907 5.82802C13.8939 5.90139 13.894 5.97466 13.894 6.04809C13.894 6.06979 13.8941 6.09149 13.8942 6.11384C13.8944 6.18631 13.8944 6.25877 13.8945 6.33123C13.8946 6.3833 13.8947 6.43536 13.8948 6.48742C13.8951 6.62874 13.8953 6.77005 13.8954 6.91136C13.8954 6.99977 13.8955 7.08817 13.8956 7.17658C13.8959 7.42181 13.8962 7.66705 13.8963 7.91228C13.8963 7.93579 13.8963 7.93579 13.8963 7.95978C13.8963 7.97549 13.8963 7.99121 13.8963 8.00739C13.8963 8.03923 13.8963 8.07106 13.8963 8.10289C13.8963 8.12658 13.8963 8.12658 13.8963 8.15074C13.8964 8.40616 13.8968 8.66157 13.8974 8.91699C13.8979 9.17983 13.8982 9.44267 13.8983 9.70551C13.8983 9.85284 13.8984 10.0002 13.8988 10.1475C13.8992 10.2863 13.8993 10.425 13.8991 10.5638C13.899 10.6144 13.8991 10.6651 13.8994 10.7158C13.9021 11.3558 13.7787 11.8539 13.3516 12.3436C12.9628 12.7116 12.5081 12.8847 11.9781 12.8875C11.9508 12.8878 11.9236 12.888 11.8956 12.8882C11.8058 12.889 11.716 12.8895 11.6262 12.8901C11.5639 12.8906 11.5016 12.8911 11.4392 12.8916C11.2921 12.8928 11.1449 12.8938 10.9977 12.8948C10.8301 12.896 10.6625 12.8973 10.4949 12.8986C10.1503 12.9012 9.80564 12.9037 9.461 12.9061C9.47211 12.917 9.48322 12.9279 9.49468 12.9391C9.5451 12.9885 9.59533 13.0382 9.64557 13.0878C9.66306 13.1049 9.68055 13.122 9.69857 13.1396C9.71534 13.1562 9.73211 13.1728 9.74939 13.19C9.77258 13.2128 9.77258 13.2128 9.79625 13.2361C9.88488 13.3366 9.89179 13.4213 9.88873 13.5514C9.87751 13.6622 9.83645 13.7273 9.75689 13.8026C9.64153 13.8795 9.55383 13.9047 9.41412 13.8905C9.2346 13.82 9.11911 13.7022 8.9852 13.5661C8.96253 13.5434 8.93984 13.5207 8.91714 13.498C8.86986 13.4507 8.82274 13.4032 8.77574 13.3555C8.71567 13.2947 8.65529 13.2341 8.59481 13.1737C8.54804 13.1269 8.5014 13.08 8.4548 13.033C8.42183 12.9999 8.3888 12.9667 8.35576 12.9336C8.33572 12.9133 8.31569 12.893 8.29504 12.872C8.26865 12.8453 8.26865 12.8453 8.24171 12.8181C8.13036 12.6917 8.11236 12.5997 8.11682 12.4346C8.13169 12.3128 8.19041 12.2527 8.2774 12.1723C8.37691 12.1051 8.46321 12.1063 8.58181 12.106C8.59703 12.106 8.61226 12.1059 8.62795 12.1058C8.67894 12.1056 8.72992 12.1056 8.78091 12.1056C8.81749 12.1055 8.85407 12.1053 8.89064 12.1052C8.96942 12.1049 9.0482 12.1048 9.12698 12.1046C9.25169 12.1043 9.3764 12.1039 9.50111 12.1034C9.85576 12.1019 10.2104 12.1006 10.565 12.0999C10.7609 12.0994 10.9568 12.0988 11.1526 12.0978C11.2562 12.0973 11.3598 12.0969 11.4633 12.0969C11.5609 12.0968 11.6584 12.0965 11.7559 12.0958C11.7916 12.0957 11.8273 12.0956 11.8629 12.0957C12.2161 12.0964 12.5155 12.0257 12.7833 11.7811C13.013 11.5369 13.1014 11.2301 13.0999 10.9021C13.1 10.8807 13.1001 10.8593 13.1002 10.8372C13.1004 10.766 13.1003 10.6947 13.1002 10.6235C13.1003 10.5722 13.1005 10.5209 13.1006 10.4696C13.1009 10.3306 13.1009 10.1916 13.1009 10.0526C13.1009 9.93645 13.101 9.82026 13.1011 9.70406C13.1014 9.41417 13.1013 9.12428 13.1012 8.8344C13.1011 8.59878 13.1013 8.36318 13.1017 8.12757C13.1022 7.85344 13.1024 7.57932 13.1023 7.3052C13.1023 7.16029 13.1023 7.01537 13.1027 6.87046C13.103 6.73412 13.1029 6.59779 13.1026 6.46145C13.1026 6.41157 13.1026 6.36169 13.1028 6.3118C13.1043 5.90061 13.0793 5.5357 12.7818 5.22157C12.5693 5.0219 12.3015 4.91141 12.0107 4.91063C11.9854 4.91051 11.9854 4.91051 11.9596 4.91038C11.9231 4.91021 11.8866 4.91009 11.85 4.91C11.7921 4.90983 11.7341 4.90947 11.6762 4.90903C11.5114 4.90781 11.3467 4.90668 11.1819 4.90632C11.0811 4.90608 10.9802 4.90539 10.8794 4.90441C10.8411 4.90412 10.8027 4.904 10.7644 4.90405C10.3909 4.90444 10.3909 4.90444 10.2344 4.79677C10.1256 4.68237 10.1089 4.5866 10.1107 4.43358C10.1237 4.31746 10.1881 4.25444 10.2725 4.18007C10.3658 4.11379 10.4348 4.11335 10.5462 4.11293Z" fill="white"/>
<path d="M7.71975 3.16847C7.8317 3.24104 7.92164 3.33922 8.01482 3.43387C8.03748 3.45659 8.06017 3.4793 8.08287 3.50199C8.13015 3.54934 8.17727 3.59685 8.22427 3.64448C8.28434 3.70535 8.34472 3.7659 8.40521 3.82635C8.45197 3.87313 8.49861 3.92003 8.54521 3.96697C8.57818 4.00015 8.61121 4.03327 8.64425 4.06639C8.67431 4.0969 8.67431 4.0969 8.70497 4.12801C8.72257 4.14579 8.74017 4.16357 8.7583 4.18188C8.86965 4.3083 8.88765 4.40029 8.88319 4.56546C8.86832 4.68723 8.8096 4.74729 8.72261 4.82776C8.62311 4.89492 8.5368 4.89372 8.4182 4.89398C8.40298 4.89405 8.38775 4.89411 8.37206 4.89418C8.32107 4.89438 8.27009 4.89441 8.2191 4.89444C8.18253 4.89455 8.14595 4.89467 8.10937 4.8948C8.03059 4.89507 7.95181 4.89527 7.87303 4.89542C7.74832 4.89567 7.62361 4.89614 7.4989 4.89666C7.14426 4.89811 6.78961 4.89938 6.43497 4.90015C6.2391 4.90058 6.04324 4.90126 5.84738 4.90222C5.74381 4.90271 5.64024 4.90307 5.53667 4.90313C5.43913 4.90318 5.3416 4.90355 5.24407 4.90417C5.20841 4.90433 5.17276 4.90438 5.1371 4.9043C4.94346 4.90394 4.76795 4.91251 4.58589 4.9845C4.56929 4.99105 4.5527 4.99759 4.53559 5.00434C4.29196 5.10661 4.09745 5.32723 3.99492 5.56659C3.92796 5.74435 3.90272 5.89777 3.90291 6.08663C3.90284 6.10797 3.90277 6.12931 3.9027 6.1513C3.9025 6.22283 3.90246 6.29436 3.90243 6.3659C3.90232 6.41718 3.9022 6.46846 3.90207 6.51975C3.90177 6.65912 3.90162 6.7985 3.90151 6.93787C3.90144 7.02499 3.90135 7.11212 3.90124 7.19924C3.9009 7.48765 3.90068 7.77605 3.90059 8.06446C3.90058 8.08 3.90058 8.09554 3.90057 8.11155C3.90057 8.1349 3.90057 8.1349 3.90056 8.15871C3.90046 8.41055 3.90006 8.6624 3.89951 8.91424C3.89895 9.17316 3.89867 9.43208 3.89863 9.691C3.89861 9.83623 3.89847 9.98146 3.89805 10.1267C3.89767 10.2634 3.89762 10.4001 3.89782 10.5368C3.89784 10.5869 3.89774 10.6369 3.89751 10.687C3.89571 11.0987 3.92028 11.4639 4.21822 11.7784C4.43072 11.9781 4.69855 12.0886 4.9893 12.0894C5.01458 12.0895 5.01458 12.0895 5.04038 12.0896C5.07691 12.0898 5.11345 12.0899 5.14999 12.09C5.20794 12.0902 5.26588 12.0905 5.32383 12.091C5.48858 12.0922 5.65332 12.0933 5.81806 12.0937C5.91893 12.0939 6.01979 12.0946 6.12065 12.0956C6.15896 12.0959 6.19727 12.096 6.23558 12.096C6.60911 12.0956 6.60911 12.0956 6.76558 12.2032C6.8744 12.3176 6.89114 12.4134 6.88936 12.5664C6.87631 12.6826 6.81192 12.7456 6.72749 12.8199C6.63422 12.8862 6.5652 12.8867 6.45384 12.8871C6.43618 12.8872 6.41853 12.8874 6.40034 12.8875C6.34163 12.888 6.28293 12.8883 6.22423 12.8885C6.20408 12.8886 6.18394 12.8887 6.16318 12.8888C6.05619 12.8893 5.94921 12.8896 5.84222 12.8899C5.73269 12.8901 5.62318 12.8909 5.51366 12.8918C5.4287 12.8925 5.34374 12.8927 5.25877 12.8927C5.21848 12.8929 5.17818 12.8931 5.13789 12.8936C4.79859 12.897 4.45579 12.8662 4.1523 12.6998C4.13694 12.6918 4.12158 12.6838 4.10576 12.6755C3.98172 12.6088 3.87201 12.5298 3.76558 12.4376C3.747 12.4237 3.72842 12.4097 3.70927 12.3953C3.35004 12.0917 3.16405 11.629 3.10933 11.172C3.10607 11.0986 3.10596 11.0254 3.10604 10.9519C3.10597 10.9302 3.1059 10.9085 3.10583 10.8862C3.10562 10.8137 3.10559 10.7412 3.10555 10.6688C3.10544 10.6167 3.10533 10.5647 3.1052 10.5126C3.10489 10.3713 3.10474 10.23 3.10464 10.0887C3.10457 10.0002 3.10447 9.91184 3.10437 9.82343C3.10408 9.5782 3.10384 9.33297 3.10376 9.08774C3.10376 9.07206 3.10375 9.05638 3.10374 9.04023C3.10374 9.02452 3.10373 9.00881 3.10373 8.99262C3.10372 8.96079 3.10371 8.92896 3.1037 8.89712C3.10369 8.88133 3.10369 8.86554 3.10368 8.84927C3.10359 8.59386 3.10318 8.33844 3.10263 8.08302C3.10208 7.82018 3.10179 7.55734 3.10176 7.2945C3.10174 7.14717 3.1016 6.99985 3.10118 6.85252C3.10079 6.71376 3.10074 6.575 3.10095 6.43624C3.10096 6.38557 3.10086 6.33489 3.10063 6.28422C3.09786 5.64421 3.22131 5.14607 3.64839 4.65637C4.03725 4.28837 4.49194 4.11529 5.02195 4.1125C5.04917 4.11226 5.07639 4.11203 5.10444 4.11179C5.19423 4.11105 5.28401 4.11047 5.37379 4.10989C5.43612 4.10941 5.49845 4.10892 5.56079 4.10842C5.70795 4.10725 5.85512 4.10619 6.00228 4.10518C6.16989 4.10402 6.33749 4.10274 6.5051 4.10144C6.84974 4.09878 7.19438 4.09627 7.53902 4.09387C7.5279 4.083 7.51679 4.07213 7.50534 4.06093C7.45492 4.01149 7.40468 3.96186 7.35445 3.91223C7.33695 3.89513 7.31946 3.87803 7.30144 3.86041C7.28467 3.84379 7.2679 3.82718 7.25062 3.81006C7.23516 3.79484 7.2197 3.77962 7.20376 3.76394C7.11513 3.66344 7.10822 3.57868 7.11128 3.44861C7.1225 3.33784 7.16356 3.27275 7.24312 3.19739C7.40453 3.08978 7.54417 3.07691 7.71975 3.16847Z" fill="white"/>
<path d="M8.67141 5.63953C8.76812 5.69599 8.82944 5.74688 8.87493 5.85166C8.88323 5.93245 8.88156 6.01225 8.87933 6.09336C8.87885 6.1261 8.87885 6.1261 8.87837 6.1595C8.87754 6.21315 8.87639 6.26677 8.87493 6.32041C8.88855 6.32152 8.90216 6.32263 8.91619 6.32378C9.26718 6.35685 9.56098 6.54919 9.789 6.81259C9.92585 6.98746 10.0441 7.19111 10.0324 7.41959C10.0115 7.53334 9.95418 7.61014 9.86956 7.68857C9.76188 7.76036 9.65682 7.76514 9.53118 7.75009C9.39615 7.70166 9.30832 7.61288 9.24746 7.4845C9.23813 7.46435 9.22879 7.4442 9.21917 7.42343C9.14004 7.2613 9.03648 7.16942 8.8653 7.10811C8.74538 7.07992 8.62303 7.0826 8.50037 7.08339C8.45314 7.08359 8.40598 7.08291 8.35876 7.08217C8.18411 7.08226 8.06098 7.09015 7.914 7.18759C7.81992 7.28663 7.76669 7.37518 7.76605 7.51279C7.76924 7.63382 7.79078 7.71512 7.87403 7.80703C7.99726 7.92268 8.13225 7.96589 8.29156 8.01523C8.31881 8.02406 8.34606 8.03289 8.37413 8.04199C8.46087 8.07007 8.54777 8.09762 8.6347 8.12509C8.72128 8.15261 8.80782 8.18025 8.89427 8.2082C8.9479 8.22552 9.00161 8.2426 9.05541 8.25939C9.41191 8.37417 9.69153 8.54664 9.88275 8.87509C10.0327 9.18579 10.0818 9.52307 9.98529 9.85947C9.88032 10.1499 9.69091 10.4068 9.41848 10.562C9.24118 10.6449 9.06862 10.6859 8.87493 10.7032C8.87629 10.7335 8.87765 10.7637 8.87905 10.7949C8.88015 10.8351 8.88122 10.8754 8.88226 10.9156C8.88324 10.9355 8.88422 10.9554 8.88523 10.9758C8.88771 11.1041 8.86997 11.1796 8.78928 11.2805C8.70539 11.366 8.61882 11.3877 8.50286 11.3946C8.37852 11.3907 8.28616 11.3508 8.19525 11.2657C8.10325 11.1565 8.11681 11.0422 8.12054 10.9068C8.12086 10.885 8.12117 10.8632 8.1215 10.8407C8.12233 10.787 8.12348 10.7334 8.12493 10.6798C8.11132 10.6787 8.09771 10.6776 8.08368 10.6764C7.73583 10.6436 7.43422 10.4526 7.21087 10.1876C7.07589 10.0022 6.95932 9.81782 6.96826 9.58225C6.98686 9.46734 7.04532 9.39038 7.13031 9.31162C7.23799 9.23983 7.34305 9.23504 7.46868 9.25009C7.60372 9.29853 7.69155 9.38731 7.75241 9.51569C7.76174 9.53584 7.77108 9.55599 7.7807 9.57675C7.85983 9.73889 7.96339 9.83077 8.13456 9.89208C8.25449 9.92027 8.37684 9.91759 8.4995 9.9168C8.54673 9.9166 8.59389 9.91728 8.64111 9.91802C8.81576 9.91793 8.93889 9.91004 9.08587 9.81259C9.17995 9.71356 9.23318 9.62501 9.23382 9.4874C9.23063 9.36636 9.20909 9.28506 9.12584 9.19315C9.00261 9.07751 8.86762 9.0343 8.70831 8.98496C8.68106 8.97613 8.65381 8.96729 8.62574 8.9582C8.539 8.93012 8.4521 8.90257 8.36517 8.87509C8.27859 8.84758 8.19205 8.81994 8.1056 8.79199C8.05197 8.77467 7.99826 8.75759 7.94446 8.7408C7.58796 8.62602 7.30834 8.45355 7.11712 8.12509C6.9672 7.8144 6.91807 7.47712 7.01458 7.14072C7.11955 6.85025 7.30896 6.59334 7.58139 6.43814C7.75869 6.35534 7.93125 6.31431 8.12493 6.29697C8.12358 6.26673 8.12222 6.23648 8.12081 6.20532C8.11972 6.16507 8.11865 6.12482 8.11761 6.08457C8.11663 6.0647 8.11565 6.04484 8.11464 6.02437C8.11216 5.89608 8.1299 5.82059 8.21059 5.71973C8.33124 5.59677 8.51486 5.57537 8.67141 5.63953Z" fill="white"/>
</svg>
