<svg width="17" height="17" viewBox="0 0 17 17" fill="none" xmlns="http://www.w3.org/2000/svg">
<rect width="17" height="17" rx="4" fill="#6D1CD3"/>
<g clip-path="url(#clip0_238_792)">
<path d="M9.8784 10.279C9.80181 10.1462 9.75585 9.99815 9.73543 9.82454C9.73032 9.79901 9.72011 9.77858 9.69968 9.76326C9.68436 9.75305 9.66394 9.74794 9.64862 9.74794C9.64351 9.74794 9.63841 9.74794 9.6333 9.74794C9.60267 9.75305 9.56692 9.75816 9.53628 9.75816C9.43416 9.75816 9.35757 9.74284 9.35757 9.52838V9.32413V6.43912C9.35757 6.39317 9.32182 6.35742 9.27587 6.35742H8.69376C8.6478 6.35742 8.61206 6.39317 8.61206 6.43912V9.59476C8.61206 9.82964 8.63249 10.0084 8.74482 10.1718C8.87758 10.3556 9.14311 10.4628 9.3882 10.4628C9.39842 10.4628 9.41374 10.4628 9.42395 10.4628C9.57203 10.4628 9.715 10.4475 9.83244 10.4066C9.85798 10.3964 9.8784 10.3811 9.88351 10.3556C9.89372 10.3301 9.88861 10.3045 9.8784 10.279Z" fill="white"/>
<path d="M11.4614 10.1769C11.3541 10.0186 11.3184 9.99304 11.2469 9.82454C11.2367 9.80411 11.2316 9.77858 11.2112 9.76326C11.1958 9.75305 11.1805 9.74794 11.1601 9.74794C11.155 9.74794 11.1499 9.74794 11.1448 9.74794C11.1141 9.75305 11.0784 9.75816 11.0478 9.75816C10.9456 9.75816 10.869 9.74284 10.869 9.52838V9.32413V6.43912C10.869 6.39317 10.8333 6.35742 10.7873 6.35742H10.2052C10.1593 6.35742 10.1235 6.39317 10.1235 6.43912V9.59476C10.1235 9.82964 10.144 10.0084 10.2563 10.1718C10.3891 10.3556 10.6546 10.4628 10.8997 10.4628C10.9099 10.4628 10.9252 10.4628 10.9354 10.4628C11.0835 10.4628 11.2265 10.4475 11.3439 10.4066C11.3694 10.3964 11.4563 10.3556 11.4767 10.3352C11.5328 10.2739 11.4716 10.1973 11.4614 10.1769Z" fill="white"/>
<path d="M6.16125 8.56847C6.22253 8.23657 6.47784 8.02211 6.84038 8.02211C7.20292 8.02211 7.44802 8.22125 7.50929 8.56847H6.16125ZM6.83017 7.39404C6.38593 7.39404 6.01317 7.54723 5.74254 7.84339C5.48723 8.11912 5.34937 8.5123 5.34937 8.94122C5.34937 9.38036 5.48723 9.75311 5.74765 10.0237C6.02338 10.3097 6.41656 10.4629 6.88633 10.4629C7.39185 10.4629 7.82077 10.2842 8.15267 9.93693C8.18331 9.9063 8.18331 9.84502 8.14757 9.8246C8.11182 9.80417 7.93821 9.68673 7.7646 9.45695C7.74418 9.44163 7.72886 9.43653 7.70843 9.43653C7.68801 9.43653 7.66758 9.44674 7.65227 9.46206C7.45312 9.67652 7.19781 9.76332 6.90165 9.76332C6.46252 9.76332 6.19189 9.55908 6.14083 9.15569H8.1731C8.21395 9.15569 8.24969 9.12505 8.2548 9.0842C8.2599 9.01782 8.26501 8.94633 8.26501 8.87484C8.26501 8.46124 8.12714 8.08338 7.88205 7.82296C7.62673 7.53702 7.25909 7.39404 6.83017 7.39404Z" fill="white"/>
<path d="M12.2172 8.56847C12.2784 8.23657 12.5337 8.02211 12.8963 8.02211C13.2588 8.02211 13.5039 8.22125 13.5652 8.56847H12.2172ZM12.8861 7.39404C12.4418 7.39404 12.0691 7.54723 11.7985 7.84339C11.5431 8.11912 11.4053 8.5123 11.4053 8.94122C11.4053 9.38036 11.5431 9.75311 11.8036 10.0237C12.0793 10.3097 12.4725 10.4629 12.9422 10.4629C13.4478 10.4629 13.8767 10.2842 14.2086 9.93693C14.2392 9.9063 14.2392 9.84502 14.2035 9.8246C14.1677 9.80417 13.9941 9.68673 13.8205 9.45695C13.8001 9.44163 13.7848 9.43653 13.7643 9.43653C13.7439 9.43653 13.7235 9.44674 13.7082 9.46206C13.509 9.67652 13.2537 9.76332 12.9576 9.76332C12.5184 9.76332 12.2478 9.55908 12.1967 9.15569H14.229C14.2699 9.15569 14.3056 9.12505 14.3107 9.0842C14.3158 9.01782 14.3209 8.94633 14.3209 8.87484C14.3209 8.46124 14.1831 8.08338 13.938 7.82296C13.6775 7.53702 13.315 7.39404 12.8861 7.39404Z" fill="white"/>
<path d="M5.49734 10.2586C5.49224 10.2535 5.49224 10.2535 5.48713 10.2484L5.48203 10.2433C5.34416 10.1003 5.23693 9.93178 5.15523 9.74285C5.14502 9.71221 5.11438 9.69179 5.08374 9.69179H5.01736H4.7212H3.55188L5.42075 7.29698C5.43096 7.28166 5.43607 7.26634 5.43607 7.24591V6.78125C5.43607 6.73529 5.40033 6.69955 5.35437 6.69955H4.48121H4.44547H4.34334V6.04085C4.34334 6.02042 4.32292 6 4.30249 6H4.28717H4.27185H3.72038H3.69996H3.68464C3.66422 6 3.64379 6.02042 3.64379 6.04085V6.70976H3.50082H3.47018H2.65829C2.61234 6.70976 2.57659 6.74551 2.57659 6.79146V7.32761C2.57659 7.37357 2.61234 7.40931 2.65829 7.40931H4.37398L2.51532 9.77859C2.50511 9.79391 2.5 9.81434 2.5 9.82966V10.3147C2.5 10.3607 2.53574 10.3964 2.5817 10.3964H3.6489V11.0654C3.6489 11.0858 3.66932 11.1062 3.68975 11.1062H3.70507H3.72549H4.27696H4.28717H4.3076C4.32802 11.1062 4.34845 11.0858 4.34845 11.0654V10.3964H4.79779H5.3748H5.44118C5.47181 10.3964 5.50245 10.376 5.51266 10.3454C5.52798 10.3199 5.51777 10.2841 5.49734 10.2586Z" fill="white"/>
<path d="M14.5812 7.03141H14.6476C14.6629 7.03141 14.6731 7.03141 14.6884 7.03141C14.7037 7.03141 14.7139 7.0263 14.7241 7.0212C14.7344 7.01609 14.7395 7.01098 14.7497 7.00077C14.7548 6.99056 14.7599 6.98035 14.7599 6.96503C14.7599 6.94971 14.7548 6.9395 14.7497 6.93439C14.7446 6.92418 14.7395 6.91907 14.7293 6.91397C14.719 6.90886 14.7088 6.90886 14.6986 6.90375C14.6884 6.90375 14.6782 6.90375 14.668 6.90375H14.5812V7.03141ZM14.5301 6.85269H14.6731C14.719 6.85269 14.7548 6.8629 14.7803 6.87822C14.8007 6.89865 14.8161 6.92418 14.8161 6.96503C14.8161 7.00077 14.8058 7.0263 14.7854 7.04162C14.765 7.05694 14.7395 7.06715 14.7088 7.07226L14.8212 7.24587H14.7599L14.6527 7.07736H14.5812V7.24587H14.525V6.85269H14.5301ZM14.3667 7.05183C14.3667 7.09268 14.3718 7.12843 14.3871 7.16417C14.4025 7.19991 14.4229 7.23055 14.4484 7.25608C14.4739 7.28161 14.5046 7.30204 14.5403 7.31736C14.5761 7.33267 14.6118 7.33778 14.6527 7.33778C14.6935 7.33778 14.7293 7.33267 14.765 7.31736C14.8007 7.30204 14.8314 7.28161 14.8569 7.25608C14.8824 7.23055 14.9029 7.19991 14.9182 7.16417C14.9335 7.12843 14.9386 7.08758 14.9386 7.04673C14.9386 7.00588 14.9284 6.96503 14.9182 6.93439C14.9029 6.89865 14.8824 6.86801 14.8569 6.84248C14.8314 6.81695 14.8007 6.79652 14.765 6.7812C14.7293 6.76589 14.6935 6.76078 14.6527 6.76078C14.6118 6.76078 14.5761 6.77099 14.5403 6.7812C14.5046 6.79652 14.4739 6.81695 14.4484 6.84248C14.4229 6.86801 14.4025 6.89865 14.3871 6.93439C14.3769 6.97013 14.3667 7.01098 14.3667 7.05183ZM14.3105 7.05183C14.3105 7.00077 14.3208 6.95992 14.3361 6.91397C14.3565 6.87312 14.3769 6.83737 14.4127 6.80673C14.4433 6.7761 14.4791 6.75057 14.5199 6.73525C14.5608 6.71993 14.6067 6.70972 14.6527 6.70972C14.6986 6.70972 14.7446 6.71993 14.7854 6.73525C14.8263 6.75057 14.862 6.7761 14.8927 6.80673C14.9233 6.83737 14.9488 6.87312 14.9692 6.91397C14.9897 6.95481 14.9948 7.00077 14.9948 7.04673C14.9948 7.09779 14.9846 7.13864 14.9692 7.18459C14.9488 7.22544 14.9284 7.26119 14.8927 7.29182C14.862 7.32246 14.8263 7.34799 14.7854 7.36331C14.7446 7.37863 14.6986 7.38884 14.6527 7.38884C14.6067 7.38884 14.5608 7.37863 14.5199 7.36331C14.4791 7.34799 14.4433 7.32246 14.4127 7.29182C14.382 7.26119 14.3565 7.22544 14.3361 7.18459C14.3208 7.14374 14.3105 7.09779 14.3105 7.05183Z" fill="white"/>
</g>
<defs>
<clipPath id="clip0_238_792">
<rect width="12.5" height="5.10621" fill="white" transform="translate(2.5 6)"/>
</clipPath>
</defs>
</svg>
