<svg width="10" height="10" viewBox="0 0 10 10" fill="none" xmlns="http://www.w3.org/2000/svg">
<g clip-path="url(#clip0_95_353)">
<path d="M0.292897 3.14453C3.41243 3.14453 6.53196 3.14453 9.74602 3.14453C9.74763 4.04849 9.74924 4.95244 9.75091 5.88379C9.75162 6.1692 9.75233 6.45461 9.75306 6.74868C9.75341 7.09723 9.75341 7.09723 9.75348 7.26042C9.75355 7.37437 9.75384 7.48833 9.75427 7.60228C9.75477 7.73381 9.75499 7.86534 9.75488 7.99687C9.75484 8.0641 9.75491 8.13133 9.75534 8.19856C9.75573 8.27074 9.75563 8.34289 9.75542 8.41506C9.75564 8.4358 9.75587 8.45654 9.75611 8.47792C9.75428 8.70904 9.68655 8.89159 9.53118 9.0625C9.51547 9.07982 9.49976 9.09714 9.48357 9.11499C9.28608 9.29321 9.05623 9.41878 8.78443 9.41909C8.77081 9.41916 8.7572 9.41922 8.74317 9.41929C8.69768 9.41948 8.6522 9.41938 8.60671 9.41929C8.57371 9.41936 8.54072 9.41945 8.50772 9.41955C8.41714 9.41979 8.32656 9.41979 8.23599 9.41974C8.13826 9.41973 8.04054 9.41995 7.94281 9.42013C7.75138 9.42046 7.55995 9.42057 7.36852 9.42059C7.2129 9.42061 7.05729 9.42069 6.90168 9.42081C6.46044 9.42115 6.01921 9.42133 5.57797 9.42131C5.54229 9.4213 5.54229 9.4213 5.50589 9.4213C5.48208 9.4213 5.45826 9.4213 5.43373 9.4213C5.04778 9.42128 4.66184 9.42165 4.2759 9.4222C3.87957 9.42277 3.48324 9.42304 3.08692 9.423C2.86443 9.42299 2.64194 9.4231 2.41945 9.42352C2.23001 9.42387 2.04058 9.42396 1.85115 9.42369C1.75452 9.42356 1.6579 9.42356 1.56128 9.4239C1.47275 9.42421 1.38422 9.42415 1.29569 9.42381C1.26374 9.42375 1.23179 9.42382 1.19984 9.42404C0.946219 9.42566 0.727017 9.38806 0.527272 9.21875C0.338152 9.01528 0.286758 8.78897 0.2882 8.5184C0.288166 8.49544 0.288133 8.47247 0.288098 8.4488C0.288045 8.38527 0.288167 8.32174 0.288363 8.25821C0.288534 8.18856 0.288477 8.11892 0.288448 8.04927C0.288428 7.91419 0.288608 7.77911 0.288859 7.64403C0.28914 7.48772 0.289171 7.33141 0.289202 7.1751C0.289407 6.76257 0.289952 6.35003 0.290456 5.9375C0.291261 5.01582 0.292067 4.09414 0.292897 3.14453ZM2.01409 4.33472C1.96438 4.42585 1.96915 4.52103 1.96862 4.62257C1.96851 4.63905 1.96839 4.65552 1.96828 4.67249C1.9681 4.70731 1.96797 4.74213 1.96789 4.77695C1.9677 4.82993 1.9671 4.8829 1.96648 4.93587C1.96635 4.96979 1.96625 5.0037 1.96618 5.03761C1.96593 5.05332 1.96569 5.06903 1.96545 5.08522C1.9659 5.2017 1.98568 5.29469 2.06048 5.38818C2.11421 5.42849 2.1656 5.43228 2.23025 5.43314C2.2549 5.43352 2.2549 5.43352 2.28005 5.4339C2.29775 5.43405 2.31545 5.43419 2.33368 5.43434C2.35196 5.4345 2.37024 5.43466 2.38908 5.43482C2.42778 5.43509 2.46647 5.4353 2.50517 5.43545C2.5642 5.43579 2.62321 5.43665 2.68223 5.43751C2.71986 5.43771 2.75748 5.43787 2.79511 5.438C2.82148 5.43852 2.82148 5.43852 2.84839 5.43904C2.95652 5.43867 3.02136 5.42632 3.1054 5.35156C3.18074 5.26458 3.17312 5.17004 3.17315 5.0605C3.1733 5.04184 3.17344 5.02318 3.1736 5.00396C3.17381 4.96458 3.17386 4.92519 3.17378 4.88581C3.17376 4.8257 3.17457 4.76564 3.17544 4.70554C3.17554 4.66721 3.17559 4.62887 3.17559 4.59053C3.17591 4.57264 3.17623 4.55476 3.17656 4.53633C3.17566 4.45334 3.17232 4.39325 3.12054 4.32613C3.01663 4.23261 2.92694 4.23226 2.79305 4.23241C2.77617 4.23232 2.75929 4.23224 2.7419 4.23215C2.70628 4.23204 2.67066 4.23203 2.63504 4.23212C2.58081 4.23218 2.52661 4.23172 2.47239 4.23122C2.43767 4.23118 2.40296 4.23117 2.36825 4.23119C2.35217 4.23101 2.33609 4.23083 2.31953 4.23064C2.20249 4.23157 2.0993 4.24666 2.01409 4.33472ZM4.33831 4.33472C4.30318 4.39911 4.29438 4.45913 4.29366 4.53185C4.29347 4.54711 4.29328 4.56236 4.29309 4.57808C4.293 4.5944 4.29292 4.61072 4.29284 4.62753C4.29273 4.64449 4.29261 4.66144 4.2925 4.6789C4.29231 4.71472 4.29219 4.75055 4.29211 4.78637C4.29192 4.84098 4.29132 4.89557 4.2907 4.95018C4.29057 4.98505 4.29047 5.01991 4.29039 5.05478C4.29015 5.07102 4.28991 5.08726 4.28966 5.10399C4.29009 5.21698 4.31064 5.29748 4.38469 5.38696C4.4385 5.42956 4.49076 5.43224 4.55657 5.43283C4.57346 5.43302 4.59035 5.43321 4.60774 5.4334C4.63503 5.43353 4.63503 5.43353 4.66286 5.43365C4.691 5.43382 4.691 5.43382 4.71971 5.43399C4.75941 5.43418 4.79911 5.4343 4.83881 5.43438C4.89946 5.43457 4.9601 5.43518 5.02076 5.43579C5.05934 5.43592 5.09792 5.43602 5.13649 5.4361C5.1546 5.43634 5.17271 5.43658 5.19137 5.43683C5.28595 5.4365 5.355 5.43594 5.42962 5.37109C5.50528 5.28363 5.49672 5.18916 5.49599 5.07935C5.49608 5.05129 5.49608 5.05129 5.49616 5.02266C5.4962 4.9832 5.49609 4.94373 5.49585 4.90427C5.49553 4.84396 5.49585 4.78367 5.49622 4.72336C5.49618 4.68496 5.49611 4.64656 5.49599 4.60815C5.49611 4.59017 5.49623 4.57218 5.49635 4.55365C5.49531 4.45853 5.49167 4.39351 5.42962 4.31641C5.33435 4.23305 5.24267 4.23493 5.12108 4.23431C5.09568 4.23415 5.09568 4.23415 5.06977 4.23398C5.03391 4.23379 4.99806 4.23366 4.9622 4.23359C4.90763 4.2334 4.85308 4.23279 4.79851 4.23218C4.76362 4.23205 4.72873 4.23195 4.69384 4.23187C4.67764 4.23163 4.66144 4.23139 4.64475 4.23114C4.52715 4.23159 4.42398 4.24619 4.33831 4.33472ZM6.69247 4.33701C6.64496 4.42139 6.64889 4.49688 6.64971 4.59221C6.6496 4.62085 6.6496 4.62085 6.64948 4.65006C6.64943 4.69037 6.64957 4.73067 6.6499 4.77097C6.65032 4.83249 6.6499 4.89396 6.6494 4.95548C6.64946 4.99471 6.64956 5.03394 6.64971 5.07317C6.64955 5.09148 6.64939 5.10979 6.64923 5.12866C6.65079 5.23803 6.66237 5.30564 6.73821 5.39062C6.79499 5.42538 6.83787 5.43471 6.90403 5.43536C6.92124 5.43561 6.93845 5.43586 6.95618 5.43612C6.97464 5.43616 6.99309 5.4362 7.0121 5.43625C7.04078 5.43644 7.04078 5.43644 7.07004 5.43664C7.11046 5.43684 7.15088 5.43693 7.1913 5.43693C7.25299 5.43701 7.31465 5.43772 7.37633 5.43846C7.41565 5.43858 7.45497 5.43865 7.49428 5.43869C7.51266 5.43897 7.53103 5.43925 7.54996 5.43954C7.65862 5.43879 7.73073 5.43085 7.81243 5.35156C7.85539 5.25026 7.85725 5.15214 7.85668 5.04395C7.85672 5.02799 7.85675 5.01203 7.85679 4.99559C7.85682 4.96204 7.85675 4.92849 7.85658 4.89494C7.85637 4.8439 7.85658 4.79287 7.85683 4.74182C7.85681 4.70907 7.85676 4.67631 7.85668 4.64355C7.85676 4.62845 7.85684 4.61335 7.85692 4.5978C7.85612 4.50457 7.84488 4.42455 7.81243 4.33594C7.73958 4.26495 7.67884 4.23611 7.57788 4.23513C7.5544 4.23485 7.5544 4.23485 7.53045 4.23457C7.51361 4.23448 7.49676 4.2344 7.47941 4.23431C7.45329 4.23415 7.45329 4.23415 7.42664 4.23398C7.38978 4.23379 7.35292 4.23366 7.31606 4.23359C7.25987 4.2334 7.20368 4.23279 7.14749 4.23218C7.11164 4.23205 7.0758 4.23195 7.03995 4.23187C7.02322 4.23163 7.0065 4.23139 6.98926 4.23114C6.86607 4.2316 6.78739 4.25372 6.69247 4.33701ZM2.01653 6.99097C1.96238 7.08032 1.96915 7.17713 1.96862 7.27882C1.96851 7.2953 1.96839 7.31177 1.96828 7.32874C1.9681 7.36356 1.96797 7.39838 1.96789 7.4332C1.9677 7.48618 1.9671 7.53915 1.96648 7.59212C1.96635 7.62604 1.96625 7.65995 1.96618 7.69386C1.96593 7.70957 1.96569 7.72528 1.96545 7.74147C1.96585 7.84476 1.983 7.91601 2.03118 8.00781C2.12295 8.09663 2.2305 8.08925 2.35192 8.0899C2.36791 8.09002 2.3839 8.09013 2.40038 8.09024C2.4342 8.09043 2.46802 8.09055 2.50184 8.09063C2.55319 8.09082 2.60452 8.09142 2.65587 8.09204C2.68883 8.09217 2.72179 8.09227 2.75475 8.09235C2.76993 8.09259 2.78512 8.09283 2.80076 8.09308C2.90307 8.09267 2.99752 8.08263 3.08587 8.02734C3.17057 7.92192 3.17557 7.82966 3.17437 7.69768C3.17444 7.67951 3.17452 7.66134 3.17459 7.64262C3.17465 7.60439 3.1745 7.56616 3.17418 7.52793C3.17376 7.46958 3.17417 7.41129 3.17467 7.35294C3.17462 7.31567 3.17452 7.2784 3.17437 7.24113C3.17453 7.2238 3.17468 7.20646 3.17485 7.1886C3.17324 7.08171 3.15931 7.01695 3.08587 6.93359C3.02951 6.8991 2.98719 6.88957 2.92153 6.88917C2.90465 6.88898 2.88777 6.88879 2.87037 6.8886C2.85228 6.88862 2.83419 6.88864 2.81556 6.88866C2.78746 6.88853 2.78746 6.88853 2.75879 6.8884C2.71921 6.88829 2.67963 6.88828 2.64005 6.88837C2.57956 6.88843 2.5191 6.88797 2.45862 6.88747C2.42013 6.88743 2.38163 6.88742 2.34314 6.88744C2.3251 6.88726 2.30705 6.88708 2.28845 6.88689C2.17163 6.88773 2.09806 6.9007 2.01653 6.99097ZM4.33587 6.99219C4.28464 7.0772 4.29082 7.16897 4.29093 7.26547C4.29084 7.28235 4.29076 7.29923 4.29068 7.31662C4.29056 7.35224 4.29055 7.38786 4.29064 7.42349C4.2907 7.47771 4.29024 7.53191 4.28975 7.58614C4.2897 7.62085 4.28969 7.65556 4.28971 7.69028C4.28953 7.70635 4.28935 7.72243 4.28916 7.739C4.28999 7.84308 4.30676 7.91534 4.3554 8.00781C4.42472 8.0749 4.49597 8.08814 4.59006 8.08908C4.60526 8.08927 4.62045 8.08946 4.63611 8.08965C4.65236 8.08974 4.66862 8.08982 4.68537 8.0899C4.70227 8.09002 4.71918 8.09013 4.7366 8.09024C4.77234 8.09043 4.80808 8.09055 4.84382 8.09063C4.89821 8.09082 4.95259 8.09142 5.00699 8.09204C5.04179 8.09217 5.07659 8.09227 5.11139 8.09235C5.1356 8.09271 5.1356 8.09271 5.1603 8.09308C5.26457 8.09268 5.33853 8.07988 5.42962 8.02734C5.50791 7.94312 5.49702 7.84071 5.49668 7.73201C5.49678 7.71292 5.49688 7.69383 5.49699 7.67415C5.49711 7.63385 5.49709 7.59355 5.49692 7.55325C5.49676 7.49173 5.49732 7.43025 5.49794 7.36874C5.49797 7.32951 5.49796 7.29028 5.4979 7.25105C5.49812 7.23274 5.49834 7.21443 5.49856 7.19556C5.4974 7.08608 5.48607 7.01866 5.41008 6.93359C5.35337 6.89892 5.31033 6.88946 5.24427 6.88855C5.21845 6.88808 5.21845 6.88808 5.19211 6.8876C5.17366 6.8875 5.1552 6.88739 5.13619 6.88728C5.11707 6.88711 5.09795 6.88693 5.07825 6.88675C5.03783 6.88647 4.99741 6.88629 4.95699 6.88622C4.8953 6.88599 4.83365 6.88503 4.77196 6.88404C4.73265 6.88386 4.69333 6.88371 4.65401 6.88362C4.63564 6.88324 4.61726 6.88286 4.59833 6.88247C4.4763 6.8833 4.41822 6.90002 4.33587 6.99219ZM6.69915 6.97266C6.66446 7.02937 6.65501 7.07241 6.6541 7.13847C6.65379 7.15568 6.65348 7.1729 6.65315 7.19063C6.65305 7.20908 6.65294 7.22754 6.65284 7.24655C6.65266 7.26567 6.65248 7.28479 6.6523 7.30449C6.65202 7.34491 6.65185 7.38533 6.65177 7.42575C6.65154 7.48744 6.65058 7.54909 6.64959 7.61078C6.64941 7.6501 6.64927 7.68941 6.64917 7.72873C6.64879 7.7471 6.64841 7.76548 6.64802 7.78441C6.64859 7.86851 6.65096 7.93029 6.70349 7.9984C6.80763 8.09145 6.8972 8.09196 7.03103 8.09181C7.05634 8.09194 7.05634 8.09194 7.08217 8.09207C7.11779 8.09218 7.15342 8.09219 7.18904 8.0921C7.24326 8.09204 7.29747 8.0925 7.35169 8.09299C7.3864 8.09304 7.42112 8.09305 7.45583 8.09303C7.47995 8.0933 7.47995 8.0933 7.50455 8.09358C7.60863 8.09275 7.6809 8.07598 7.77337 8.02734C7.86332 7.93439 7.85481 7.82452 7.85546 7.70164C7.85563 7.67694 7.85563 7.67694 7.8558 7.65173C7.85598 7.61691 7.85611 7.58209 7.85618 7.54727C7.85637 7.49429 7.85698 7.44132 7.85759 7.38834C7.85772 7.35443 7.85782 7.32052 7.8579 7.28661C7.85814 7.2709 7.85838 7.25518 7.85863 7.239C7.85817 7.12252 7.83839 7.02953 7.7636 6.93604C7.7093 6.89531 7.65734 6.89192 7.59203 6.89107C7.57521 6.89082 7.55838 6.89057 7.54105 6.89031C7.51386 6.8901 7.51386 6.8901 7.48612 6.88988C7.46741 6.88972 7.44869 6.88956 7.42941 6.8894C7.38979 6.88913 7.35018 6.88892 7.31056 6.88877C7.25012 6.88843 7.18969 6.88757 7.12925 6.88671C7.09074 6.88651 7.05222 6.88635 7.01371 6.88622C6.9957 6.88587 6.97769 6.88553 6.95913 6.88518C6.85012 6.88555 6.78393 6.89706 6.69915 6.97266Z" fill="#2B2B2C"/>
<path d="M1.00412 0.583782C1.02523 0.583784 1.04634 0.583785 1.06809 0.583787C1.09076 0.583888 1.11343 0.583989 1.13678 0.584092C1.16008 0.58412 1.18338 0.584148 1.20738 0.584176C1.28181 0.584286 1.35624 0.584531 1.43066 0.584779C1.48112 0.584877 1.53158 0.584966 1.58203 0.585046C1.70573 0.585261 1.82943 0.585588 1.95312 0.586C1.95324 0.597729 1.95335 0.609459 1.95347 0.621544C1.95472 0.743852 1.95637 0.86615 1.95825 0.98845C1.9589 1.03407 1.95945 1.07968 1.95989 1.1253C1.96055 1.19095 1.96157 1.25659 1.96266 1.32224C1.96279 1.34257 1.96291 1.36289 1.96304 1.38384C1.96519 1.49016 1.97076 1.56873 2.03125 1.66022C2.08855 1.70888 2.15356 1.73691 2.229 1.7401C2.30344 1.73234 2.3768 1.71776 2.44141 1.67975C2.46701 1.63204 2.46701 1.63204 2.48047 1.58209C2.49014 1.56276 2.49014 1.56276 2.5 1.54303C2.50645 1.22721 2.51289 0.91139 2.51953 0.586C4.0793 0.586 5.63906 0.586 7.24609 0.586C7.25254 0.90182 7.25898 1.21764 7.26562 1.54303C7.28496 1.57526 7.3043 1.60748 7.32422 1.64069C7.32422 1.65358 7.32422 1.66647 7.32422 1.67975C7.40592 1.71805 7.48767 1.74047 7.57812 1.73834C7.64293 1.71248 7.64293 1.71248 7.69531 1.67975C7.7082 1.67975 7.72109 1.67975 7.73438 1.67975C7.77518 1.60087 7.79538 1.5375 7.79698 1.44853C7.79737 1.42937 7.79776 1.41021 7.79816 1.39048C7.79849 1.36985 7.79881 1.34922 7.79915 1.32796C7.79976 1.29622 7.79976 1.29622 7.80038 1.26384C7.80166 1.19618 7.80281 1.12852 7.80396 1.06085C7.8048 1.01501 7.80565 0.969173 7.80651 0.923333C7.8086 0.81089 7.81059 0.698446 7.8125 0.586C7.96083 0.584004 8.10916 0.582644 8.25751 0.581708C8.30788 0.581318 8.35824 0.580786 8.40861 0.580106C8.48139 0.579149 8.55415 0.578713 8.62694 0.57837C8.66022 0.577766 8.66022 0.577766 8.69417 0.577148C9.00984 0.577062 9.25965 0.697941 9.48708 0.911088C9.89998 1.34111 9.70703 1.98218 9.70703 2.53912C6.60039 2.53912 3.49375 2.53912 0.292969 2.53912C0.292969 1.05042 0.292969 1.05042 0.551758 0.766664C0.676743 0.646967 0.832531 0.583382 1.00412 0.583782Z" fill="#2B2B2C"/>
</g>
<defs>
<clipPath id="clip0_95_353">
<rect width="10" height="10" fill="white"/>
</clipPath>
</defs>
</svg>
