<svg width="10" height="10" viewBox="0 0 10 10" fill="none" xmlns="http://www.w3.org/2000/svg">
<g clip-path="url(#clip0_95_425)">
<path d="M4.99275 -0.00602937C5.01263 -0.00598728 5.03251 -0.00594518 5.053 -0.00590182C5.33833 -0.00493168 5.61825 -3.13576e-05 5.89851 0.0586679C5.91755 0.0625483 5.93659 0.0664287 5.95621 0.0704267C6.90117 0.268095 7.76031 0.696152 8.45711 1.36726C8.47642 1.38578 8.47642 1.38578 8.49613 1.40467C8.68145 1.58328 8.85215 1.76487 9.00398 1.97273C9.02074 1.99521 9.0375 2.01769 9.05426 2.04017C9.17219 2.20016 9.27685 2.36644 9.37507 2.53914C9.38219 2.55148 9.38931 2.56382 9.39665 2.57653C9.81863 3.3138 10.0094 4.14909 10.0062 4.99275C10.0061 5.01263 10.0061 5.03251 10.0061 5.053C10.0051 5.33833 10.0002 5.61825 9.94148 5.89851C9.93566 5.92707 9.93566 5.92707 9.92972 5.95621C9.73205 6.90117 9.304 7.76031 8.63289 8.45711C8.62054 8.46998 8.60819 8.48286 8.59547 8.49613C8.41687 8.68145 8.23528 8.85215 8.02742 9.00398C8.00494 9.02074 7.98245 9.0375 7.95997 9.05426C7.80002 9.17218 7.63395 9.27731 7.46101 9.37507C7.4472 9.38293 7.43339 9.39078 7.41915 9.39888C6.96729 9.65328 6.47567 9.82416 5.96809 9.92805C5.95405 9.93093 5.94001 9.93381 5.92554 9.93677C5.63891 9.99125 5.35522 10.0069 5.06399 10.0062C5.00658 10.0062 4.94919 10.0066 4.89178 10.0071C4.63058 10.008 4.3787 9.98446 4.12117 9.94148C4.08786 9.93597 4.08786 9.93597 4.05387 9.93035C3.2088 9.77855 2.40705 9.38818 1.75789 8.8282C1.74333 8.81581 1.72878 8.80342 1.71379 8.79066C1.45002 8.55998 1.20253 8.31094 0.996168 8.02742C0.97944 8.00496 0.962706 7.9825 0.945966 7.96005C0.827997 7.80009 0.722854 7.63398 0.625074 7.46101C0.617219 7.4472 0.609364 7.43339 0.60127 7.41915C0.346868 6.96729 0.175992 6.47567 0.0720956 5.96809C0.0692176 5.95405 0.0663395 5.94001 0.0633743 5.92554C0.00529112 5.61995 -0.00721108 5.31774 -0.00602937 5.0074C-0.00598728 4.98752 -0.00594518 4.96764 -0.00590182 4.94715C-0.00493168 4.66182 -3.13576e-05 4.3819 0.0586679 4.10164C0.0625483 4.0826 0.0664287 4.06356 0.0704267 4.04394C0.268095 3.09898 0.696152 2.23983 1.36726 1.54304C1.37961 1.53016 1.39195 1.51729 1.40467 1.50402C1.58328 1.3187 1.76487 1.148 1.97273 0.996168C1.99521 0.979409 2.01769 0.96265 2.04017 0.94589C2.20013 0.827969 2.36619 0.722836 2.53914 0.625074C2.55295 0.617219 2.56676 0.609364 2.58099 0.60127C3.03286 0.346868 3.52448 0.175992 4.03206 0.0720956C4.0461 0.0692176 4.06014 0.0663395 4.0746 0.0633743C4.3802 0.00529112 4.68241 -0.00721108 4.99275 -0.00602937ZM4.62898 1.6407C4.59316 1.7238 4.58523 1.79565 4.58526 1.88553C4.58495 1.90938 4.58463 1.93324 4.58431 1.95781C4.58398 2.00771 4.58388 2.05761 4.58401 2.1075C4.58106 2.28763 4.58106 2.28763 4.53224 2.36603C4.45399 2.41388 4.3746 2.445 4.2884 2.47566C3.90344 2.62136 3.59408 2.85431 3.41194 3.2325C3.34241 3.39177 3.29127 3.55616 3.28132 3.73054C3.28007 3.75159 3.27881 3.77264 3.27751 3.79432C3.26714 4.12487 3.35185 4.44272 3.57918 4.69124C3.616 4.72976 3.6536 4.76724 3.69148 4.80476C3.70654 4.82025 3.72159 4.83573 3.7371 4.85168C4.01026 5.11691 4.38467 5.25905 4.73091 5.40191C4.75151 5.41042 4.77212 5.41893 4.79335 5.4277C4.83301 5.444 4.87272 5.46015 4.91249 5.47615C5.15845 5.57648 5.41629 5.68708 5.53032 5.94269C5.57249 6.07829 5.56514 6.20582 5.50789 6.33552C5.41133 6.50383 5.25862 6.56858 5.0782 6.62117C4.61606 6.74069 4.05708 6.559 3.64654 6.34971C3.58877 6.32614 3.55737 6.31442 3.49617 6.3282C3.43335 6.40941 3.40052 6.4864 3.37196 6.58447C3.36817 6.59742 3.36438 6.61037 3.36047 6.62371C3.35257 6.65091 3.34476 6.67814 3.33705 6.7054C3.3253 6.7468 3.31314 6.78807 3.30093 6.82934C3.29325 6.85594 3.2856 6.88256 3.27797 6.90918C3.2711 6.93308 3.26423 6.95699 3.25716 6.98161C3.23669 7.07675 3.22297 7.15525 3.274 7.24075C3.56852 7.52316 4.11286 7.5701 4.49226 7.63679C4.50975 7.71213 4.5147 7.78293 4.51591 7.86018C4.51647 7.8841 4.51702 7.90802 4.51759 7.93266C4.51861 7.98281 4.51947 8.03296 4.52019 8.08311C4.52079 8.10703 4.52139 8.13095 4.52202 8.15559C4.5226 8.18826 4.5226 8.18826 4.52319 8.22159C4.53244 8.28949 4.5471 8.32559 4.58992 8.37898C4.6996 8.44059 4.82671 8.42447 4.9488 8.42415C4.97237 8.42446 4.99594 8.42478 5.02022 8.4251C5.19447 8.42557 5.19447 8.42557 5.35164 8.35945C5.39985 8.29022 5.39594 8.22284 5.39673 8.14041C5.39722 8.11263 5.39771 8.08484 5.39821 8.05706C5.39878 8.01351 5.39924 7.96997 5.39961 7.92643C5.40004 7.88422 5.40081 7.84203 5.40161 7.79983C5.40187 7.77466 5.40213 7.74948 5.40241 7.72354C5.41069 7.65241 5.42578 7.61524 5.46882 7.55867C5.51056 7.53685 5.51056 7.53685 5.56038 7.52205C5.80012 7.44266 6.01393 7.34849 6.21101 7.18757C6.22355 7.17798 6.23609 7.16839 6.24901 7.15851C6.52732 6.93698 6.69593 6.59435 6.75789 6.25007C6.78944 5.83127 6.70764 5.4453 6.44661 5.10872C6.4206 5.07863 6.39415 5.04891 6.36726 5.01961C6.3543 5.00485 6.34133 4.9901 6.32797 4.9749C6.0436 4.66898 5.62093 4.519 5.24421 4.36165C4.60501 4.09378 4.60501 4.09378 4.50935 3.86482C4.4789 3.72997 4.48204 3.61726 4.55086 3.49617C4.65644 3.36532 4.8112 3.31442 4.97268 3.2904C5.36251 3.25645 5.7388 3.32767 6.09337 3.4909C6.1694 3.52376 6.1694 3.52376 6.25007 3.53523C6.333 3.48146 6.36284 3.4373 6.39007 3.3432C6.39663 3.32116 6.40319 3.29911 6.40995 3.2764C6.41641 3.25345 6.42286 3.23051 6.42952 3.20686C6.4362 3.18414 6.44289 3.16142 6.44977 3.13801C6.46818 3.07519 6.48612 3.01226 6.50398 2.94929C6.51186 2.92261 6.51974 2.89594 6.52763 2.86926C6.54645 2.80005 6.55229 2.74721 6.54304 2.67586C6.36977 2.46773 6.01708 2.41674 5.76423 2.36213C5.7482 2.35866 5.73217 2.35519 5.71566 2.35162C5.68428 2.34491 5.65287 2.33836 5.62143 2.33199C5.51212 2.309 5.51212 2.309 5.46882 2.2657C5.43755 2.1392 5.44329 2.00407 5.4409 1.87443C5.44024 1.73546 5.44024 1.73546 5.37117 1.62117C5.24623 1.57454 5.12127 1.57558 4.98909 1.576C4.96951 1.57569 4.94994 1.57537 4.92977 1.57505C4.81575 1.57497 4.72649 1.57853 4.62898 1.6407Z" fill="#2B2B2C"/>
</g>
<defs>
<clipPath id="clip0_95_425">
<rect width="10" height="10" fill="white"/>
</clipPath>
</defs>
</svg>
