<svg width="10" height="10" viewBox="0 0 10 10" fill="none" xmlns="http://www.w3.org/2000/svg">
<path d="M0.960567 0.00913503C0.989734 0.00902602 1.0189 0.00891701 1.04895 0.0088047C1.08138 0.00880689 1.11381 0.00881153 1.14624 0.00881836C1.18065 0.00873768 1.21505 0.00864658 1.24946 0.00854592C1.34413 0.00830095 1.43881 0.00821003 1.53349 0.00814516C1.63556 0.0080497 1.73762 0.00781549 1.83968 0.00760199C2.08624 0.00711873 2.3328 0.00687255 2.57936 0.00665499C2.69548 0.0065478 2.8116 0.00641657 2.92772 0.00628847C3.31374 0.00587246 3.69977 0.00551805 4.08579 0.00534095C4.18597 0.00529425 4.28615 0.00524729 4.38632 0.00519947C4.42367 0.00518173 4.42367 0.00518173 4.46178 0.00516362C4.86507 0.00496068 5.26836 0.00434117 5.67165 0.00354693C6.08573 0.0027381 6.4998 0.00229781 6.91389 0.00221969C7.14636 0.00216676 7.37884 0.00195303 7.61132 0.00132811C7.80932 0.000797098 8.00732 0.000600568 8.20532 0.000838245C8.3063 0.000949313 8.40728 0.000903371 8.50826 0.00042838C8.60083 -3.22673e-06 8.69338 2.20033e-05 8.78594 0.000401415C8.81931 0.000459447 8.85269 0.000354158 8.88606 6.32663e-05C9.20785 -0.00256644 9.46384 0.0763856 9.70183 0.311295C9.94788 0.5824 10.0053 0.852652 9.99962 1.21443C9.98403 1.63441 9.71373 1.90553 9.45459 2.1913C9.38281 2.27073 9.31416 2.35256 9.24614 2.43559C9.18937 2.50436 9.13074 2.57121 9.07194 2.63804C8.97202 2.75207 8.87313 2.86696 8.77505 2.98277C8.71553 3.05266 8.65548 3.12201 8.59532 3.19128C8.51784 3.28052 8.44073 3.37007 8.36423 3.46026C8.27699 3.56313 8.18884 3.6651 8.10047 3.76688C8.03391 3.8436 7.9678 3.92072 7.90206 3.99823C7.8148 4.10111 7.72664 4.2031 7.63825 4.30489C7.57216 4.38107 7.50655 4.45766 7.44133 4.53466C7.34897 4.64359 7.25523 4.75111 7.16129 4.8585C7.07443 4.9579 6.98863 5.05825 6.90324 5.15907C6.84373 5.22896 6.78367 5.29831 6.72352 5.36758C6.64241 5.4611 6.56141 5.55472 6.48088 5.64879C6.46467 5.6677 6.44847 5.68662 6.43177 5.7061C6.41748 5.7235 6.40318 5.7409 6.38844 5.75883C6.37629 5.77148 6.36413 5.78412 6.35161 5.79715C6.30181 5.88834 6.30972 5.97513 6.31059 6.07866C6.31051 6.1011 6.31042 6.12353 6.31033 6.14665C6.31018 6.19534 6.31019 6.24402 6.31034 6.29271C6.31055 6.3698 6.31031 6.44688 6.30995 6.52397C6.30902 6.74313 6.309 6.96229 6.30905 7.18146C6.30905 7.31555 6.30861 7.44963 6.30791 7.58372C6.30766 7.65961 6.30794 7.73548 6.30823 7.81136C6.30802 7.85801 6.30779 7.90466 6.30753 7.95131C6.30775 7.97235 6.30798 7.99339 6.30821 8.01507C6.30672 8.14708 6.28593 8.22136 6.20358 8.32637C6.159 8.37119 6.11535 8.41242 6.06781 8.45322C6.05469 8.46473 6.04156 8.47624 6.02803 8.4881C5.92191 8.5806 5.81391 8.6706 5.70544 8.76C5.60076 8.84633 5.49757 8.93445 5.39477 9.02328C5.26719 9.13346 5.13861 9.24205 5.00876 9.34922C4.90369 9.43618 4.80037 9.52529 4.69718 9.61473C4.23117 10.0179 4.23117 10.0179 3.93893 9.98916C3.82391 9.93266 3.77019 9.85983 3.70784 9.74464C3.69656 9.66641 3.69656 9.66641 3.69694 9.58071C3.69688 9.56484 3.69682 9.54898 3.69676 9.53263C3.69667 9.4798 3.69723 9.427 3.69779 9.37418C3.69786 9.33617 3.69788 9.29816 3.69786 9.26015C3.69789 9.17845 3.69821 9.09676 3.69873 9.01506C3.69954 8.88578 3.69956 8.7565 3.69945 8.62721C3.69928 8.28283 3.70005 7.93846 3.70145 7.59408C3.70237 7.36774 3.70283 7.14142 3.70241 6.91508C3.70221 6.78665 3.70274 6.65826 3.70382 6.52985C3.70433 6.44982 3.70415 6.3698 3.7038 6.28977C3.70377 6.25279 3.70401 6.2158 3.70456 6.17882C3.71038 5.94273 3.71038 5.94273 3.60699 5.74028C3.57952 5.71323 3.55154 5.68676 3.52297 5.66102C3.49961 5.63464 3.4765 5.60801 3.45383 5.58097C3.43164 5.55567 3.40944 5.53039 3.38721 5.50513C3.28729 5.3911 3.1884 5.2762 3.09032 5.1604C3.0308 5.09051 2.97075 5.02116 2.91059 4.95189C2.83356 4.86318 2.75693 4.77414 2.68095 4.68443C2.60037 4.5894 2.51882 4.49539 2.43687 4.4017C2.33797 4.28864 2.24004 4.17475 2.14286 4.06003C2.08335 3.99014 2.02329 3.92078 1.96314 3.85151C1.86858 3.74261 1.77484 3.63298 1.6815 3.52292C1.62168 3.45278 1.56137 3.38312 1.50096 3.31355C1.40641 3.20465 1.31267 3.09502 1.21933 2.98496C1.15951 2.91482 1.0992 2.84516 1.03879 2.77559C0.944238 2.66669 0.850497 2.55706 0.757154 2.447C0.708116 2.3895 0.658785 2.3323 0.609273 2.27525C0.587538 2.25021 0.565828 2.22514 0.544144 2.20004C0.494075 2.14211 0.443773 2.08447 0.392832 2.02739C0.110411 1.70668 -0.0123624 1.42002 0.000977834 0.983366C0.0195381 0.677316 0.170177 0.444561 0.374417 0.238606C0.542818 0.088949 0.742491 0.00951292 0.960567 0.00913503Z" fill="#2B2B2C"/>
</svg>
