<svg width="12" height="12" viewBox="0 0 12 12" fill="none" xmlns="http://www.w3.org/2000/svg">
<g clip-path="url(#clip0_95_427)">
<path d="M6.84384 3.09363C6.86086 3.09853 6.87789 3.10343 6.89543 3.10847C7.64062 3.33034 8.27614 3.84703 8.64927 4.52771C9.02235 5.22609 9.13032 6.07814 8.90634 6.84363C8.89899 6.86917 8.89899 6.86917 8.8915 6.89522C8.66963 7.64041 8.15293 8.27593 7.47226 8.64906C6.77388 9.02214 5.92183 9.13011 5.15634 8.90613C5.1308 8.89878 5.1308 8.89878 5.10475 8.89129C4.35956 8.66943 3.72404 8.15273 3.35091 7.47205C2.97783 6.77368 2.86986 5.92162 3.09384 5.15613C3.09874 5.13911 3.10363 5.12208 3.10868 5.10454C3.33055 4.35932 3.84727 3.72378 4.52802 3.3507C4.7601 3.22642 4.99685 3.13883 5.25009 3.07019C5.27677 3.06264 5.30344 3.05509 5.33093 3.04731C5.80596 2.93547 6.37713 2.95707 6.84384 3.09363ZM4.47665 4.49988C4.45889 4.51737 4.44112 4.53487 4.42282 4.55289C4.03463 4.95781 3.85744 5.49367 3.86023 6.04867C3.87356 6.61747 4.09836 7.12159 4.50009 7.52332C4.51812 7.54136 4.53616 7.55939 4.55475 7.57798C4.96308 7.9652 5.49662 8.14665 6.05362 8.14093C6.62102 8.12336 7.12233 7.90108 7.52353 7.49988C7.54156 7.48184 7.5596 7.46381 7.57818 7.44522C7.96541 7.03689 8.14686 6.50335 8.14114 5.94635C8.12356 5.37862 7.90108 4.87812 7.50009 4.47644C7.47385 4.4498 7.47385 4.4498 7.44708 4.42261C7.04216 4.03442 6.5063 3.85723 5.9513 3.86002C5.38216 3.87336 4.87886 4.09836 4.47665 4.49988Z" fill="#2B2B2C"/>
<path d="M2.18365 7.9599C2.30441 8.05034 2.37152 8.18574 2.44494 8.31439C2.59697 8.5792 2.79059 8.80352 3.00012 9.02338C3.01574 9.04024 3.03136 9.0571 3.04745 9.07447C3.79906 9.86246 4.98508 10.226 6.04535 10.2639C6.98572 10.2842 7.93335 9.96534 8.64709 9.35004C8.77143 9.24633 8.86904 9.20452 9.03088 9.21408C9.16745 9.23554 9.26239 9.29336 9.35168 9.39838C9.42107 9.51701 9.44881 9.63803 9.422 9.77338C9.36849 9.91936 9.29166 10.0066 9.16858 10.0986C9.15304 10.1105 9.1375 10.1225 9.12149 10.1348C9.07362 10.1711 9.02529 10.2068 8.97668 10.2421C8.95549 10.2576 8.95549 10.2576 8.93387 10.2735C7.87175 11.0407 6.51532 11.2939 5.23247 11.0986C3.91945 10.8789 2.64858 10.2093 1.85132 9.12317C1.74796 8.9782 1.65749 8.82697 1.57043 8.67182C1.55932 8.65384 1.5482 8.63586 1.53674 8.61734C1.46396 8.49275 1.45273 8.36837 1.47668 8.2265C1.53478 8.08387 1.62993 7.99032 1.76379 7.91596C1.91301 7.87526 2.04809 7.88274 2.18365 7.9599Z" fill="#2B2B2C"/>
<path d="M8.26193 1.34035C8.72811 1.56709 9.12934 1.85324 9.50968 2.20463C9.52408 2.21788 9.53848 2.23114 9.55331 2.2448C10.4653 3.09923 11.071 4.44376 11.1141 5.69027C11.117 5.81062 11.1171 5.93093 11.1166 6.05131C11.1165 6.08312 11.1165 6.08312 11.1165 6.11558C11.1153 6.42587 11.1064 6.7273 11.039 7.03129C11.032 7.06432 11.032 7.06432 11.0249 7.09803C10.9147 7.60979 10.7163 8.36109 10.3183 8.73197C10.1967 8.80967 10.0789 8.79894 9.93742 8.7891C9.78965 8.74258 9.69698 8.62893 9.62394 8.49613C9.57344 8.29411 9.65709 8.14689 9.75246 7.976C10.2781 7.0286 10.3296 5.93139 10.0546 4.89848C9.8861 4.31014 9.63769 3.74787 9.23429 3.28129C9.21286 3.25535 9.19147 3.22938 9.17012 3.20338C8.76449 2.71366 8.26301 2.36676 7.68618 2.10445C7.37926 1.96452 7.37926 1.96452 7.31535 1.85013C7.30622 1.83439 7.2971 1.81865 7.2877 1.80244C7.22581 1.6779 7.22699 1.56963 7.26994 1.43851C7.49761 1.01458 7.91691 1.17742 8.26193 1.34035Z" fill="#2B2B2C"/>
<path d="M5.7427 0.842007C5.79575 0.840143 5.84877 0.838956 5.90183 0.837979C5.91839 0.837473 5.93494 0.836967 5.95199 0.836445C6.08969 0.8356 6.19676 0.861909 6.30293 0.952786C6.41028 1.08645 6.46056 1.18235 6.44529 1.35946C6.40276 1.4828 6.35456 1.59712 6.23861 1.66605C6.09507 1.73469 5.9731 1.74715 5.81541 1.74765C4.68626 1.77631 3.66081 2.29108 2.87785 3.09137C2.6622 3.3256 2.47653 3.59043 2.32029 3.86728C2.31133 3.88277 2.30238 3.89826 2.29315 3.91422C1.93305 4.5411 1.72949 5.2438 1.72996 5.96786C1.72994 5.99238 1.72993 6.01689 1.72991 6.04215C1.73109 6.21575 1.74418 6.38323 1.77097 6.55462C1.79153 6.71156 1.79102 6.8459 1.71092 6.98446C1.60501 7.10292 1.49959 7.16623 1.34031 7.17929C1.19875 7.17449 1.07961 7.13603 0.977029 7.03573C0.692545 6.67085 0.790083 5.84695 0.835489 5.40591C0.999329 4.1008 1.6845 2.84343 2.71955 2.02221C2.74248 2.0046 2.76541 1.98699 2.78904 1.96884C2.80218 1.95872 2.81532 1.9486 2.82886 1.93818C3.04106 1.77578 3.25993 1.63205 3.49217 1.50009C3.50567 1.49221 3.51918 1.48434 3.53309 1.47623C4.19166 1.09337 4.98247 0.871367 5.7427 0.842007Z" fill="#2B2B2C"/>
</g>
<defs>
<clipPath id="clip0_95_427">
<rect width="12" height="12" fill="white"/>
</clipPath>
</defs>
</svg>
