<svg width="10" height="10" viewBox="0 0 10 10" fill="none" xmlns="http://www.w3.org/2000/svg">
<g clip-path="url(#clip0_103_383)">
<path d="M4.02233 -0.00732108C4.03892 -0.00731694 4.05551 -0.00731281 4.07261 -0.00730856C4.35535 -0.00660954 4.6259 0.0162183 4.90246 0.0781281C4.91841 0.0814735 4.93436 0.0848189 4.95079 0.0882657C5.44138 0.192832 5.92084 0.411645 6.32824 0.703128C6.34768 0.716976 6.36711 0.730823 6.38714 0.74509C6.50747 0.833027 6.61912 0.927049 6.72817 1.0286C6.77058 1.06786 6.81383 1.10537 6.85803 1.14258C7.12621 1.37771 7.34577 1.68559 7.5193 1.99578C7.53892 2.03079 7.55902 2.0655 7.57916 2.10022C7.86741 2.60766 8.04737 3.23281 8.05096 3.81745C8.0511 3.83256 8.05123 3.84768 8.05138 3.86325C8.05361 4.18084 8.05575 4.49282 7.9884 4.80469C7.98472 4.82261 7.98105 4.84053 7.97727 4.85899C7.86669 5.38696 7.65565 5.88756 7.34386 6.32813C7.33349 6.34288 7.32312 6.35764 7.31243 6.37284C7.29057 6.40366 7.26843 6.43429 7.24621 6.46485C7.27731 6.54183 7.33049 6.59328 7.38867 6.65041C7.39932 6.66103 7.40997 6.67164 7.42095 6.68258C7.45668 6.71815 7.49254 6.75357 7.52841 6.78899C7.55405 6.81446 7.57968 6.83994 7.6053 6.86543C7.66052 6.92032 7.71579 6.97516 7.77111 7.02995C7.85865 7.11668 7.946 7.20359 8.03333 7.29054C8.28168 7.53777 8.53022 7.7848 8.77905 8.03153C8.91647 8.16779 9.0537 8.30422 9.19075 8.44085C9.27742 8.52724 9.36431 8.61341 9.45135 8.69941C9.50561 8.75313 9.55966 8.80705 9.61366 8.86102C9.63863 8.88591 9.66369 8.91071 9.68884 8.93542C9.9916 9.23311 9.9916 9.23311 10.0124 9.43314C10.0093 9.60533 10.0021 9.72114 9.8811 9.84734C9.7353 9.98366 9.62579 10.0117 9.42699 10.0059C9.15012 9.9831 8.93833 9.68321 8.75236 9.49665C8.7277 9.47199 8.70304 9.44733 8.67838 9.42268C8.61201 9.35631 8.5457 9.28989 8.47939 9.22345C8.40988 9.15382 8.34032 9.08424 8.27076 9.01466C8.1393 8.88314 8.00789 8.75157 7.8765 8.61998C7.7268 8.47007 7.57705 8.32021 7.4273 8.17036C7.11948 7.86233 6.81173 7.55424 6.50402 7.2461C6.43583 7.2724 6.38192 7.29993 6.32336 7.34375C5.89928 7.64523 5.42381 7.84646 4.91833 7.96387C4.89331 7.9697 4.89331 7.9697 4.86779 7.97564C4.59033 8.03685 4.31877 8.05487 4.03576 8.0542C4.01864 8.05419 4.00152 8.05418 3.98388 8.05417C3.69799 8.05336 3.42403 8.03315 3.14465 7.96875C3.11776 7.96279 3.11776 7.96279 3.09033 7.9567C2.42661 7.8055 1.83528 7.47934 1.32824 7.03125C1.3129 7.01776 1.3129 7.01776 1.29725 7.004C0.557041 6.34996 0.0889088 5.3972 0.000115135 4.41407C-0.00288935 4.35732 -0.00396124 4.30067 -0.0045388 4.24385C-0.00473097 4.22814 -0.00492314 4.21242 -0.00512113 4.19622C-0.016476 3.02518 0.358758 1.99549 1.17558 1.14884C1.70586 0.611184 2.39561 0.25354 3.12756 0.083011C3.14407 0.079129 3.16058 0.075247 3.17759 0.0712474C3.45814 0.00910005 3.73604 -0.00798408 4.02233 -0.00732108ZM3.37902 1.07422C3.36296 1.0781 3.3469 1.08198 3.33036 1.08598C2.54692 1.2802 1.86193 1.76329 1.44058 2.45725C1.29357 2.70637 1.18845 2.96002 1.10729 3.23731C1.10255 3.25346 1.09781 3.2696 1.09293 3.28624C1.02541 3.52873 1.00834 3.76821 1.00964 4.01856C1.00968 4.03324 1.00972 4.04792 1.00976 4.06305C1.01075 4.27689 1.01849 4.47992 1.07433 4.6875C1.07821 4.70251 1.08209 4.71752 1.08609 4.73298C1.29658 5.53631 1.79123 6.21405 2.50909 6.6402C2.97164 6.90425 3.48557 7.03978 4.01745 7.03736C4.04306 7.03725 4.06868 7.03714 4.09507 7.03702C4.81855 7.02803 5.4985 6.7527 6.03527 6.26953C6.06044 6.24871 6.08566 6.22794 6.11095 6.20728C6.18476 6.14337 6.24674 6.07135 6.30871 5.9961C6.32505 5.97658 6.34139 5.95707 6.35822 5.93697C6.66237 5.56699 6.85455 5.14974 6.97277 4.6875C6.97807 4.66693 6.97807 4.66693 6.98347 4.64594C7.15259 3.95029 7.00401 3.1756 6.66027 2.5586C6.65348 2.54617 6.64668 2.53374 6.63968 2.52094C6.53592 2.33274 6.4159 2.16896 6.26965 2.01172C6.25819 1.9993 6.24673 1.98688 6.23492 1.97409C6.04972 1.77548 5.85473 1.60984 5.62511 1.46485C5.6061 1.45274 5.6061 1.45274 5.5867 1.44039C5.12011 1.14823 4.57645 1.00704 4.02844 1.00952C3.98992 1.00969 3.98992 1.00969 3.95062 1.00986C3.75433 1.0123 3.56952 1.02714 3.37902 1.07422Z" fill="#344054"/>
</g>
<defs>
<clipPath id="clip0_103_383">
<rect width="10" height="10" fill="white"/>
</clipPath>
</defs>
</svg>
