<svg width="18" height="18" viewBox="0 0 18 18" fill="none" xmlns="http://www.w3.org/2000/svg">
<g clip-path="url(#clip0_226_780)">
<path fill-rule="evenodd" clip-rule="evenodd" d="M5.4 0.899512C5.4 0.402455 4.99706 -0.000488281 4.5 -0.000488281C4.00295 -0.000488281 3.6 0.402455 3.6 0.899512V1.79951H2.7C1.98391 1.79951 1.29716 2.08397 0.790812 2.59032C0.284464 3.09667 0 3.78343 0 4.49951V7.19951V15.2995C0 16.0156 0.284464 16.7023 0.790812 17.2087C1.29716 17.715 1.98391 17.9995 2.7 17.9995H15.3C16.0161 17.9995 16.7028 17.715 17.2092 17.2087C17.7155 16.7023 18 16.0156 18 15.2995V7.19951V4.49951C18 3.78343 17.7155 3.09667 17.2092 2.59032C16.7028 2.08397 16.0161 1.79951 15.3 1.79951H14.4V0.899512C14.4 0.402455 13.9971 -0.000488281 13.5 -0.000488281C13.0029 -0.000488281 12.6 0.402455 12.6 0.899512V1.79951H5.4V0.899512ZM16.2 6.29951V4.49951C16.2 4.26082 16.1051 4.0319 15.9364 3.86312C15.7676 3.69433 15.5387 3.59951 15.3 3.59951H13.5009H13.5H13.4991H4.50089H4.49911H2.7C2.4613 3.59951 2.23239 3.69433 2.0636 3.86312C1.89482 4.0319 1.8 4.26082 1.8 4.49951V6.29951H16.2ZM1.8 8.09951H16.2V15.2995C16.2 15.5382 16.1051 15.7671 15.9364 15.9359C15.7676 16.1047 15.5387 16.1995 15.3 16.1995H2.7C2.4613 16.1995 2.23239 16.1047 2.0636 15.9359C1.89482 15.7671 1.8 15.5382 1.8 15.2995V8.09951Z" fill="#606266"/>
</g>
<defs>
<clipPath id="clip0_226_780">
<rect width="18" height="18" fill="white"/>
</clipPath>
</defs>
</svg>
