<svg width="15" height="15" viewBox="0 0 15 15" fill="none" xmlns="http://www.w3.org/2000/svg">
<g clip-path="url(#clip0_141_223)">
<path d="M2.66606 2.63667C2.73124 2.6873 2.78875 2.74345 2.84656 2.80226C2.87156 2.82698 2.87156 2.82698 2.89706 2.85219C2.95263 2.90727 3.00777 2.96276 3.06292 3.01825C3.10315 3.05831 3.14341 3.09834 3.18369 3.13835C3.29416 3.24821 3.40425 3.35843 3.51429 3.46872C3.63309 3.58766 3.75222 3.70626 3.8713 3.82491C4.10447 4.05733 4.33732 4.29008 4.57005 4.52294C4.75919 4.71219 4.94843 4.90132 5.13774 5.09039C5.16468 5.11729 5.19162 5.14419 5.21937 5.17191C5.27409 5.22656 5.32882 5.28121 5.38354 5.33587C5.75095 5.70282 6.11825 6.06989 6.48532 6.4372C6.49967 6.45155 6.51402 6.46591 6.5288 6.48071C6.60153 6.55348 6.67426 6.62626 6.74698 6.69904C6.76143 6.71349 6.77587 6.72794 6.79075 6.74284C6.81996 6.77206 6.84917 6.80129 6.87838 6.83052C7.33297 7.28543 7.78795 7.73994 8.24323 8.19415C8.75487 8.70457 9.26621 9.21528 9.77712 9.72643C10.0476 9.99703 10.3182 10.2675 10.5892 10.5376C10.8198 10.7675 11.0501 10.9978 11.28 11.2284C11.3974 11.3461 11.5149 11.4636 11.6327 11.5808C11.7406 11.688 11.848 11.7957 11.9552 11.9036C11.994 11.9426 12.033 11.9815 12.0722 12.0202C12.4776 12.4211 12.4776 12.4211 12.4815 12.6987C12.4741 12.8702 12.4149 12.9882 12.2903 13.1086C12.1623 13.2204 12.0686 13.2473 11.9019 13.2513C11.8724 13.2524 11.843 13.2535 11.8126 13.2546C11.5649 13.2217 11.4143 13.0339 11.2505 12.8612C11.2074 12.8159 11.1639 12.7709 11.1203 12.7261C10.9964 12.5987 10.8728 12.4711 10.7505 12.3422C10.6753 12.2631 10.5994 12.1848 10.523 12.107C10.4941 12.0773 10.4655 12.0474 10.4373 12.0171C10.2915 11.8477 10.2915 11.8477 10.0933 11.7715C10.0246 11.7862 9.96631 11.8073 9.90239 11.8359C9.87548 11.8428 9.84856 11.8497 9.82083 11.8568C9.79809 11.8631 9.77534 11.8694 9.7519 11.8759C7.53575 12.4798 5.283 12.1658 3.28473 11.0438C3.08095 10.9271 2.8864 10.8005 2.69536 10.664C2.66292 10.641 2.66292 10.641 2.62983 10.6176C2.30435 10.3858 1.99454 10.1421 1.69927 9.873C1.66904 9.84548 1.66904 9.84548 1.6382 9.81741C1.57531 9.7599 1.51271 9.70209 1.45024 9.64412C1.4313 9.6266 1.41235 9.60908 1.39283 9.59103C1.27837 9.48351 1.17311 9.37111 1.07084 9.25195C1.01707 9.18944 0.960864 9.12943 0.90459 9.06917C0.614907 8.74785 0.350673 8.39154 0.117236 8.0273C0.103339 8.006 0.0894408 7.9847 0.075122 7.96275C-0.0497092 7.73563 -0.0338826 7.43029 0.0173293 7.18169C0.094916 6.96324 0.243865 6.77641 0.380908 6.59175C0.403643 6.5609 0.426378 6.53004 0.449802 6.49825C0.705948 6.15825 0.981931 5.83212 1.28911 5.53706C1.36518 5.4615 1.44063 5.38542 1.51548 5.30864C1.80075 5.01689 2.11356 4.76962 2.43904 4.52421C2.45957 4.50867 2.48011 4.49313 2.50127 4.47711C2.51962 4.46329 2.53798 4.44948 2.55689 4.43524C2.60667 4.39513 2.65054 4.35209 2.69536 4.30659C2.6692 4.2812 2.64303 4.2558 2.61608 4.22963C2.51857 4.13479 2.42156 4.03945 2.32468 3.94396C2.28278 3.9028 2.24076 3.86177 2.19859 3.82088C2.13781 3.76188 2.07752 3.70241 2.0173 3.64284C1.99853 3.62482 1.97976 3.60681 1.96042 3.58825C1.82132 3.44924 1.73819 3.31534 1.72227 3.11355C1.74435 2.92728 1.77859 2.78164 1.92426 2.65121C2.16856 2.4672 2.41187 2.48177 2.66606 2.63667ZM4.62895 6.24019C4.30128 6.90724 4.26275 7.73262 4.48991 8.43757C4.67118 8.96657 4.96316 9.47495 5.39067 9.8437C5.41628 9.8658 5.44188 9.88789 5.46826 9.91065C5.85655 10.2325 6.30857 10.4547 6.79692 10.5761C6.82415 10.5833 6.85138 10.5904 6.87944 10.5978C7.50071 10.7307 8.14823 10.6305 8.73052 10.4003C8.73052 10.1867 8.41709 9.94718 8.27289 9.79981C8.0803 9.61112 7.92805 9.47605 7.64565 9.47202C7.52517 9.48153 7.40602 9.49539 7.28649 9.51321C6.90973 9.55224 6.48667 9.32403 6.20046 9.09332C5.83477 8.78065 5.5516 8.33828 5.48075 7.85525C5.47808 7.77909 5.4897 7.71003 5.50225 7.63488C5.54928 7.3085 5.54928 7.3085 5.44276 7.00447C5.22313 6.71648 4.93889 6.46747 4.65825 6.24019C4.64858 6.24019 4.63892 6.24019 4.62895 6.24019Z" fill="#606266"/>
<path d="M9.49219 3.04682C9.51798 3.05311 9.54377 3.05941 9.57034 3.0659C11.0103 3.42636 12.4157 4.23064 13.4598 5.28627C13.512 5.33804 13.5665 5.38577 13.623 5.43268C13.7213 5.5176 13.8061 5.60791 13.8899 5.70699C13.9516 5.77869 14.0161 5.84712 14.0808 5.91608C14.2753 6.12957 14.4477 6.35955 14.6191 6.59174C14.6326 6.60983 14.646 6.62793 14.6599 6.64657C14.9237 7.004 15.0434 7.28742 15 7.73431C14.9457 7.99145 14.7729 8.20099 14.6191 8.40814C14.585 8.45442 14.585 8.45442 14.5502 8.50164C14.4162 8.67958 14.2758 8.85103 14.1302 9.01972C14.1149 9.03748 14.0996 9.05524 14.0839 9.07355C13.9881 9.18321 13.8883 9.28719 13.7841 9.38886C13.7358 9.4363 13.7358 9.4363 13.6835 9.50678C13.6156 9.58908 13.5412 9.6537 13.4601 9.72273C13.3922 9.78203 13.3268 9.84351 13.2615 9.90564C13.0254 10.1291 12.7704 10.3237 12.5098 10.5175C12.4657 10.5505 12.4216 10.5836 12.3776 10.6166C12.358 10.6313 12.3384 10.646 12.3182 10.6612C12.3041 10.6718 12.29 10.6824 12.2754 10.6933C12.1539 10.6452 12.0713 10.5571 11.9804 10.4668C11.9629 10.4496 11.9454 10.4325 11.9274 10.4148C11.8697 10.3581 11.8122 10.3012 11.7548 10.2442C11.7253 10.2151 11.7253 10.2151 11.6953 10.1853C11.5914 10.0825 11.4877 9.97953 11.3842 9.87641C11.2771 9.76982 11.1695 9.66386 11.0616 9.55803C10.9789 9.47659 10.8966 9.39469 10.8144 9.31267C10.7749 9.27339 10.7352 9.23428 10.6954 9.19536C10.6397 9.14093 10.5848 9.0859 10.53 9.03067C10.5133 9.01469 10.4967 8.9987 10.4796 8.98223C10.4346 8.93619 10.4346 8.93619 10.3711 8.8476C10.3738 8.75497 10.3738 8.75497 10.4004 8.67181C10.4112 8.63639 10.4221 8.60097 10.4332 8.56447C10.4461 8.52578 10.4589 8.4871 10.4718 8.44843C10.7339 7.62099 10.6227 6.80288 10.2594 6.02777C10.1609 5.83847 10.0367 5.67293 9.90234 5.50775C9.88218 5.48271 9.86201 5.45768 9.84123 5.43188C9.35273 4.85712 8.60603 4.45791 7.85156 4.39447C7.3226 4.36171 6.82593 4.39788 6.33579 4.61019C6.25121 4.634 6.20718 4.6249 6.12305 4.59955C6.05649 4.54748 6.05649 4.54748 5.98809 4.47882C5.96229 4.4532 5.93649 4.42759 5.90991 4.4012C5.88218 4.37306 5.85447 4.34492 5.82676 4.31677C5.79809 4.28803 5.7694 4.25931 5.74068 4.23061C5.68069 4.17052 5.6209 4.11024 5.56125 4.04981C5.48467 3.97224 5.40771 3.89506 5.33061 3.818C5.27141 3.75878 5.21236 3.69941 5.15336 3.63998C5.12502 3.61146 5.09665 3.58297 5.06824 3.55452C5.02867 3.51483 4.98933 3.47492 4.94999 3.43501C4.92753 3.41232 4.90508 3.38964 4.88194 3.36627C4.83398 3.31049 4.83398 3.31049 4.83398 3.25189C6.34893 2.75424 7.93831 2.6643 9.49219 3.04682Z" fill="#606266"/>
<path d="M8.70117 5.80084C9.12772 6.11998 9.42833 6.57377 9.53728 7.09734C9.57037 7.36631 9.58877 7.67473 9.52148 7.93951C9.43209 7.89954 9.37037 7.85434 9.30123 7.78529C9.2714 7.75571 9.2714 7.75571 9.24098 7.72554C9.21948 7.70393 9.19799 7.68231 9.17584 7.66005C9.15297 7.63727 9.13009 7.6145 9.10652 7.59103C9.03092 7.51569 8.95553 7.44013 8.88016 7.36456C8.82779 7.31223 8.77541 7.25991 8.72302 7.20759C8.61328 7.09794 8.50365 6.98819 8.3941 6.87836C8.26733 6.75127 8.14035 6.6244 8.01326 6.49763C7.89105 6.37572 7.76901 6.25364 7.64704 6.1315C7.59507 6.0795 7.54307 6.02754 7.49102 5.97562C7.41848 5.90324 7.34613 5.83066 7.27384 5.75804C7.2521 5.73643 7.23037 5.71481 7.20798 5.69254C7.18843 5.67283 7.16888 5.65311 7.14874 5.6328C7.1316 5.61564 7.11447 5.59849 7.09682 5.58082C7.06055 5.53717 7.06055 5.53717 7.06055 5.47857C7.61659 5.33928 8.23463 5.48225 8.70117 5.80084Z" fill="#606266"/>
</g>
<defs>
<clipPath id="clip0_141_223">
<rect width="15" height="15" fill="white"/>
</clipPath>
</defs>
</svg>
