<svg width="24" height="24" viewBox="0 0 24 24" fill="none" xmlns="http://www.w3.org/2000/svg">
<g opacity="0.3003">
<path d="M7.07999 2.60068C7.19923 2.60042 7.31847 2.60009 7.43772 2.59968C7.72697 2.59892 8.01621 2.59903 8.30546 2.59957C8.54072 2.6 8.77597 2.60005 9.01122 2.59985C9.0616 2.59981 9.0616 2.59981 9.11299 2.59976C9.18124 2.5997 9.24949 2.59964 9.31773 2.59958C9.95646 2.59905 10.5952 2.59966 11.2339 2.60067C11.781 2.60151 12.3281 2.60136 12.8752 2.6005C13.5118 2.59949 14.1483 2.5991 14.7849 2.59967C14.8529 2.59973 14.9209 2.59979 14.9889 2.59985C15.0223 2.59988 15.0557 2.59991 15.0902 2.59994C15.3249 2.6001 15.5597 2.59983 15.7944 2.59938C16.1109 2.5988 16.4273 2.59922 16.7437 2.6003C16.8596 2.60055 16.9754 2.60048 17.0913 2.60007C17.9356 2.59732 18.5996 2.64215 19.2655 3.22205C19.7878 3.76528 19.9694 4.57214 20.1827 5.27045C20.2169 5.38099 20.2512 5.49153 20.2855 5.60204C20.3597 5.84131 20.4336 6.08068 20.5072 6.32015C20.6291 6.71668 20.752 7.1129 20.875 7.5091C20.9186 7.64951 20.9621 7.78992 21.0057 7.93034C21.0165 7.96525 21.0274 8.00015 21.0385 8.03611C21.1 8.2344 21.1615 8.4327 21.2228 8.63105C21.2422 8.69395 21.2617 8.75683 21.2812 8.8197C21.3328 8.98578 21.3835 9.15204 21.4331 9.31871C21.5515 9.71309 21.6804 10.1007 21.8247 10.4865C22.5246 12.3684 22.6654 14.0534 22.6008 16.0502C22.5888 16.4293 22.5836 16.8085 22.5783 17.1878C22.574 17.4811 22.5682 17.7744 22.5621 18.0677C22.5606 18.1375 22.5592 18.2074 22.5578 18.2773C22.5532 18.5049 22.5469 18.7323 22.5398 18.9599C22.5386 19.016 22.5374 19.0722 22.5362 19.1301C22.5106 19.8312 22.258 20.3948 21.7471 20.8784C21.2127 21.318 20.6794 21.3961 20.0042 21.3931C19.9323 21.3933 19.8603 21.3936 19.7884 21.3939C19.5917 21.3946 19.3951 21.3944 19.1984 21.394C18.9859 21.3938 18.7734 21.3944 18.5609 21.3949C18.145 21.3957 17.7291 21.3957 17.3132 21.3955C16.9751 21.3953 16.6369 21.3953 16.2988 21.3956C16.2265 21.3956 16.2265 21.3956 16.1528 21.3957C16.055 21.3958 15.9571 21.3958 15.8592 21.3959C14.942 21.3965 14.0247 21.3963 13.1074 21.3958C12.2688 21.3953 11.4302 21.3959 10.5916 21.397C9.72985 21.3982 8.86813 21.3986 8.00641 21.3983C7.52286 21.3981 7.03932 21.3982 6.55578 21.3991C6.14415 21.3998 5.73253 21.3998 5.3209 21.399C5.11101 21.3986 4.90114 21.3985 4.69126 21.3992C4.49886 21.3998 4.30647 21.3996 4.11407 21.3987C4.04474 21.3985 3.97541 21.3987 3.90608 21.3992C3.16075 21.4041 2.62177 21.212 2.07425 20.704C1.60615 20.2094 1.48242 19.6461 1.46117 18.9847C1.45884 18.9252 1.45651 18.8657 1.45411 18.8044C1.4466 18.6074 1.44063 18.4104 1.43485 18.2134C1.43382 18.1795 1.43278 18.1455 1.43172 18.1105C1.41496 17.5561 1.40325 17.0017 1.39456 16.4472C1.39365 16.39 1.39365 16.39 1.39271 16.3317C1.35626 13.9957 1.47134 11.9458 2.37666 9.76064C2.58824 9.24928 2.76394 8.73245 2.92496 8.20306C2.94286 8.14426 2.94286 8.14426 2.96112 8.08427C3.02029 7.88938 3.07899 7.69436 3.13743 7.49925C3.2417 7.15168 3.35002 6.80537 3.45816 6.45899C3.49864 6.32932 3.53909 6.19964 3.57952 6.06995C3.58952 6.03787 3.59953 6.00578 3.60985 5.97272C3.67557 5.76163 3.74028 5.55024 3.80448 5.33868C3.84984 5.1895 3.89564 5.04046 3.9415 4.89143C3.96312 4.82082 3.98454 4.75016 4.00574 4.67943C4.23107 3.92822 4.51371 3.32657 5.18759 2.88934C5.81444 2.5807 6.39188 2.59821 7.07999 2.60068ZM5.82018 4.36214C5.68009 4.55252 5.61871 4.74582 5.54959 4.97034C5.53396 5.01913 5.51833 5.06792 5.50223 5.1182C5.44855 5.28685 5.3961 5.45586 5.34378 5.62494C5.32418 5.68778 5.30456 5.75061 5.28493 5.81343C5.13912 6.28021 4.99555 6.74767 4.85246 7.21529C4.79132 7.41498 4.73004 7.61463 4.66876 7.81427C4.59343 8.05977 4.5181 8.30526 4.44285 8.55078C4.28592 9.06268 4.12858 9.57445 3.9708 10.0861C3.93726 10.1949 3.90372 10.3036 3.87019 10.4124C3.6954 10.9794 3.6954 10.9794 3.61771 11.2311C3.56067 11.4159 3.50374 11.6007 3.44681 11.7855C3.42988 11.8403 3.41294 11.8951 3.39549 11.9516C3.38031 12.0009 3.36513 12.0502 3.34949 12.1011C3.33623 12.1441 3.32297 12.1871 3.3093 12.2314C3.27911 12.3188 3.27911 12.3188 3.28128 12.3749C3.32148 12.375 3.32148 12.375 3.36249 12.3751C4.01508 12.3769 4.66767 12.3797 5.32026 12.3836C5.63585 12.3854 5.95143 12.3869 6.26702 12.3876C6.57157 12.3883 6.8761 12.39 7.18064 12.3922C7.29685 12.3929 7.41306 12.3933 7.52927 12.3933C7.692 12.3934 7.85469 12.3947 8.01742 12.3962C8.0655 12.396 8.11358 12.3958 8.16312 12.3955C8.44126 12.3996 8.59999 12.4253 8.81253 12.6093C8.97492 12.8042 8.97315 12.9978 8.9722 13.2414C8.97271 13.2796 8.97322 13.3178 8.97374 13.3572C8.97534 13.479 8.97608 13.6008 8.9766 13.7226C8.97728 13.8825 8.97887 14.0424 8.98099 14.2023C8.98085 14.2384 8.98071 14.2744 8.98056 14.3116C8.98435 14.5905 9.02104 14.8969 9.20041 15.1217C9.48542 15.3806 9.83057 15.3889 10.1937 15.3878C10.2369 15.3881 10.2802 15.3883 10.3248 15.3885C10.4671 15.3892 10.6093 15.3891 10.7516 15.389C10.851 15.3892 10.9504 15.3894 11.0499 15.3896C11.258 15.39 11.4661 15.39 11.6742 15.3897C11.9402 15.3895 12.2062 15.3903 12.4722 15.3913C12.6775 15.392 12.8827 15.3921 13.088 15.3919C13.186 15.392 13.284 15.3922 13.3821 15.3927C13.5195 15.3933 13.6569 15.3929 13.7943 15.3924C13.8343 15.3928 13.8744 15.3931 13.9156 15.3935C14.2024 15.391 14.515 15.3598 14.7467 15.1746C14.9978 14.8987 15.0133 14.5657 15.0129 14.2131C15.0138 14.1343 15.0148 14.0555 15.0158 13.9767C15.0168 13.8537 15.0176 13.7308 15.0179 13.6079C15.0183 13.4883 15.0199 13.3688 15.0216 13.2493C15.0214 13.2128 15.0212 13.1763 15.0209 13.1387C15.0253 12.8954 15.0703 12.753 15.2344 12.5624C15.4583 12.3757 15.7002 12.4012 15.9773 12.4015C16.0542 12.4008 16.0542 12.4008 16.1326 12.4001C16.3018 12.3987 16.4709 12.3983 16.6401 12.3978C16.7575 12.397 16.8749 12.3962 16.9922 12.3953C17.2695 12.3933 17.5467 12.3919 17.8239 12.3908C18.1706 12.3894 18.5173 12.3871 18.864 12.3847C19.4823 12.3807 20.1005 12.3775 20.7188 12.3749C20.4528 11.4478 20.1777 10.5241 19.8922 9.60282C19.8006 9.30725 19.7092 9.01161 19.618 8.71594C19.6075 8.68216 19.5971 8.64838 19.5863 8.61357C19.4289 8.10359 19.2739 7.5929 19.1204 7.08172C19.0865 6.96885 19.0525 6.856 19.0185 6.74315C19.0019 6.68795 19.0019 6.68795 18.9849 6.63164C18.9627 6.55801 18.9405 6.48438 18.9183 6.41075C18.8535 6.19545 18.7891 5.98004 18.7249 5.76453C18.685 5.63054 18.6446 5.49668 18.6041 5.36284C18.5855 5.30079 18.567 5.2387 18.5486 5.17655C18.3735 4.57064 18.3735 4.57064 17.9063 4.17181C17.6808 4.10731 17.4502 4.11814 17.2177 4.11836C17.1717 4.11822 17.1256 4.11808 17.0782 4.11793C16.9238 4.11753 16.7694 4.11746 16.615 4.11739C16.5043 4.11717 16.3937 4.11693 16.283 4.11668C15.951 4.116 15.6189 4.11572 15.2868 4.11549C15.1303 4.11537 14.9738 4.11519 14.8172 4.11502C14.2967 4.11445 13.7762 4.11396 13.2557 4.1138C13.2224 4.11379 13.1891 4.11378 13.1548 4.11377C13.1215 4.11376 13.0881 4.11375 13.0537 4.11374C12.9861 4.11372 12.9185 4.1137 12.8509 4.11368C12.8173 4.11367 12.7838 4.11366 12.7492 4.11365C12.2059 4.11346 11.6625 4.11264 11.1192 4.11155C10.5609 4.11044 10.0027 4.10986 9.44443 4.1098C9.13115 4.10976 8.81788 4.10948 8.50461 4.10864C8.20989 4.10787 7.91518 4.10777 7.62047 4.10818C7.5124 4.10821 7.40433 4.10801 7.29627 4.10755C7.14852 4.10695 7.00081 4.10722 6.85306 4.10771C6.81049 4.10734 6.76793 4.10696 6.72407 4.10657C6.39097 4.10914 6.09361 4.16356 5.82018 4.36214ZM3.00003 13.8749C2.99594 14.7977 2.99594 14.7977 2.99317 15.7206C2.99233 16.0971 2.99136 16.4736 2.98942 16.8501C2.98789 17.1537 2.98705 17.4573 2.98669 17.761C2.98643 17.8767 2.98592 17.9924 2.98516 18.1081C2.98414 18.2704 2.984 18.4328 2.98407 18.5951C2.98356 18.6427 2.98306 18.6903 2.98254 18.7393C2.98385 19.0443 3.00157 19.3735 3.20043 19.6213C3.54252 19.9342 3.98073 19.8884 4.41306 19.8872C4.4811 19.8873 4.54914 19.8875 4.61718 19.8877C4.80375 19.8882 4.99032 19.8881 5.17689 19.8879C5.37826 19.8878 5.57964 19.8882 5.78101 19.8885C6.17536 19.8891 6.56972 19.8892 6.96407 19.8891C7.28463 19.889 7.60518 19.8891 7.92574 19.8893C7.97137 19.8893 8.017 19.8894 8.06401 19.8894C8.1567 19.8895 8.24939 19.8895 8.34208 19.8896C9.21132 19.8901 10.0806 19.89 10.9498 19.8897C11.7449 19.8894 12.54 19.89 13.335 19.8909C14.1516 19.8918 14.9681 19.8922 15.7846 19.892C16.243 19.8919 16.7014 19.892 17.1597 19.8927C17.5499 19.8932 17.9401 19.8933 18.3304 19.8927C18.5294 19.8925 18.7284 19.8924 18.9275 19.893C19.1098 19.8935 19.2921 19.8933 19.4745 19.8927C19.5403 19.8925 19.6061 19.8927 19.672 19.893C20.2411 19.9056 20.2411 19.9056 20.7458 19.6746C21.0283 19.3684 21.0134 18.9958 21.0107 18.6058C21.0107 18.5289 21.0107 18.5289 21.0107 18.4504C21.0107 18.2818 21.0099 18.1131 21.0092 17.9445C21.009 17.8272 21.0089 17.71 21.0088 17.5927C21.0085 17.3162 21.0077 17.0396 21.0068 16.7631C21.0054 16.3617 21.005 15.9604 21.0044 15.5591C21.0035 14.9977 21.0017 14.4363 21 13.8749C19.515 13.8749 18.03 13.8749 16.5 13.8749C16.4846 14.2771 16.4691 14.6793 16.4532 15.0937C16.2225 15.7855 15.9304 16.2938 15.2754 16.6347C14.9099 16.8107 14.592 16.842 14.1913 16.8417C14.113 16.8422 14.113 16.8422 14.0332 16.8426C13.8611 16.8435 13.6891 16.8437 13.5171 16.8438C13.397 16.8441 13.2769 16.8444 13.1568 16.8448C12.9051 16.8453 12.6534 16.8455 12.4018 16.8454C12.1122 16.8454 11.8226 16.8464 11.5329 16.8479C11.253 16.8492 10.9731 16.8496 10.6931 16.8495C10.5747 16.8496 10.4562 16.85 10.3377 16.8508C10.1715 16.8517 10.0053 16.8514 9.83908 16.8508C9.76662 16.8516 9.76662 16.8516 9.6927 16.8524C9.08415 16.8472 8.58617 16.6303 8.14585 16.2139C7.49462 15.525 7.5373 14.8439 7.50003 13.8749C6.01503 13.8749 4.53003 13.8749 3.00003 13.8749Z" fill="black"/>
</g>
</svg>
