<svg width="17" height="17" viewBox="0 0 17 17" fill="none" xmlns="http://www.w3.org/2000/svg">
<path d="M3.06641 1.44866C2.47396 1.57887 1.95313 1.98903 1.67318 2.54567C1.45508 2.97861 1.46485 2.68239 1.46485 7.93304C1.46485 10.879 1.47787 12.7214 1.4974 12.7735C1.51368 12.8191 1.58204 12.9135 1.64714 12.9851C1.88803 13.252 2.27865 13.2683 2.59766 13.0274C2.68555 12.9623 3.22917 12.5326 3.80534 12.0769C4.38152 11.6212 4.86654 11.2436 4.87956 11.2371C4.89584 11.2306 4.91862 11.2892 4.93165 11.3673C4.96745 11.5821 5.10743 11.9467 5.22787 12.1323C5.44597 12.4741 5.70639 12.7052 6.08399 12.8907C6.47136 13.0828 6.49089 13.086 9.12435 13.086H11.5267L12.8516 14.1342C13.5807 14.7071 14.2285 15.2019 14.2904 15.228C14.5833 15.3484 14.974 15.2019 15.127 14.9122L15.2018 14.769V9.99684C15.2018 4.70713 15.2148 5.06845 14.9837 4.58994C14.8958 4.40439 14.8014 4.28069 14.6029 4.08538C14.2253 3.70778 13.8672 3.53851 13.3073 3.46689C13.1641 3.44736 13.151 3.43759 13.151 3.35947C13.1478 3.16416 13.0469 2.79957 12.9199 2.53916C12.6856 2.0639 12.2461 1.68304 11.7188 1.49098L11.5072 1.41611L7.38933 1.4096C3.9974 1.40634 3.23568 1.41285 3.06641 1.44866ZM9.22852 4.17002C9.31316 4.1928 9.41081 4.26116 9.50847 4.36207C9.69401 4.55087 9.74935 4.73968 9.69401 4.99358C9.6517 5.19541 9.42058 5.44606 9.22852 5.49814C9.02344 5.55348 5.52409 5.54371 5.36133 5.48837C5.18555 5.42327 5.0293 5.29632 4.9642 5.15309C4.78842 4.78525 4.92839 4.37835 5.28646 4.21233L5.45248 4.13421H7.2754C8.4961 4.13421 9.14063 4.14723 9.22852 4.17002ZM13.431 4.88291C13.5449 4.92848 13.7044 5.08147 13.7728 5.21168C13.8086 5.28655 13.8412 5.43304 13.8509 5.57301C13.8607 5.70322 13.8574 7.46103 13.8444 9.47926L13.8184 13.1511L12.9915 12.5001C12.5391 12.142 12.1224 11.823 12.0638 11.7905C11.9727 11.7384 11.7415 11.7351 9.3392 11.7188L6.71875 11.7026L6.58204 11.6147C6.43881 11.517 6.30209 11.3119 6.27279 11.1427L6.25326 11.0385L8.84766 11.0255C11.735 11.0157 11.5592 11.0287 12.0443 10.7846C12.3926 10.6088 12.7311 10.2638 12.9167 9.89593C13.151 9.42718 13.151 9.43694 13.151 6.98903V4.81129L13.2585 4.83408C13.3138 4.8471 13.3919 4.86989 13.431 4.88291ZM7.22006 6.95322C7.57487 7.0997 7.74415 7.51637 7.5879 7.86142C7.52605 8.0014 7.33399 8.18694 7.20378 8.23903C7.09961 8.27809 5.43295 8.27809 5.32878 8.23903C5.19857 8.18694 5.00652 8.0014 4.94467 7.86142C4.79167 7.52288 4.94467 7.12249 5.28972 6.96298C5.40691 6.90765 5.51107 6.90114 6.25977 6.90114C6.94662 6.90114 7.11915 6.9109 7.22006 6.95322ZM9.41407 7.01832C9.80795 7.29502 9.80795 7.8777 9.41407 8.15439C9.28386 8.24228 9.24805 8.25205 9.02019 8.25205C8.79558 8.25205 8.75326 8.24228 8.63282 8.15765C8.29102 7.92327 8.23894 7.41871 8.52214 7.11598C8.74675 6.87835 9.1504 6.83278 9.41407 7.01832Z" fill="white"/>
</svg>
