<svg width="13" height="13" viewBox="0 0 13 13" fill="none" xmlns="http://www.w3.org/2000/svg">
<g clip-path="url(#clip0_219_587)">
<path d="M6.49045 -0.0079646C6.51629 -0.00790988 6.54214 -0.00785516 6.56877 -0.00779878C6.9397 -0.00653761 7.3036 -0.000167191 7.66794 0.0761418C7.69269 0.0811864 7.71744 0.0862309 7.74294 0.0914283C8.96284 0.346608 10.085 0.894959 10.9814 1.76708C11.0338 1.81609 11.0904 1.85952 11.1465 1.90427C11.1743 1.93358 11.2014 1.96374 11.2274 1.99472C11.2772 2.05337 11.3274 2.11077 11.3804 2.1666C12.2776 3.11324 12.81 4.40541 12.9746 5.68747C12.9768 5.70441 12.979 5.72135 12.9813 5.73881C12.999 5.88395 13.0044 6.02713 13.0051 6.17326C13.0053 6.19729 13.0055 6.22132 13.0057 6.24608C13.0115 7.24941 13.0115 7.24941 12.9238 7.66794C12.9162 7.70507 12.9162 7.70507 12.9085 7.74295C12.6584 8.93881 12.1255 10.0333 11.2863 10.9251C11.2413 10.9739 11.1987 11.0225 11.1568 11.0739C11.1077 11.1321 11.0617 11.1804 11.0036 11.229C10.9455 11.2783 10.8887 11.3278 10.8334 11.3803C9.8868 12.2776 8.59457 12.81 7.31247 12.9746C7.29554 12.9768 7.27861 12.979 7.26117 12.9813C7.11572 12.999 6.97222 13.0044 6.82578 13.0051C6.80151 13.0053 6.77723 13.0054 6.75222 13.0056C6.70094 13.0058 6.64967 13.006 6.59839 13.0061C6.52195 13.0063 6.44553 13.0071 6.3691 13.0079C6.02591 13.0098 5.69575 12.9806 5.35739 12.9238C5.32854 12.919 5.29968 12.9142 5.26996 12.9093C5.20403 12.8975 5.13873 12.8843 5.07333 12.8698C5.03807 12.862 5.03807 12.862 5.00209 12.8541C3.90523 12.5991 2.89401 12.0571 2.07486 11.2863C2.02606 11.2413 1.97747 11.1988 1.92619 11.1569C1.8674 11.1074 1.8185 11.0606 1.76938 11.002C1.70445 10.9256 1.63775 10.8517 1.56943 10.7783C0.822793 9.94687 0.339916 8.90218 0.10788 7.81552C0.102831 7.79204 0.0977829 7.76856 0.0925813 7.74436C0.00899851 7.33287 -0.00955922 6.9283 -0.00796462 6.50949C-0.0079099 6.48364 -0.00785518 6.45778 -0.0077988 6.43115C-0.006537 6.05989 0.00122394 5.69683 0.0761418 5.332C0.0811863 5.30629 0.0862309 5.28058 0.0914283 5.25409C0.334578 4.03817 0.900641 2.90914 1.76708 2.01853C1.81609 1.96613 1.85952 1.90953 1.90427 1.85349C1.93358 1.8256 1.96374 1.79858 1.99472 1.77255C2.05337 1.72269 2.11077 1.67254 2.1666 1.61951C2.99049 0.838653 4.08417 0.342818 5.18442 0.10788C5.2079 0.102832 5.23138 0.0977829 5.25557 0.0925813C5.66707 0.00899853 6.07164 -0.00955935 6.49045 -0.0079646ZM5.93979 3.65463C5.83868 3.81445 5.7861 3.95012 5.81442 4.13864C5.87088 4.33004 6.00882 4.4593 6.1807 4.55312C6.38457 4.64349 6.56534 4.64955 6.77421 4.57118C6.94887 4.48896 7.08554 4.36998 7.16013 4.18942C7.2031 4.02179 7.19086 3.88481 7.10934 3.73239C7.02431 3.58953 6.86142 3.48887 6.70468 3.43673C6.42323 3.38822 6.13952 3.43344 5.93979 3.65463ZM5.89816 5.65411C5.83016 5.77534 5.84486 5.91255 5.8467 6.04801C5.84656 6.08151 5.84641 6.11501 5.84626 6.14953C5.84589 6.24103 5.84647 6.3325 5.84725 6.42399C5.84792 6.5199 5.84778 6.6158 5.84775 6.71171C5.84783 6.87269 5.84849 7.03366 5.84953 7.19463C5.85073 7.38062 5.85113 7.56659 5.85107 7.75258C5.85102 7.95085 5.85155 8.14911 5.85225 8.34738C5.85241 8.40442 5.85246 8.46145 5.85249 8.51849C5.85258 8.6248 5.85333 8.7311 5.85414 8.83741C5.8541 8.86896 5.85407 8.90051 5.85403 8.93302C5.85436 8.962 5.85468 8.99097 5.85502 9.02082C5.85515 9.04594 5.85527 9.07105 5.85541 9.09693C5.86965 9.19733 5.90981 9.26689 5.98789 9.33132C6.01278 9.3461 6.01278 9.3461 6.03818 9.36118C6.05458 9.37122 6.07097 9.38127 6.08787 9.39163C6.2979 9.49646 6.53286 9.50449 6.76012 9.45143C6.91096 9.39945 7.03243 9.34288 7.12457 9.20816C7.17731 9.07026 7.17093 8.93912 7.17038 8.79266C7.17056 8.7602 7.17073 8.72773 7.17091 8.69428C7.17137 8.60552 7.17134 8.51676 7.17119 8.428C7.17112 8.35379 7.17127 8.27959 7.17142 8.20539C7.17178 8.0303 7.17174 7.85522 7.17145 7.68014C7.17116 7.4997 7.17152 7.31928 7.1722 7.13885C7.17276 6.98372 7.17293 6.82859 7.17278 6.67346C7.17269 6.5809 7.17276 6.48835 7.17319 6.39579C7.17366 6.29258 7.1733 6.18939 7.17286 6.08618C7.17323 6.04035 7.17323 6.04035 7.17361 5.9936C7.17181 5.79054 7.14631 5.70163 7.00461 5.55576C6.68351 5.35332 6.15406 5.3468 5.89816 5.65411Z" fill="#606266"/>
</g>
<defs>
<clipPath id="clip0_219_587">
<rect width="13" height="13" fill="white"/>
</clipPath>
</defs>
</svg>
