<svg width="11" height="9" viewBox="0 0 11 9" fill="none" xmlns="http://www.w3.org/2000/svg">
<path d="M6.92005 0.271608C6.9374 0.276791 6.95475 0.281974 6.97263 0.287315C7.65492 0.494742 8.28789 0.842961 8.8043 1.33685C8.82441 1.35608 8.84463 1.37521 8.86493 1.39424C9.4035 1.90039 9.75298 2.56611 9.92787 3.27942C9.93206 3.29643 9.93625 3.31345 9.94057 3.33098C10.0642 3.86003 10.0544 4.47104 9.92787 4.99817C9.92431 5.01367 9.92076 5.02918 9.9171 5.04515C9.75133 5.75414 9.36658 6.34884 8.87318 6.87317C8.86115 6.88604 8.84911 6.8989 8.83671 6.91216C8.49713 7.26393 8.06204 7.52507 7.62318 7.73254C7.61109 7.73833 7.599 7.74411 7.58655 7.75007C6.48493 8.27249 5.17537 8.36471 3.98304 8.18421C3.962 8.18104 3.94096 8.17787 3.91928 8.1746C3.81964 8.15877 3.72262 8.14013 3.6253 8.1134C3.45301 8.05979 3.45301 8.05979 3.28503 8.09563C3.23964 8.1382 3.19949 8.18256 3.1593 8.22997C3.10648 8.2858 3.04317 8.32707 2.97963 8.36975C2.96624 8.37876 2.95286 8.38777 2.93907 8.39705C2.48252 8.69901 1.97933 8.8507 1.43101 8.84773C1.41135 8.84771 1.39168 8.84768 1.37142 8.84765C1.30934 8.84754 1.24727 8.8473 1.18519 8.84705C1.1428 8.84695 1.1004 8.84686 1.05801 8.84678C0.954732 8.84657 0.851456 8.84624 0.74818 8.84583C0.78599 8.76279 0.843641 8.70808 0.908779 8.64578C0.933672 8.62148 0.958556 8.59717 0.983432 8.57285C1.02236 8.53499 1.06136 8.49722 1.10054 8.45963C1.44237 8.1308 1.62886 7.78826 1.72474 7.32239C1.71102 7.31771 1.6973 7.31302 1.68316 7.3082C1.01019 7.00971 0.463149 6.18804 0.204891 5.52355C0.0857625 5.20343 0.00409182 4.86376 0.00202497 4.5211C0.00181814 4.49823 0.00181814 4.49823 0.00160714 4.47489C-0.00278943 3.84595 -0.00278942 3.84595 0.064586 3.57239C0.0684664 3.55583 0.0723468 3.53926 0.0763448 3.5222C0.23002 2.87653 0.528399 2.27797 0.963024 1.77551C0.975889 1.76048 0.988754 1.74545 1.00201 1.72997C1.22153 1.47974 1.45657 1.25007 1.72474 1.05286C1.74634 1.03654 1.76793 1.02021 1.78952 1.00388C3.21838 -0.0621954 5.24459 -0.231615 6.92005 0.271608Z" fill="white"/>
</svg>
