<svg width="24" height="24" viewBox="0 0 24 24" fill="none" xmlns="http://www.w3.org/2000/svg">
<g clip-path="url(#clip0_112_1133)">
<path d="M9.20315 9.2332C9.74442 9.68687 10.1353 10.2495 10.3594 10.9217C10.3863 10.9217 10.4132 10.9218 10.441 10.9218C12.0376 10.9246 13.6343 10.928 15.2309 10.9324C15.4227 10.9329 15.6144 10.9335 15.8062 10.934C15.8634 10.9341 15.8634 10.9341 15.9218 10.9343C16.5398 10.936 17.1578 10.9371 17.7757 10.9381C18.4099 10.9391 19.044 10.9407 19.6782 10.9427C20.0694 10.944 20.4607 10.9448 20.8519 10.9451C21.1203 10.9453 21.3886 10.9461 21.657 10.9473C21.8118 10.9479 21.9666 10.9483 22.1214 10.9482C22.2894 10.9481 22.4573 10.9489 22.6253 10.9499C22.674 10.9496 22.7227 10.9494 22.7729 10.9492C23.1732 10.9531 23.4912 11.0333 23.7901 11.3132C24.0122 11.561 24.0257 11.8226 24.0161 12.1435C23.978 12.4685 23.8238 12.6698 23.5816 12.8798C23.284 13.0558 22.9662 13.0447 22.6309 13.0441C22.5521 13.0445 22.5521 13.0445 22.4717 13.0449C22.2959 13.0457 22.1201 13.0459 21.9443 13.046C21.8181 13.0464 21.692 13.0469 21.5659 13.0474C21.2945 13.0485 21.023 13.0492 20.7516 13.0497C20.3592 13.0503 19.9667 13.0515 19.5743 13.0529C18.9375 13.055 18.3008 13.0567 17.6641 13.0582C17.0456 13.0596 16.4272 13.0612 15.8087 13.0631C15.7706 13.0632 15.7325 13.0633 15.6932 13.0634C15.5018 13.064 15.3105 13.0646 15.1192 13.0652C13.5326 13.07 11.946 13.0742 10.3594 13.0779C10.3409 13.1224 10.3224 13.1669 10.3034 13.2127C10.2785 13.272 10.2535 13.3312 10.2286 13.3905C10.2165 13.4197 10.2044 13.4489 10.192 13.479C10.0778 13.749 9.93203 13.9747 9.74998 14.2029C9.72212 14.2385 9.69426 14.274 9.66556 14.3106C9.11261 14.9746 8.31212 15.4173 7.4531 15.5154C6.46505 15.586 5.58351 15.3674 4.78123 14.7654C4.23758 14.292 3.85048 13.7256 3.65623 13.0311C3.62182 13.0314 3.58742 13.0317 3.55198 13.032C3.2265 13.0348 2.90103 13.037 2.57554 13.0383C2.40824 13.0391 2.24094 13.0401 2.07365 13.0417C1.91195 13.0432 1.75027 13.044 1.58857 13.0444C1.49738 13.0448 1.4062 13.0459 1.31502 13.047C0.875788 13.0471 0.540054 12.9956 0.209815 12.6865C-0.012227 12.4386 -0.0257537 12.177 -0.0161374 11.8561C0.0219399 11.5311 0.17614 11.3298 0.418372 11.1198C0.750461 10.9234 1.11775 10.9564 1.491 10.9594C1.55359 10.9596 1.61618 10.9597 1.67877 10.9598C1.84252 10.9602 2.00627 10.9611 2.17002 10.9621C2.33751 10.9631 2.505 10.9635 2.67249 10.964C3.00041 10.965 3.32832 10.9666 3.65623 10.9686C3.66548 10.9366 3.67473 10.9046 3.68426 10.8716C3.70279 10.8085 3.70279 10.8085 3.72169 10.7441C3.73384 10.7025 3.74599 10.6608 3.75851 10.6179C4.00092 9.8713 4.69404 9.22893 5.36826 8.8698C6.62686 8.24646 8.08886 8.34904 9.20315 9.2332ZM5.85935 11.0623C5.57208 11.4393 5.47693 11.8089 5.53123 12.2811C5.64544 12.7114 5.86019 13.0468 6.24314 13.2814C6.64262 13.4877 7.08738 13.5374 7.5192 13.4033C7.94174 13.2062 8.23106 12.9233 8.4036 12.4878C8.52249 12.0913 8.50286 11.7257 8.34373 11.3436C8.15514 11.005 7.82912 10.7089 7.46427 10.5688C6.81954 10.4327 6.30161 10.5863 5.85935 11.0623Z" fill="#A7A7A7"/>
<path d="M16.9806 16.4852C17.0301 16.4844 17.0795 16.4837 17.1305 16.4829C17.6325 16.4826 18.0832 16.5847 18.5274 16.8192C18.5594 16.8356 18.5913 16.852 18.6242 16.869C18.8563 16.9909 19.0654 17.1271 19.2657 17.2967C19.3339 17.346 19.3339 17.346 19.4034 17.3963C19.8419 17.7717 20.2405 18.4145 20.3439 18.9842C20.3794 18.9838 20.415 18.9834 20.4517 18.983C20.7882 18.9792 21.1247 18.9763 21.4612 18.9745C21.6342 18.9735 21.8072 18.9722 21.9801 18.9701C22.1473 18.968 22.3144 18.9669 22.4816 18.9664C22.5759 18.9659 22.6702 18.9645 22.7645 18.963C23.1807 18.9629 23.4329 19.0094 23.7569 19.2831C23.9909 19.5637 24.0263 19.7869 24.016 20.1471C23.9883 20.4071 23.9149 20.5779 23.7216 20.7552C23.4827 20.9418 23.3159 21.0058 23.0099 21.0052C22.9508 21.0052 22.8917 21.0052 22.8308 21.0052C22.7663 21.0049 22.7018 21.0047 22.6372 21.0044C22.5712 21.0043 22.5052 21.0043 22.4392 21.0042C22.2656 21.004 22.092 21.0036 21.9184 21.0031C21.7412 21.0026 21.5639 21.0024 21.3867 21.0021C21.0391 21.0016 20.6915 21.0008 20.3439 20.9998C20.3376 21.035 20.3313 21.0702 20.3249 21.1065C20.1404 21.9504 19.457 22.6243 18.7589 23.0741C17.8964 23.5669 16.9339 23.649 15.9845 23.3905C15.5241 23.2479 15.1409 23.0401 14.7657 22.7342C14.7367 22.7133 14.7076 22.6924 14.6777 22.6709C14.1638 22.2822 13.8109 21.6055 13.6407 20.9998C13.6135 20.9999 13.5863 21 13.5582 21.0001C11.9439 21.0043 10.3297 21.0075 8.71539 21.0094C8.52154 21.0097 8.32769 21.0099 8.13383 21.0101C8.09524 21.0102 8.05665 21.0102 8.01688 21.0103C7.3921 21.0111 6.76733 21.0126 6.14255 21.0143C5.50141 21.0161 4.86027 21.0171 4.21912 21.0175C3.82354 21.0177 3.42798 21.0186 3.0324 21.0201C2.76109 21.0211 2.48978 21.0214 2.21847 21.0211C2.06196 21.021 1.90548 21.0213 1.74897 21.0222C1.57913 21.0231 1.40933 21.0229 1.23948 21.0224C1.19023 21.0229 1.14099 21.0235 1.09025 21.0241C0.74891 21.0213 0.480129 20.9625 0.231731 20.717C0.199736 20.6699 0.199736 20.6699 0.167095 20.6219C0.133831 20.5747 0.133831 20.5747 0.0998949 20.5265C-0.0513914 20.2716 -0.0284217 19.9733 0.000102416 19.6873C0.0925092 19.3911 0.254646 19.2219 0.521953 19.0721C0.676911 18.9995 0.799822 18.9783 0.968723 18.9777C1.01391 18.9775 1.05909 18.9772 1.10564 18.9769C1.18026 18.9769 1.18026 18.9769 1.25639 18.9768C1.33553 18.9765 1.33553 18.9765 1.41627 18.9761C1.59397 18.9754 1.77168 18.975 1.94939 18.9746C2.07641 18.9742 2.20343 18.9737 2.33045 18.9732C2.60438 18.9722 2.87832 18.9713 3.15226 18.9706C3.54833 18.9695 3.9444 18.9682 4.34047 18.9668C4.98304 18.9646 5.62561 18.9626 6.26818 18.9607C6.89245 18.9588 7.51672 18.9569 8.14098 18.9548C8.19868 18.9546 8.19868 18.9546 8.25755 18.9544C8.45053 18.9538 8.6435 18.9531 8.83648 18.9525C10.4379 18.9471 12.0393 18.9421 13.6407 18.9373C13.6623 18.8864 13.6839 18.8355 13.7061 18.7831C13.7352 18.7153 13.7643 18.6475 13.7934 18.5797C13.8076 18.5463 13.8217 18.5129 13.8362 18.4784C14.1759 17.6915 14.8145 17.106 15.5864 16.7527C16.0623 16.5645 16.4707 16.4837 16.9806 16.4852ZM15.8222 19.0811C15.5714 19.3962 15.5033 19.7593 15.5157 20.1561C15.5744 20.5421 15.752 20.8886 16.0502 21.1427C16.4539 21.4365 16.8002 21.5143 17.297 21.4686C17.6605 21.387 17.9457 21.1862 18.1876 20.9061C18.4361 20.5059 18.5076 20.1565 18.4689 19.6873C18.4274 19.5313 18.3651 19.4031 18.2814 19.2655C18.262 19.2327 18.2427 19.2 18.2228 19.1662C18.0111 18.8475 17.7 18.6463 17.3321 18.5448C16.7253 18.4436 16.24 18.6376 15.8222 19.0811Z" fill="#A7A7A7"/>
<path d="M19.1718 1.2189C19.2108 1.24966 19.2497 1.28041 19.2899 1.3121C19.7789 1.72302 20.1219 2.26298 20.3437 2.85953C20.3437 2.90593 20.3437 2.95234 20.3437 3.00015C20.3798 2.99974 20.416 2.99932 20.4532 2.99889C20.7953 2.99512 21.1373 2.99227 21.4793 2.99044C21.6552 2.98946 21.831 2.98814 22.0068 2.98601C22.1767 2.98396 22.3466 2.98285 22.5165 2.98236C22.5811 2.98202 22.6456 2.98135 22.7102 2.98033C23.0824 2.9747 23.3558 2.9812 23.6718 3.18765C23.7683 3.28305 23.7683 3.28305 23.8329 3.37808C23.8551 3.40956 23.8773 3.44104 23.9001 3.47348C24.0514 3.72842 24.0284 4.02675 23.9999 4.31265C23.9075 4.60887 23.7454 4.77811 23.4781 4.92789C23.3004 5.01114 23.1612 5.02149 22.9672 5.0211C22.909 5.0211 22.8508 5.02109 22.7909 5.02109C22.7274 5.02085 22.6639 5.0206 22.6004 5.02035C22.5355 5.02027 22.4705 5.0202 22.4056 5.02015C22.2347 5.01997 22.0639 5.01951 21.893 5.019C21.7186 5.01852 21.5443 5.0183 21.3699 5.01807C21.0278 5.01756 20.6857 5.01676 20.3437 5.01578C20.3343 5.04785 20.325 5.07992 20.3154 5.11296C20.303 5.15509 20.2906 5.19722 20.2779 5.24063C20.2656 5.28237 20.2534 5.32411 20.2409 5.36711C20.0023 6.10758 19.3776 6.73996 18.7019 7.09335C17.8819 7.50455 16.9501 7.66846 16.0458 7.42691C15.5148 7.24124 15.0435 6.98751 14.6249 6.60953C14.5803 6.56983 14.5803 6.56983 14.5348 6.52933C14.1967 6.21067 13.9747 5.84566 13.7943 5.42136C13.7794 5.38676 13.7645 5.35217 13.7492 5.31652C13.7128 5.23198 13.6766 5.14733 13.6405 5.06265C13.6134 5.06262 13.5863 5.0626 13.5583 5.06257C11.9499 5.06088 10.3415 5.05823 8.73311 5.05431C8.53996 5.05384 8.34681 5.05338 8.15366 5.05292C8.11521 5.05283 8.07675 5.05274 8.03714 5.05265C7.41463 5.0512 6.79213 5.0504 6.16963 5.04985C5.53081 5.04926 4.892 5.04797 4.25319 5.04603C3.85905 5.04485 3.46492 5.04422 3.07078 5.0443C2.80046 5.04431 2.53013 5.04362 2.25981 5.04239C2.10387 5.04171 1.94796 5.04143 1.79202 5.04176C1.62279 5.04207 1.4536 5.04123 1.28438 5.0401C1.23531 5.04047 1.18625 5.04083 1.1357 5.04121C0.768275 5.03689 0.524056 4.95423 0.243069 4.71695C0.00915489 4.43625 -0.0262703 4.21309 -0.0160254 3.85287C0.0116587 3.5929 0.0851504 3.4221 0.278408 3.24478C0.490155 3.07944 0.649691 2.99426 0.922383 2.99438C0.967729 2.99429 1.01308 2.9942 1.0598 2.9941C1.10973 2.99424 1.15965 2.99437 1.2111 2.99452C1.29052 2.99446 1.29053 2.99446 1.37156 2.99439C1.54991 2.99432 1.72826 2.99458 1.90662 2.99483C2.0341 2.99487 2.16158 2.99484 2.28906 2.99481C2.564 2.99479 2.83893 2.99493 3.11387 2.9952C3.51138 2.99558 3.9089 2.9957 4.30641 2.99576C4.95132 2.99586 5.59623 2.99617 6.24113 2.99662C6.86768 2.99705 7.49422 2.99738 8.12076 2.99758C8.15937 2.99759 8.19797 2.9976 8.23775 2.99761C8.43143 2.99768 8.62511 2.99774 8.81878 2.99779C10.426 2.99828 12.0333 2.99911 13.6405 3.00015C13.6501 2.97112 13.6597 2.94208 13.6696 2.91217C13.6822 2.87412 13.6948 2.83606 13.7078 2.79686C13.7203 2.75912 13.7328 2.72139 13.7457 2.68251C14.0189 1.88025 14.6349 1.24189 15.3806 0.860016C16.643 0.270764 18.0557 0.3242 19.1718 1.2189ZM16.2655 2.7189C16.2328 2.73824 16.2 2.75757 16.1663 2.7775C15.8526 2.98581 15.6545 3.29272 15.5419 3.65054C15.4666 4.03963 15.5301 4.42269 15.723 4.76639C15.9779 5.14211 16.2812 5.37676 16.729 5.46402C17.1922 5.52096 17.568 5.42097 17.9479 5.15018C18.255 4.87838 18.4436 4.54536 18.4802 4.13705C18.4991 3.68741 18.396 3.35827 18.1112 3.00894C17.8667 2.74975 17.5249 2.55068 17.1646 2.52023C16.818 2.51245 16.5634 2.53766 16.2655 2.7189Z" fill="#A7A7A7"/>
</g>
<defs>
<clipPath id="clip0_112_1133">
<rect width="24" height="24" fill="white"/>
</clipPath>
</defs>
</svg>
