<svg width="22" height="22" viewBox="0 0 22 22" fill="none" xmlns="http://www.w3.org/2000/svg">
<g clip-path="url(#clip0_112_1125)">
<path d="M5.43293 0.664806C5.59755 0.665199 5.76216 0.664593 5.92677 0.664122C6.24829 0.663362 6.56979 0.663521 6.89131 0.664021C7.15285 0.664411 7.4144 0.664461 7.67594 0.664275C7.71332 0.664249 7.75069 0.664222 7.7892 0.664195C7.86515 0.66414 7.9411 0.664084 8.01705 0.664028C8.72748 0.663539 9.4379 0.664099 10.1483 0.665025C10.7565 0.665793 11.3647 0.665659 11.9729 0.664867C12.6809 0.663945 13.389 0.663586 14.0971 0.664113C14.1727 0.664168 14.2484 0.664222 14.324 0.664275C14.3612 0.664301 14.3985 0.664328 14.4368 0.664355C14.6977 0.664503 14.9586 0.664255 15.2195 0.663849C15.538 0.663364 15.8564 0.663502 16.1748 0.664413C16.3369 0.664861 16.4991 0.665047 16.6612 0.664473C18.0637 0.659917 19.1734 0.924378 20.1953 1.93337C21.0287 2.76534 21.3334 3.83555 21.3358 4.98065C21.3354 5.07911 21.3351 5.17757 21.3347 5.27603C21.335 5.38164 21.3353 5.48724 21.3356 5.59284C21.3363 5.84818 21.3362 6.10351 21.3357 6.35885C21.3354 6.56665 21.3353 6.77444 21.3355 6.98223C21.3355 7.01197 21.3355 7.04172 21.3356 7.07236C21.3356 7.13281 21.3357 7.19326 21.3357 7.25371C21.3362 7.81856 21.3357 8.38341 21.3347 8.94826C21.334 9.43137 21.3341 9.91447 21.3349 10.3976C21.3358 10.9606 21.3362 11.5237 21.3356 12.0867C21.3356 12.1469 21.3355 12.2071 21.3355 12.2673C21.3354 12.3117 21.3354 12.3117 21.3354 12.3571C21.3353 12.5642 21.3355 12.7714 21.3359 12.9786C21.3364 13.2582 21.3361 13.5378 21.3351 13.8175C21.3348 13.9196 21.3349 14.0217 21.3353 14.1238C21.3396 15.4043 21.0294 16.4682 20.1094 17.4021C19.4127 18.0999 18.4533 18.5601 17.459 18.5769C17.2992 18.5768 17.1394 18.5747 16.9796 18.5713C16.8488 18.5688 16.7182 18.5677 16.5875 18.567C16.2164 18.5649 15.8454 18.5616 15.4744 18.5542C15.2459 18.5497 15.0176 18.5481 14.789 18.5481C14.7027 18.5476 14.6165 18.5461 14.5302 18.5435C14.0258 18.5166 14.0258 18.5166 13.586 18.7252C13.4722 18.839 13.3752 18.9613 13.2837 19.0934C13.2087 19.2005 13.1245 19.2997 13.041 19.4002C13.0104 19.4383 12.9799 19.4764 12.9484 19.5156C12.8125 19.6786 12.6679 19.8325 12.5229 19.9873C12.3889 20.1311 12.2617 20.278 12.1387 20.4314C11.9893 20.6168 11.8343 20.7954 11.6741 20.9712C11.6524 20.9953 11.6307 21.0194 11.6084 21.0442C11.4578 21.2077 11.359 21.3002 11.1373 21.3267C11.0937 21.3273 11.0502 21.3278 11.0054 21.3284C10.962 21.3296 10.9187 21.3308 10.8741 21.3321C10.6004 21.291 10.4342 21.0995 10.2561 20.9014C10.2357 20.8788 10.2153 20.8561 10.1942 20.8328C10.0322 20.6517 9.87947 20.4638 9.72721 20.2745C9.61161 20.1361 9.49038 20.0044 9.36717 19.8728C9.20955 19.7045 9.05795 19.5343 8.91332 19.3545C8.88387 19.3191 8.85443 19.2837 8.8241 19.2472C8.72264 19.1209 8.72264 19.1209 8.63241 18.9871C8.46994 18.7705 8.33359 18.6058 8.05671 18.5596C7.81978 18.5378 7.58348 18.545 7.34596 18.5515C7.25783 18.552 7.1697 18.5521 7.08157 18.5521C6.85024 18.5525 6.61905 18.5558 6.38775 18.5599C6.01866 18.566 5.64954 18.5678 5.2804 18.5693C5.15269 18.5703 5.02506 18.5726 4.89738 18.5751C3.77117 18.5905 2.78003 18.2382 1.94953 17.4595C1.09499 16.6177 0.674784 15.6005 0.664489 14.4093C0.664181 14.264 0.664703 14.1188 0.665246 13.9735C0.665013 13.8679 0.664706 13.7623 0.664333 13.6567C0.663635 13.4014 0.663732 13.146 0.664232 12.8907C0.664623 12.6829 0.664672 12.4751 0.664486 12.2673C0.66446 12.2376 0.664434 12.2078 0.664407 12.1772C0.664352 12.1167 0.664296 12.0563 0.664239 11.9958C0.663751 11.431 0.66431 10.8661 0.665236 10.3013C0.666004 9.81818 0.665871 9.33508 0.665078 8.85197C0.664155 8.28893 0.663798 7.72589 0.664324 7.16285C0.664379 7.10265 0.664433 7.04244 0.664486 6.98223C0.664513 6.95262 0.664539 6.92301 0.664567 6.8925C0.664714 6.68531 0.664467 6.47813 0.66406 6.27094C0.663523 5.99132 0.663914 5.71172 0.664901 5.4321C0.665127 5.33 0.665066 5.22789 0.664684 5.12579C0.66034 3.84529 0.970546 2.78134 1.89061 1.84743C2.89675 0.839611 4.07598 0.660003 5.43293 0.664806ZM10.4408 5.1367C10.3353 5.31994 10.2952 5.49071 10.2522 5.69616C10.2391 5.75529 10.2391 5.75529 10.2256 5.81562C10.1977 5.94119 10.1704 6.06689 10.1433 6.19265C9.79555 7.80213 9.79555 7.80213 9.06136 8.31121C8.7472 8.48233 8.419 8.58103 8.07073 8.65529C7.9891 8.67352 7.90747 8.69176 7.82584 8.71001C7.69906 8.7379 7.57225 8.76561 7.44539 8.79314C7.32162 8.82013 7.198 8.84779 7.07439 8.87551C7.01778 8.88747 7.01778 8.88747 6.96003 8.89967C6.68639 8.96146 6.49252 9.05244 6.30028 9.26491C6.20557 9.46161 6.1962 9.62501 6.23046 9.83962C6.33297 10.0525 6.45767 10.1527 6.66014 10.2693C6.79515 10.3141 6.93224 10.3434 7.07137 10.3725C7.1305 10.3857 7.1305 10.3857 7.19083 10.3992C7.3164 10.4271 7.4421 10.4544 7.56786 10.4815C9.17734 10.8292 9.17734 10.8292 9.68642 11.5634C9.85755 11.8776 9.95624 12.2058 10.0305 12.554C10.0487 12.6357 10.067 12.7173 10.0852 12.7989C10.1131 12.9257 10.1408 13.0525 10.1683 13.1794C10.1953 13.3031 10.223 13.4268 10.2507 13.5504C10.2587 13.5881 10.2667 13.6258 10.2749 13.6647C10.3367 13.9384 10.4277 14.1322 10.6401 14.3245C10.8368 14.4192 11.0002 14.4286 11.2148 14.3943C11.4277 14.2918 11.5279 14.1671 11.6445 13.9646C11.6893 13.8296 11.7186 13.6925 11.7477 13.5534C11.7565 13.514 11.7653 13.4745 11.7744 13.4339C11.8023 13.3084 11.8296 13.1827 11.8567 13.0569C12.2044 11.4474 12.2044 11.4474 12.9386 10.9383C13.2528 10.7672 13.581 10.6685 13.9292 10.5943C14.0109 10.576 14.0925 10.5578 14.1741 10.5395C14.3009 10.5116 14.4277 10.4839 14.5546 10.4564C14.6784 10.4294 14.802 10.4018 14.9256 10.374C14.9633 10.3661 15.0011 10.3581 15.0399 10.3499C15.3136 10.2881 15.5075 10.1971 15.6997 9.98464C15.7944 9.78794 15.8038 9.62454 15.7695 9.40993C15.667 9.19701 15.5423 9.09681 15.3398 8.98024C15.2048 8.93546 15.0677 8.90612 14.9286 8.87702C14.8892 8.86823 14.8498 8.85945 14.8091 8.8504C14.6836 8.82244 14.5579 8.79519 14.4321 8.76809C12.8226 8.42034 12.8226 8.42034 12.3136 7.68615C12.1424 7.37199 12.0437 7.04378 11.9695 6.69551C11.9512 6.61388 11.933 6.53225 11.9148 6.45063C11.8869 6.32385 11.8591 6.19704 11.8316 6.07018C11.8046 5.9464 11.777 5.82279 11.7493 5.69918C11.7373 5.64257 11.7373 5.64257 11.7251 5.58482C11.6633 5.31117 11.5723 5.1173 11.3598 4.92507C11.0056 4.75448 10.6855 4.82686 10.4408 5.1367Z" fill="#A7A7A7"/>
</g>
<defs>
<clipPath id="clip0_112_1125">
<rect width="22" height="22" fill="white"/>
</clipPath>
</defs>
</svg>
