<svg width="20" height="20" viewBox="0 0 20 20" fill="none" xmlns="http://www.w3.org/2000/svg">
<g clip-path="url(#clip0_226_789)">
<g clip-path="url(#clip1_226_789)">
<path d="M13.9569 7.41793V5.00517C13.9569 4.48534 13.7504 3.98681 13.3828 3.61924C13.0153 3.25167 12.5167 3.04517 11.9969 3.04517H2.80058C2.28075 3.04517 1.78222 3.25167 1.41465 3.61924C1.04708 3.98681 0.840576 4.48534 0.840576 5.00517V14.8052C0.840576 15.325 1.04708 15.8235 1.41465 16.1911C1.78222 16.5587 2.28075 16.7652 2.80058 16.7652H11.9969C12.5167 16.7652 13.0153 16.5587 13.3828 16.1911C13.7504 15.8235 13.9569 15.325 13.9569 14.8052V12.3924L17.04 14.0368C17.1893 14.1163 17.3566 14.1558 17.5256 14.1515C17.6947 14.1472 17.8598 14.0992 18.0048 14.0122C18.1498 13.9252 18.2698 13.8021 18.3532 13.655C18.4366 13.5078 18.4805 13.3416 18.4806 13.1725V6.63785C18.4805 6.46872 18.4366 6.30251 18.3532 6.15537C18.2698 6.00823 18.1498 5.88517 18.0048 5.79816C17.8598 5.71114 17.6947 5.66314 17.5256 5.65882C17.3566 5.6545 17.1893 5.694 17.04 5.77349L13.9569 7.41793Z" stroke="#606266" stroke-width="1.995" stroke-linecap="round" stroke-linejoin="round"/>
</g>
</g>
<defs>
<clipPath id="clip0_226_789">
<rect width="19.95" height="19.95" fill="white"/>
</clipPath>
<clipPath id="clip1_226_789">
<rect width="19.6" height="19.6" fill="white" transform="translate(-0.139648 0.10498)"/>
</clipPath>
</defs>
</svg>
