<svg width="24" height="24" viewBox="0 0 24 24" fill="none" xmlns="http://www.w3.org/2000/svg">
<g opacity="0.66">
<path fill-rule="evenodd" clip-rule="evenodd" d="M11.383 3.07892C11.009 2.92492 10.579 3.00992 10.293 3.29592L6 8.00192H3C2.45 8.00192 2 8.45292 2 9.00192V15.0019C2 15.5519 2.45 16.0019 3 16.0019H6L10.293 20.7099C10.579 20.9959 11.009 21.0819 11.383 20.9269C11.757 20.7719 12 20.4069 12 20.0019V4.00192C12 3.59892 11.757 3.23192 11.383 3.07892ZM14 5.00183V7.00183C16.757 7.00183 19 9.24583 19 12.0019C19 14.7589 16.757 17.0019 14 17.0019V19.0019C17.86 19.0019 21 15.8629 21 12.0019C21 8.14283 17.86 5.00183 14 5.00183ZM14 9.00183C15.654 9.00183 17 10.3489 17 12.0019C17 13.6569 15.654 15.0019 14 15.0019V13.0019C14.551 13.0019 15 12.5529 15 12.0019C15 11.4509 14.551 11.0019 14 11.0019V9.00183Z" fill="#FF0000" style="mix-blend-mode:saturation"/>
<path fill-rule="evenodd" clip-rule="evenodd" d="M11.383 3.07892C11.009 2.92492 10.579 3.00992 10.293 3.29592L6 8.00192H3C2.45 8.00192 2 8.45292 2 9.00192V15.0019C2 15.5519 2.45 16.0019 3 16.0019H6L10.293 20.7099C10.579 20.9959 11.009 21.0819 11.383 20.9269C11.757 20.7719 12 20.4069 12 20.0019V4.00192C12 3.59892 11.757 3.23192 11.383 3.07892ZM14 5.00183V7.00183C16.757 7.00183 19 9.24583 19 12.0019C19 14.7589 16.757 17.0019 14 17.0019V19.0019C17.86 19.0019 21 15.8629 21 12.0019C21 8.14283 17.86 5.00183 14 5.00183ZM14 9.00183C15.654 9.00183 17 10.3489 17 12.0019C17 13.6569 15.654 15.0019 14 15.0019V13.0019C14.551 13.0019 15 12.5529 15 12.0019C15 11.4509 14.551 11.0019 14 11.0019V9.00183Z" fill="white" style="mix-blend-mode:difference"/>
<path fill-rule="evenodd" clip-rule="evenodd" d="M11.383 3.07892C11.009 2.92492 10.579 3.00992 10.293 3.29592L6 8.00192H3C2.45 8.00192 2 8.45292 2 9.00192V15.0019C2 15.5519 2.45 16.0019 3 16.0019H6L10.293 20.7099C10.579 20.9959 11.009 21.0819 11.383 20.9269C11.757 20.7719 12 20.4069 12 20.0019V4.00192C12 3.59892 11.757 3.23192 11.383 3.07892ZM14 5.00183V7.00183C16.757 7.00183 19 9.24583 19 12.0019C19 14.7589 16.757 17.0019 14 17.0019V19.0019C17.86 19.0019 21 15.8629 21 12.0019C21 8.14283 17.86 5.00183 14 5.00183ZM14 9.00183C15.654 9.00183 17 10.3489 17 12.0019C17 13.6569 15.654 15.0019 14 15.0019V13.0019C14.551 13.0019 15 12.5529 15 12.0019C15 11.4509 14.551 11.0019 14 11.0019V9.00183Z" fill="white" style="mix-blend-mode:saturation"/>
<path fill-rule="evenodd" clip-rule="evenodd" d="M11.383 3.07892C11.009 2.92492 10.579 3.00992 10.293 3.29592L6 8.00192H3C2.45 8.00192 2 8.45292 2 9.00192V15.0019C2 15.5519 2.45 16.0019 3 16.0019H6L10.293 20.7099C10.579 20.9959 11.009 21.0819 11.383 20.9269C11.757 20.7719 12 20.4069 12 20.0019V4.00192C12 3.59892 11.757 3.23192 11.383 3.07892ZM14 5.00183V7.00183C16.757 7.00183 19 9.24583 19 12.0019C19 14.7589 16.757 17.0019 14 17.0019V19.0019C17.86 19.0019 21 15.8629 21 12.0019C21 8.14283 17.86 5.00183 14 5.00183ZM14 9.00183C15.654 9.00183 17 10.3489 17 12.0019C17 13.6569 15.654 15.0019 14 15.0019V13.0019C14.551 13.0019 15 12.5529 15 12.0019C15 11.4509 14.551 11.0019 14 11.0019V9.00183Z" fill="white" style="mix-blend-mode:overlay"/>
<path fill-rule="evenodd" clip-rule="evenodd" d="M11.383 3.07892C11.009 2.92492 10.579 3.00992 10.293 3.29592L6 8.00192H3C2.45 8.00192 2 8.45292 2 9.00192V15.0019C2 15.5519 2.45 16.0019 3 16.0019H6L10.293 20.7099C10.579 20.9959 11.009 21.0819 11.383 20.9269C11.757 20.7719 12 20.4069 12 20.0019V4.00192C12 3.59892 11.757 3.23192 11.383 3.07892ZM14 5.00183V7.00183C16.757 7.00183 19 9.24583 19 12.0019C19 14.7589 16.757 17.0019 14 17.0019V19.0019C17.86 19.0019 21 15.8629 21 12.0019C21 8.14283 17.86 5.00183 14 5.00183ZM14 9.00183C15.654 9.00183 17 10.3489 17 12.0019C17 13.6569 15.654 15.0019 14 15.0019V13.0019C14.551 13.0019 15 12.5529 15 12.0019C15 11.4509 14.551 11.0019 14 11.0019V9.00183Z" fill="black" style="mix-blend-mode:overlay"/>
<path fill-rule="evenodd" clip-rule="evenodd" d="M11.383 3.07892C11.009 2.92492 10.579 3.00992 10.293 3.29592L6 8.00192H3C2.45 8.00192 2 8.45292 2 9.00192V15.0019C2 15.5519 2.45 16.0019 3 16.0019H6L10.293 20.7099C10.579 20.9959 11.009 21.0819 11.383 20.9269C11.757 20.7719 12 20.4069 12 20.0019V4.00192C12 3.59892 11.757 3.23192 11.383 3.07892ZM14 5.00183V7.00183C16.757 7.00183 19 9.24583 19 12.0019C19 14.7589 16.757 17.0019 14 17.0019V19.0019C17.86 19.0019 21 15.8629 21 12.0019C21 8.14283 17.86 5.00183 14 5.00183ZM14 9.00183C15.654 9.00183 17 10.3489 17 12.0019C17 13.6569 15.654 15.0019 14 15.0019V13.0019C14.551 13.0019 15 12.5529 15 12.0019C15 11.4509 14.551 11.0019 14 11.0019V9.00183Z" fill="white" style="mix-blend-mode:overlay"/>
<path fill-rule="evenodd" clip-rule="evenodd" d="M11.383 3.07892C11.009 2.92492 10.579 3.00992 10.293 3.29592L6 8.00192H3C2.45 8.00192 2 8.45292 2 9.00192V15.0019C2 15.5519 2.45 16.0019 3 16.0019H6L10.293 20.7099C10.579 20.9959 11.009 21.0819 11.383 20.9269C11.757 20.7719 12 20.4069 12 20.0019V4.00192C12 3.59892 11.757 3.23192 11.383 3.07892ZM14 5.00183V7.00183C16.757 7.00183 19 9.24583 19 12.0019C19 14.7589 16.757 17.0019 14 17.0019V19.0019C17.86 19.0019 21 15.8629 21 12.0019C21 8.14283 17.86 5.00183 14 5.00183ZM14 9.00183C15.654 9.00183 17 10.3489 17 12.0019C17 13.6569 15.654 15.0019 14 15.0019V13.0019C14.551 13.0019 15 12.5529 15 12.0019C15 11.4509 14.551 11.0019 14 11.0019V9.00183Z" fill="black" style="mix-blend-mode:overlay"/>
</g>
</svg>
