<svg width="17" height="17" viewBox="0 0 17 17" fill="none" xmlns="http://www.w3.org/2000/svg">
<g clip-path="url(#clip0_212_1140)">
<path d="M7.94269 -0.0172677C7.97374 -0.0173923 8.0048 -0.0175169 8.03679 -0.0176452C8.10223 -0.0177335 8.16768 -0.0174952 8.23312 -0.0169498C8.333 -0.0162526 8.43282 -0.016944 8.5327 -0.0177763C8.59645 -0.0176903 8.6602 -0.0175234 8.72394 -0.0172677C8.76851 -0.0176631 8.76851 -0.0176631 8.81397 -0.0180664C8.99517 -0.0154132 9.10199 0.00792486 9.24478 0.130234C9.35947 0.282121 9.41186 0.392886 9.41072 0.582276C9.41061 0.612803 9.41051 0.64333 9.4104 0.674782C9.41012 0.706568 9.40985 0.738354 9.40957 0.771103C9.40942 0.803267 9.40928 0.83543 9.40913 0.868569C9.40874 0.94798 9.40821 1.02739 9.40754 1.1068C9.43758 1.11158 9.46763 1.11636 9.49858 1.12129C11.0824 1.38736 12.7181 2.29664 13.6759 3.60924C14.0666 4.15772 14.0666 4.15772 14.0706 4.40473C14.0715 4.43549 14.0723 4.46625 14.0732 4.49793C14.058 4.62866 14.0143 4.71195 13.9111 4.79677C13.8416 4.84593 13.7709 4.89261 13.6993 4.93879C13.6728 4.95634 13.6462 4.97389 13.6188 4.99197C13.5336 5.04815 13.4481 5.10385 13.3626 5.15953C13.2794 5.21414 13.1962 5.26885 13.1131 5.32357C13.0577 5.36001 13.0023 5.39639 12.9468 5.43272C12.7193 5.58208 12.4946 5.73543 12.2714 5.89119C12.2472 5.90791 12.2231 5.92463 12.1982 5.94186C12.177 5.95662 12.1559 5.97138 12.1341 5.98659C11.9944 6.07335 11.8452 6.07387 11.6862 6.05471C11.4531 5.93819 11.2857 5.72691 11.1267 5.52574C10.6865 4.98202 10.0821 4.55472 9.40754 4.362C9.40754 5.22138 9.40754 6.08075 9.40754 6.96617C9.59015 7.00914 9.77277 7.05211 9.96092 7.09638C11.4084 7.5084 12.8977 8.07726 13.6778 9.45243C14.1617 10.3565 14.1848 11.504 13.8936 12.4715C13.5456 13.5431 12.7816 14.364 11.7899 14.8801C11.6804 14.9354 11.5697 14.9878 11.4583 15.0391C11.4367 15.0491 11.4151 15.0591 11.3929 15.0694C10.793 15.3422 10.0719 15.5754 9.40754 15.5599C9.40822 15.5793 9.4089 15.5986 9.4096 15.6185C9.41234 15.7075 9.41401 15.7965 9.41567 15.8854C9.41677 15.9159 9.41786 15.9463 9.41898 15.9776C9.42183 16.1814 9.3959 16.3348 9.27733 16.5039C9.15729 16.6154 9.07673 16.6702 8.91421 16.673C8.88627 16.6735 8.85834 16.674 8.82956 16.6746C8.70141 16.676 8.57328 16.6773 8.44513 16.6781C8.37766 16.6786 8.31019 16.6795 8.24273 16.6808C8.14529 16.6825 8.0479 16.6833 7.95045 16.6837C7.9205 16.6845 7.89055 16.6852 7.85969 16.686C7.6498 16.6853 7.54734 16.6433 7.38931 16.5039C7.25757 16.3281 7.2805 16.1321 7.28555 15.9221C7.28599 15.8872 7.28643 15.8524 7.28688 15.8165C7.28803 15.731 7.28963 15.6455 7.29165 15.5599C7.25297 15.5554 7.25297 15.5554 7.21351 15.5509C5.71321 15.3681 4.05987 14.4301 3.13134 13.2463C3.10776 13.2149 3.08418 13.1834 3.05988 13.1511C3.04606 13.1327 3.03225 13.1143 3.01801 13.0953C2.59265 12.5248 2.59265 12.5248 2.58368 12.1651C2.6332 11.9516 2.82657 11.8293 2.99974 11.7159C3.02216 11.7008 3.04458 11.6858 3.06768 11.6703C3.14018 11.6217 3.21294 11.5736 3.28571 11.5255C3.33571 11.4921 3.38568 11.4588 3.43564 11.4253C3.51061 11.3752 3.58559 11.3251 3.66066 11.2751C3.80868 11.1765 3.95606 11.0771 4.10256 10.9763C4.13555 10.9536 4.16853 10.9309 4.20252 10.9076C4.26264 10.8661 4.32272 10.8246 4.38275 10.783C4.40908 10.7649 4.43541 10.7469 4.46254 10.7282C4.49621 10.7049 4.49621 10.7049 4.53057 10.6812C4.66156 10.6002 4.79834 10.5927 4.9479 10.612C5.20888 10.7265 5.37377 10.9312 5.55011 11.1491C5.84884 11.5175 6.19788 11.8032 6.60806 12.0402C6.62769 12.0518 6.64733 12.0635 6.66756 12.0754C6.8727 12.1897 7.05457 12.2318 7.29165 12.3047C7.29165 11.4453 7.29165 10.586 7.29165 9.70055C7.10903 9.65758 6.92642 9.61461 6.73827 9.57034C5.45794 9.22782 4.12008 8.73608 3.28775 7.64977C3.2676 7.624 3.24746 7.59824 3.22671 7.57169C2.63219 6.7728 2.52732 5.73637 2.65535 4.77542C2.82874 3.67956 3.44109 2.77006 4.32806 2.12224C5.03537 1.6179 5.86569 1.32521 6.71385 1.15969C6.74175 1.15423 6.76966 1.14876 6.7984 1.14313C6.9655 1.11267 7.12184 1.10171 7.29165 1.1068C7.29097 1.08531 7.29029 1.06382 7.28959 1.04168C7.28686 0.943358 7.28518 0.845039 7.28351 0.746689C7.28242 0.712889 7.28133 0.679089 7.28021 0.644264C7.27751 0.431827 7.28895 0.299454 7.42186 0.130234C7.59178 -0.0149059 7.72935 -0.0191604 7.94269 -0.0172677ZM5.98944 4.84355C5.80518 5.04728 5.74857 5.24858 5.75293 5.519C5.77421 5.71296 5.92582 5.84439 6.06879 5.96392C6.37274 6.17581 6.91768 6.44534 7.29165 6.44534C7.29165 5.72561 7.29165 5.00588 7.29165 4.26435C6.82382 4.26435 6.31658 4.52822 5.98944 4.84355ZM9.40754 10.2214C9.40754 10.9411 9.40754 11.6608 9.40754 12.4024C9.92768 12.3078 10.4331 12.147 10.7747 11.7188C10.9069 11.5156 10.9407 11.3069 10.9049 11.0677C10.7506 10.7334 10.3852 10.5477 10.0586 10.4167C9.73927 10.2848 9.73927 10.2848 9.40754 10.2214Z" fill="white"/>
</g>
<defs>
<clipPath id="clip0_212_1140">
<rect width="16.6667" height="16.6667" fill="white"/>
</clipPath>
</defs>
</svg>
