<svg width="18" height="18" viewBox="0 0 18 18" fill="none" xmlns="http://www.w3.org/2000/svg">
<g clip-path="url(#clip0_226_762)">
<path d="M0.899902 8.9999C0.899902 11.1482 1.75329 13.2084 3.27234 14.7275C4.79138 16.2465 6.85165 17.0999 8.9999 17.0999C11.1482 17.0999 13.2084 16.2465 14.7275 14.7275C16.2465 13.2084 17.0999 11.1482 17.0999 8.9999C17.0999 6.85165 16.2465 4.79138 14.7275 3.27234C13.2084 1.75329 11.1482 0.899902 8.9999 0.899902C6.85165 0.899902 4.79138 1.75329 3.27234 3.27234C1.75329 4.79138 0.899902 6.85165 0.899902 8.9999Z" stroke="#606266" stroke-width="2" stroke-linecap="round" stroke-linejoin="round"/>
<path d="M1.52222 12.1158H3.70382C4.2821 12.1153 4.83654 11.8852 5.24528 11.4761C5.65402 11.0671 5.88362 10.5124 5.88362 9.93416V8.06576C5.88362 7.48716 6.11346 6.93227 6.52259 6.52314C6.93172 6.11401 7.48662 5.88416 8.06522 5.88416C8.35147 5.88416 8.63492 5.82778 8.89939 5.71823C9.16386 5.60869 9.40415 5.44813 9.60657 5.24571C9.80898 5.0433 9.96954 4.803 10.0791 4.53853C10.1886 4.27407 10.245 3.99062 10.245 3.70436V0.995361M17.0994 8.87216C16.4775 8.55116 15.7886 8.38155 15.0888 8.37716H12.4194C12.1278 8.36878 11.8374 8.41899 11.5655 8.52481C11.2936 8.63063 11.0457 8.78992 10.8364 8.99324C10.6272 9.19657 10.4609 9.4398 10.3473 9.70855C10.2337 9.97729 10.1752 10.2661 10.1752 10.5579C10.1752 10.8496 10.2337 11.1384 10.3473 11.4072C10.4609 11.6759 10.6272 11.9192 10.8364 12.1225C11.0457 12.3258 11.2936 12.4851 11.5655 12.5909C11.8374 12.6967 12.1278 12.7469 12.4194 12.7386C12.8324 12.7386 13.2284 12.9026 13.5204 13.1946C13.8124 13.4866 13.9764 13.8826 13.9764 14.2956V15.3846" stroke="#606266" stroke-width="2" stroke-linecap="round" stroke-linejoin="round"/>
</g>
<defs>
<clipPath id="clip0_226_762">
<rect width="18" height="18" fill="white"/>
</clipPath>
</defs>
</svg>
